<svg width="38" height="49" viewBox="0 0 38 49" fill="none" xmlns="http://www.w3.org/2000/svg">
<path fill-rule="evenodd" clip-rule="evenodd" d="M9.36108 25.2134C6.3383 25.2168 3.89012 27.6684 3.89012 30.6912C3.89012 34.4401 3.89012 39.6921 3.89012 43.4411C3.89012 46.4656 6.3434 48.9188 9.36787 48.9188C14.0806 48.9188 21.341 48.9188 26.0807 48.9188C27.8685 48.9188 29.4607 48.073 30.4751 46.7604C30.5829 46.8093 30.7009 46.8362 30.8272 46.8362H35.0058C36.6588 46.8362 38 45.4967 38 43.8438C38 40.4015 38 33.6937 38 30.2531C38 29.4578 37.6849 28.6979 37.1222 28.1351C36.5611 27.574 35.7995 27.2589 35.0058 27.2589C33.1036 27.2589 30.6267 27.2589 30.6267 27.2589C30.5812 27.2589 30.5357 27.2623 30.4919 27.2707C30.0488 26.5917 29.5096 26.0087 28.9317 25.6178C27.6562 24.2783 25.9258 21.1662 22.5845 16.2428C21.4944 14.6354 19.7791 14.1029 18.3216 14.1602C17.3393 14.1973 16.4783 14.5141 15.9695 14.91C13.7774 16.2091 13.4504 18.6405 14.1328 21.087C14.4597 22.2614 15.3309 23.9716 15.961 25.1309C15.961 25.1309 9.53126 25.2101 9.36108 25.2134ZM9.36787 26.8984L17.405 26.7973C17.7066 26.7939 17.9829 26.6305 18.1295 26.3676C18.2761 26.1031 18.2728 25.7829 18.1177 25.5235C18.1177 25.5235 16.2508 22.4147 15.7554 20.6354C15.287 18.9539 15.3325 17.2319 16.8506 16.3456C16.849 16.3473 16.822 16.3608 16.822 16.3608C16.822 16.3608 16.94 16.2934 16.9922 16.2496C17.277 16.0103 17.801 15.8671 18.3873 15.8435C19.3427 15.8064 20.4767 16.135 21.1911 17.1881C24.6738 22.3238 26.4767 25.5235 27.791 26.8596C27.8348 26.9051 27.8837 26.9455 27.9376 26.9792C29.0378 27.6835 29.9477 29.3634 29.9477 30.7653V43.3653C29.9477 45.5018 28.2172 47.2339 26.0807 47.2339H9.36787C7.27349 47.2339 5.57506 45.5355 5.57506 43.4411C5.57506 39.6921 5.57506 34.4401 5.57506 30.6912C5.57506 28.5968 7.27349 26.8984 9.36787 26.8984ZM31.3074 28.9439C31.5147 29.5538 31.6326 30.1773 31.6326 30.7653V43.3653C31.6326 43.9904 31.5298 44.5919 31.3394 45.1513H35.0058C35.7287 45.1513 36.3151 44.5666 36.3151 43.8438V30.2531C36.3151 29.906 36.1769 29.5724 35.9309 29.328C35.6866 29.082 35.3529 28.9439 35.0058 28.9439H31.3074ZM4.55395 6.23427L3.36944 7.90237L1.4166 8.514C0.793171 8.70945 0.301199 9.1964 0.099006 9.81814C-0.103187 10.4416 0.00798307 11.1223 0.398889 11.648L1.61714 13.2908L1.59693 15.3363C1.59019 15.9901 1.90021 16.6068 2.43097 16.9926C2.96004 17.3768 3.64245 17.4812 4.2625 17.2723L6.20182 16.6219L8.14118 17.2723C8.76124 17.4812 9.44365 17.3768 9.97272 16.9926C10.5035 16.6068 10.8135 15.9901 10.8068 15.3363L10.7866 13.2908L12.0047 11.648C12.394 11.1223 12.5069 10.4416 12.3047 9.81814C12.1025 9.1964 11.6105 8.70945 10.9871 8.514L9.0342 7.90237L7.84973 6.23427C7.47062 5.70183 6.85557 5.38506 6.20182 5.38506C5.54806 5.38506 4.93307 5.70183 4.55395 6.23427ZM29.6747 6.23427L28.4885 7.90237L26.5373 8.514C25.9139 8.70945 25.4219 9.1964 25.2198 9.81814C25.0176 10.4416 25.1288 11.1223 25.5197 11.648L26.7379 13.2908L26.7177 15.3363C26.7109 15.9901 27.021 16.6068 27.5517 16.9926C28.0808 17.3768 28.7632 17.4812 29.3833 17.2723L31.3226 16.6219L33.262 17.2723C33.882 17.4812 34.5644 17.3768 35.0935 16.9926C35.6225 16.6068 35.9343 15.9901 35.9276 15.3363L35.9073 13.2908L37.1255 11.648C37.5148 11.1223 37.6276 10.4416 37.4254 9.81814C37.2232 9.1964 36.7313 8.70945 36.1078 8.514L34.155 7.90237L32.9705 6.23427C32.5914 5.70183 31.9764 5.38506 31.3226 5.38506C30.6672 5.38506 30.0538 5.70183 29.6747 6.23427ZM5.92718 7.21154C5.99121 7.12224 6.0923 7.07 6.20182 7.07C6.31134 7.07 6.41248 7.12224 6.47651 7.21154C7.11173 8.10456 7.82613 9.10878 7.82613 9.10878C7.93228 9.25874 8.08561 9.36995 8.26084 9.42387C8.26084 9.42387 9.43692 9.79455 10.4816 10.1214C10.586 10.1551 10.6686 10.236 10.7023 10.3388C10.736 10.4433 10.7175 10.5561 10.6518 10.6438C9.99971 11.5233 9.26338 12.514 9.26338 12.514C9.15386 12.6623 9.09658 12.8409 9.09827 13.0246C9.09827 13.0246 9.11003 14.258 9.12182 15.3532C9.1235 15.4627 9.07127 15.5655 8.98365 15.6295C8.89435 15.6935 8.7815 15.7104 8.67703 15.675C7.63911 15.3262 6.46977 14.9336 6.46977 14.9336C6.29622 14.8746 6.10747 14.8746 5.93392 14.9336C5.93392 14.9336 4.76458 15.3262 3.72665 15.675C3.62219 15.7104 3.50934 15.6935 3.42003 15.6295C3.33242 15.5655 3.28018 15.4627 3.28187 15.3532C3.29366 14.258 3.30542 13.0246 3.30542 13.0246C3.3071 12.8409 3.24983 12.6623 3.14031 12.514C3.14031 12.514 2.40398 11.5233 1.75191 10.6438C1.6862 10.5561 1.66766 10.4433 1.70136 10.3388C1.73506 10.236 1.81764 10.1551 1.92211 10.1214C2.96677 9.79455 4.14285 9.42387 4.14285 9.42387C4.31808 9.36995 4.4714 9.25874 4.57756 9.10878L5.92718 7.21154ZM31.0479 7.21154C31.1103 7.12224 31.2131 7.07 31.3226 7.07C31.4321 7.07 31.5332 7.12224 31.5973 7.21154C32.2308 8.10456 32.9469 9.10878 32.9469 9.10878C33.053 9.25874 33.2064 9.36995 33.3816 9.42387C33.3816 9.42387 34.5577 9.79455 35.6023 10.1214C35.7068 10.1551 35.7894 10.236 35.8231 10.3388C35.8568 10.4433 35.8382 10.5561 35.7725 10.6438C35.1205 11.5233 34.3841 12.514 34.3841 12.514C34.2746 12.6623 34.2173 12.8409 34.219 13.0246C34.219 13.0246 34.2308 14.258 34.2426 15.3532C34.2443 15.4627 34.1921 15.5655 34.1028 15.6295C34.0151 15.6935 33.9022 15.7104 33.7978 15.675C32.7599 15.3262 31.5905 14.9336 31.5905 14.9336C31.417 14.8746 31.2282 14.8746 31.0547 14.9336C31.0547 14.9336 29.8853 15.3262 28.8474 15.675C28.7429 15.7104 28.6301 15.6935 28.5408 15.6295C28.4532 15.5655 28.4009 15.4627 28.4026 15.3532C28.4144 14.258 28.4262 13.0246 28.4262 13.0246C28.4279 12.8409 28.3689 12.6623 28.2594 12.514C28.2594 12.514 27.5247 11.5233 26.8727 10.6438C26.8069 10.5561 26.7884 10.4433 26.8221 10.3388C26.8558 10.236 26.9384 10.1551 27.0429 10.1214C28.0875 9.79455 29.2636 9.42387 29.2636 9.42387C29.4388 9.36995 29.5922 9.25874 29.6983 9.10878L31.0479 7.21154ZM17.1152 0.849212L15.929 2.5173L13.9778 3.12894C13.3527 3.32439 12.8624 3.81133 12.6602 4.43307C12.458 5.0565 12.5692 5.73721 12.9584 6.26292L14.1783 7.90574L14.1581 9.95125C14.1514 10.605 14.4614 11.2217 14.9905 11.6075C15.5195 11.9917 16.2036 12.0962 16.8237 11.8872L18.7614 11.2369L20.7007 11.8872C21.3208 12.0962 22.0049 11.9917 22.534 11.6075C23.063 11.2217 23.373 10.605 23.3663 9.95125L23.3461 7.90574L24.5643 6.26292C24.9552 5.73721 25.0664 5.0565 24.8642 4.43307C24.662 3.81133 24.1717 3.32439 23.5466 3.12894L21.5954 2.5173L20.4092 0.849212C20.0301 0.316771 19.4168 0 18.7614 0C18.1076 0 17.4943 0.316771 17.1152 0.849212ZM18.4867 1.82647C18.5508 1.73717 18.6535 1.68494 18.7614 1.68494C18.8709 1.68494 18.9737 1.73717 19.036 1.82647C19.6712 2.71781 20.3857 3.72371 20.3857 3.72371C20.4935 3.87367 20.6452 3.98488 20.8204 4.0388C20.8204 4.0388 21.9982 4.40949 23.0428 4.73636C23.1456 4.76838 23.2281 4.85094 23.2618 4.95372C23.2955 5.05819 23.277 5.17108 23.2113 5.2587C22.5592 6.13824 21.8246 7.12898 21.8246 7.12898C21.7151 7.27557 21.6561 7.45585 21.6578 7.63951C21.6578 7.63951 21.6713 8.87289 21.6814 9.9681C21.6831 10.0776 21.6308 10.1804 21.5432 10.2444C21.4556 10.3085 21.341 10.3253 21.2382 10.2899C20.2003 9.94114 19.031 9.54855 19.031 9.54855C18.8557 9.48957 18.667 9.48957 18.4935 9.54855C18.4935 9.54855 17.3241 9.94114 16.2862 10.2899C16.1834 10.3253 16.0688 10.3085 15.9812 10.2444C15.8936 10.1804 15.8414 10.0776 15.8414 9.9681C15.8532 8.87289 15.865 7.63951 15.865 7.63951C15.8683 7.45585 15.8094 7.27557 15.6999 7.12898C15.6999 7.12898 14.9652 6.13824 14.3115 5.2587C14.2474 5.17108 14.2289 5.05819 14.2626 4.95372C14.2963 4.85094 14.3771 4.76838 14.4816 4.73636C15.5263 4.40949 16.704 4.0388 16.704 4.0388C16.8793 3.98488 17.031 3.87367 17.1388 3.72371L18.4867 1.82647Z" fill="#6941C6"/>
</svg>
