<svg width="1804" height="1312" viewBox="0 0 1804 1312" fill="none" xmlns="http://www.w3.org/2000/svg">
<g opacity="0.5">
<g opacity="0.1">
<g opacity="0.44">
<path opacity="0.44" d="M113.249 1069.79L0 935.819L922.102 156.385L1035.35 290.374L113.249 1069.79Z" fill="url(#paint0_radial_85_4260)"/>
<path opacity="0.44" d="M907.546 1026.96L814.441 916.821L1557.9 288.4L1651 398.529L907.546 1026.96Z" fill="url(#paint1_radial_85_4260)"/>
<path opacity="0.44" d="M290.012 581.151L253.699 538.191L607.002 239.561L643.315 282.521L290.012 581.151Z" fill="url(#paint2_radial_85_4260)"/>
<path opacity="0.44" d="M499.669 1250.04L427.871 1165.09L854.481 804.5L926.265 889.433L499.669 1250.04Z" fill="url(#paint3_radial_85_4260)"/>
<path opacity="0.44" d="M656.567 938.546L575.117 842.191L1161.77 346.293L1243.22 442.648L656.567 938.546Z" fill="url(#paint4_radial_85_4260)"/>
<path opacity="0.44" d="M154.539 1276.76L48.2852 1151.04L586.954 695.723L693.208 821.424L154.539 1276.76Z" fill="url(#paint5_radial_85_4260)"/>
<path opacity="0.44" d="M915.382 1421.12L875.789 1374.27L1198.21 1101.74L1237.81 1148.59L915.382 1421.12Z" fill="url(#paint6_radial_85_4260)"/>
<path opacity="0.44" d="M856.831 1259.35L795.816 1187.16L1292.66 767.186L1353.69 839.376L856.831 1259.35Z" fill="url(#paint7_radial_85_4260)"/>
</g>
<g opacity="0.11">
<path opacity="0.11" d="M641.239 878.418C697.741 878.418 743.545 832.614 743.545 776.112C743.545 719.611 697.741 673.807 641.239 673.807C584.737 673.807 538.934 719.611 538.934 776.112C538.934 832.614 584.737 878.418 641.239 878.418Z" fill="url(#paint8_linear_85_4260)"/>
<path opacity="0.11" d="M754.618 1304.11C867.437 1304.11 958.895 1212.66 958.895 1099.84C958.895 987.017 867.437 895.559 754.618 895.559C641.798 895.559 550.34 987.017 550.34 1099.84C550.34 1212.66 641.798 1304.11 754.618 1304.11Z" fill="url(#paint9_linear_85_4260)"/>
<path opacity="0.11" d="M815.069 660.729C1000.84 660.729 1151.43 510.133 1151.43 324.363C1151.43 138.594 1000.84 -12.002 815.069 -12.002C629.299 -12.002 478.703 138.594 478.703 324.363C478.703 510.133 629.299 660.729 815.069 660.729Z" fill="url(#paint10_linear_85_4260)"/>
<path opacity="0.11" d="M1296.1 1108.43C1431.27 1108.43 1540.86 998.847 1540.86 863.672C1540.86 728.497 1431.27 618.916 1296.1 618.916C1160.92 618.916 1051.34 728.497 1051.34 863.672C1051.34 998.847 1160.92 1108.43 1296.1 1108.43Z" fill="url(#paint11_linear_85_4260)"/>
<path opacity="0.11" d="M216.485 818.085C292.064 818.085 353.333 756.816 353.333 681.237C353.333 605.658 292.064 544.389 216.485 544.389C140.906 544.389 79.6367 605.658 79.6367 681.237C79.6367 756.816 140.906 818.085 216.485 818.085Z" fill="url(#paint12_linear_85_4260)"/>
</g>
<g opacity="0.72">
<g opacity="0.72">
<path opacity="0.72" d="M758.448 250.012L550.774 435.19L547.871 431.924L755.531 246.746L758.448 250.012ZM762.961 255.077L555.302 440.255L558.205 443.52L765.864 258.342L762.961 255.077ZM770.392 263.408L562.718 448.586L565.621 451.851L773.295 266.659L770.392 263.408ZM777.809 271.738L570.149 456.916L573.052 460.182L780.711 275.004L777.809 271.738ZM785.24 280.055L577.58 465.233L580.483 468.498L788.142 283.32L785.24 280.055ZM792.671 288.385L584.997 473.563L587.899 476.829L795.559 291.651L792.671 288.385ZM800.087 296.716L592.428 481.894L595.33 485.16L802.99 299.982L800.087 296.716ZM807.518 305.047L599.859 490.225L602.761 493.49L810.421 308.312L807.518 305.047ZM814.949 313.378L607.289 498.556L610.192 501.821L817.852 316.643L814.949 313.378ZM822.365 321.694L614.706 506.872L617.609 510.137L825.268 324.959L822.365 321.694ZM829.796 330.025L622.137 515.203L625.039 518.468L832.699 333.29L829.796 330.025ZM837.227 338.355L629.568 523.533L632.47 526.799L840.13 341.621L837.227 338.355ZM844.643 346.686L636.984 531.864L639.887 535.13L847.546 349.952L844.643 346.686ZM852.074 355.017L644.415 540.195L647.318 543.461L854.977 358.283L852.074 355.017ZM859.505 363.333L651.846 548.511L654.749 551.777L862.408 366.599L859.505 363.333ZM866.922 371.664L659.262 556.842L662.165 560.108L869.839 374.93L866.922 371.664ZM874.353 379.995L666.693 565.173L669.596 568.438L877.255 383.26L874.353 379.995ZM881.784 388.325L674.124 573.504L677.027 576.769L884.686 391.591L881.784 388.325ZM889.215 396.656L681.541 581.834L684.443 585.1L892.103 399.922L889.215 396.656ZM896.631 404.972L688.972 590.165L691.874 593.431L899.548 408.238L896.631 404.972ZM904.062 413.303L696.402 598.481L699.305 601.747L906.965 416.569L904.062 413.303ZM911.493 421.634L703.819 606.812L706.722 610.078L914.381 424.9L911.493 421.634ZM918.909 429.965L711.25 615.143L714.152 618.408L921.812 433.23L918.909 429.965Z" fill="white"/>
</g>
<g opacity="0.72">
<path opacity="0.72" d="M405.508 706.723L252.942 842.773L250.809 840.378L403.375 704.328L405.508 706.723ZM408.832 710.453L256.266 846.503L258.399 848.897L410.965 712.848L408.832 710.453ZM414.289 716.563L261.723 852.613L263.856 855.007L416.422 718.958L414.289 716.563ZM419.746 722.688L267.18 858.737L269.313 861.132L421.879 725.082L419.746 722.688ZM425.203 728.812L272.637 864.862L274.77 867.257L427.337 731.207L425.203 728.812ZM430.66 734.923L278.08 870.972L280.213 873.367L432.779 737.317L430.66 734.923ZM436.117 741.047L283.537 877.097L285.67 879.492L438.236 743.442L436.117 741.047ZM441.56 747.158L288.994 883.207L291.127 885.602L443.693 749.552L441.56 747.158ZM447.017 753.282L294.451 889.332L296.584 891.727L449.15 755.677L447.017 753.282ZM452.474 759.392L299.908 895.442L302.041 897.837L454.607 761.787L452.474 759.392ZM457.931 765.517L305.365 901.567L307.498 903.962L460.079 767.912L457.931 765.517ZM463.388 771.642L310.822 907.692L312.955 910.086L465.522 774.037L463.388 771.642ZM468.845 777.752L316.279 913.802L318.413 916.196L470.979 780.147L468.845 777.752ZM474.302 783.877L321.736 919.926L323.87 922.321L476.436 786.271L474.302 783.877ZM479.759 789.987L327.193 926.037L329.327 928.431L481.893 792.382L479.759 789.987ZM485.216 796.112L332.65 932.161L334.784 934.556L487.35 798.506L485.216 796.112ZM490.674 802.236L338.107 938.286L340.241 940.681L492.807 804.631L490.674 802.236ZM496.131 808.346L343.565 944.396L345.698 946.791L498.264 810.741L496.131 808.346ZM501.588 814.471L349.022 950.521L351.155 952.916L503.721 816.866L501.588 814.471ZM507.045 820.581L354.479 956.631L356.612 959.026L509.178 822.976L507.045 820.581ZM512.502 826.706L359.936 962.756L362.069 965.151L514.635 829.101L512.502 826.706ZM517.959 832.816L365.393 968.866L367.526 971.261L520.092 835.211L517.959 832.816ZM523.416 838.941L370.85 974.991L372.983 977.385L525.549 841.336L523.416 838.941Z" fill="white"/>
</g>
<g opacity="0.72">
<path opacity="0.72" d="M285.9 367.601L144.872 493.361L142.898 491.141L283.926 365.381L285.9 367.601ZM288.977 371.041L147.949 496.801L149.923 499.021L290.951 373.262L288.977 371.041ZM294.013 376.701L152.985 502.461L154.959 504.682L295.987 378.922L294.013 376.701ZM299.064 382.347L158.036 508.107L160.01 510.327L301.038 384.568L299.064 382.347ZM304.1 388.007L163.072 513.767L165.046 515.988L306.074 390.228L304.1 388.007ZM309.151 393.668L168.123 519.427L170.097 521.648L311.125 395.888L309.151 393.668ZM314.187 399.328L173.159 525.088L175.133 527.308L316.161 401.549L314.187 399.328ZM319.238 404.974L178.21 530.733L180.184 532.954L321.212 407.194L319.238 404.974ZM324.274 410.634L183.246 536.394L185.22 538.614L326.248 412.855L324.274 410.634ZM329.325 416.294L188.297 542.054L190.271 544.275L331.298 418.515L329.325 416.294ZM334.361 421.94L193.333 547.7L195.307 549.92L336.335 424.161L334.361 421.94ZM339.411 427.6L198.384 553.36L200.357 555.581L341.385 429.821L339.411 427.6ZM344.448 433.261L203.42 559.02L205.394 561.241L346.422 435.481L344.448 433.261ZM349.498 438.906L208.471 564.666L210.444 566.887L351.472 441.127L349.498 438.906ZM354.535 444.567L213.507 570.326L215.481 572.547L356.508 446.787L354.535 444.567ZM359.585 450.227L218.557 575.987L220.531 578.207L361.559 452.433L359.585 450.227ZM364.636 455.873L223.608 581.632L225.582 583.853L366.61 458.093L364.636 455.873ZM369.672 461.533L228.644 587.293L230.618 589.513L371.646 463.753L369.672 461.533ZM374.723 467.193L233.695 592.953L235.669 595.173L376.697 469.414L374.723 467.193ZM379.759 472.853L238.731 598.613L240.705 600.834L381.733 475.074L379.759 472.853ZM384.81 478.499L243.782 604.259L245.756 606.479L386.784 480.72L384.81 478.499ZM389.846 484.159L248.818 609.919L250.792 612.14L391.82 486.38L389.846 484.159ZM394.897 489.82L253.869 615.579L255.843 617.8L396.871 492.04L394.897 489.82Z" fill="white"/>
</g>
<g opacity="0.72">
<path opacity="0.72" d="M687.734 736.099L594.209 819.508L592.902 818.042L686.427 734.633L687.734 736.099ZM689.766 738.377L596.24 821.786L597.547 823.252L691.072 739.843L689.766 738.377ZM693.104 742.122L599.579 825.531L600.885 826.997L694.41 743.588L693.104 742.122ZM696.456 745.881L602.931 829.29L604.237 830.756L697.763 747.347L696.456 745.881ZM699.794 749.625L606.269 833.034L607.576 834.5L701.101 751.091L699.794 749.625ZM703.147 753.384L609.622 836.794L610.928 838.259L704.453 754.85L703.147 753.384ZM706.485 757.129L612.96 840.538L614.266 842.004L707.791 758.595L706.485 757.129ZM709.838 760.888L616.313 844.297L617.619 845.763L711.144 762.354L709.838 760.888ZM713.176 764.632L619.651 848.041L620.957 849.507L714.482 766.098L713.176 764.632ZM716.529 768.391L623.003 851.8L624.31 853.266L717.835 769.857L716.529 768.391ZM719.867 772.136L626.342 855.545L627.648 857.011L721.173 773.602L719.867 772.136ZM723.219 775.88L629.694 859.289L631 860.755L724.525 777.346L723.219 775.88ZM726.557 779.639L633.032 863.048L634.338 864.514L727.864 781.105L726.557 779.639ZM729.91 783.384L636.385 866.793L637.691 868.259L731.216 784.85L729.91 783.384ZM733.248 787.143L639.723 870.552L641.029 872.018L734.554 788.609L733.248 787.143ZM736.586 790.887L643.061 874.296L644.367 875.762L737.892 792.353L736.586 790.887ZM739.939 794.646L646.414 878.055L647.72 879.521L741.245 796.112L739.939 794.646ZM743.277 798.391L649.752 881.8L651.058 883.266L744.583 799.857L743.277 798.391ZM746.63 802.15L653.104 885.559L654.411 887.025L747.936 803.616L746.63 802.15ZM749.968 805.894L656.443 889.303L657.749 890.769L751.274 807.36L749.968 805.894ZM753.32 809.639L659.795 893.048L661.101 894.514L754.627 811.105L753.32 809.639ZM756.658 813.398L663.133 896.807L664.439 898.273L757.965 814.864L756.658 813.398ZM760.011 817.142L666.486 900.551L667.792 902.017L761.317 818.608L760.011 817.142Z" fill="white"/>
</g>
<g opacity="0.72">
<path opacity="0.72" d="M510.472 1019.39L416.947 1102.8L415.641 1101.33L509.166 1017.92L510.472 1019.39ZM512.518 1021.67L418.993 1105.08L420.299 1106.54L513.825 1023.13L512.518 1021.67ZM515.856 1025.41L422.331 1108.82L423.638 1110.29L517.163 1026.88L515.856 1025.41ZM519.209 1029.17L425.684 1112.58L426.99 1114.04L520.515 1030.64L519.209 1029.17ZM522.547 1032.91L429.022 1116.32L430.328 1117.79L523.853 1034.38L522.547 1032.91ZM525.9 1036.67L432.375 1120.08L433.681 1121.55L527.206 1038.14L525.9 1036.67ZM529.238 1040.42L435.713 1123.83L437.019 1125.29L530.544 1041.88L529.238 1040.42ZM532.576 1044.18L439.051 1127.59L440.357 1129.05L533.882 1045.64L532.576 1044.18ZM535.929 1047.92L442.404 1131.33L443.71 1132.8L537.235 1049.39L535.929 1047.92ZM539.267 1051.67L445.742 1135.07L447.048 1136.54L540.573 1053.13L539.267 1051.67ZM542.619 1055.42L449.094 1138.83L450.4 1140.3L543.926 1056.89L542.619 1055.42ZM545.958 1059.17L452.432 1142.58L453.739 1144.04L547.264 1060.64L545.958 1059.17ZM549.31 1062.93L455.785 1146.34L457.091 1147.8L550.616 1064.39L549.31 1062.93ZM552.648 1066.67L459.123 1150.08L460.429 1151.55L553.954 1068.14L552.648 1066.67ZM556.001 1070.43L462.476 1153.84L463.782 1155.31L557.307 1071.9L556.001 1070.43ZM559.339 1074.18L465.814 1157.59L467.12 1159.05L560.645 1075.64L559.339 1074.18ZM562.692 1077.94L469.166 1161.34L470.473 1162.81L563.998 1079.4L562.692 1077.94ZM566.03 1081.68L472.505 1165.09L473.811 1166.55L567.336 1083.15L566.03 1081.68ZM569.382 1085.42L475.857 1168.83L477.163 1170.3L570.689 1086.89L569.382 1085.42ZM572.72 1089.18L479.195 1172.59L480.502 1174.06L574.027 1090.65L572.72 1089.18ZM576.059 1092.93L482.533 1176.34L483.84 1177.8L577.365 1094.39L576.059 1092.93ZM579.411 1096.69L485.886 1180.1L487.192 1181.56L580.717 1098.15L579.411 1096.69ZM582.749 1100.43L489.224 1183.84L490.53 1185.31L584.056 1101.9L582.749 1100.43Z" fill="white"/>
</g>
<g opacity="0.72">
<path opacity="0.72" d="M1326.14 716.578L1185.11 842.338L1183.14 840.117L1324.17 714.357L1326.14 716.578ZM1329.2 720.018L1188.18 845.777L1190.15 847.998L1331.18 722.238L1329.2 720.018ZM1334.26 725.678L1193.23 851.438L1195.2 853.658L1336.23 727.899L1334.26 725.678ZM1339.29 731.338L1198.26 857.098L1200.24 859.318L1341.27 733.559L1339.29 731.338ZM1344.34 736.984L1203.31 862.744L1205.29 864.964L1346.32 739.205L1344.34 736.984ZM1349.38 742.644L1208.35 868.404L1210.32 870.624L1351.35 744.865L1349.38 742.644ZM1354.43 748.305L1213.4 874.064L1215.38 876.285L1356.4 750.525L1354.43 748.305ZM1359.47 753.965L1218.44 879.724L1220.41 881.945L1361.44 756.185L1359.47 753.965ZM1364.52 759.611L1223.49 885.37L1225.46 887.591L1366.49 761.831L1364.52 759.611ZM1369.55 765.271L1228.52 891.031L1230.5 893.251L1371.53 767.491L1369.55 765.271ZM1374.6 770.931L1233.58 896.691L1235.55 898.911L1376.58 773.152L1374.6 770.931ZM1379.64 776.577L1238.61 902.351L1240.59 904.572L1381.61 778.812L1379.64 776.577ZM1384.69 782.237L1243.66 907.997L1245.64 910.217L1386.66 784.458L1384.69 782.237ZM1389.73 787.897L1248.7 913.657L1250.67 915.878L1391.7 790.118L1389.73 787.897ZM1394.78 793.543L1253.75 919.303L1255.72 921.523L1396.75 795.764L1394.78 793.543ZM1399.81 799.203L1258.79 924.963L1260.76 927.184L1401.79 801.424L1399.81 799.203ZM1404.86 804.864L1263.84 930.623L1265.81 932.844L1406.84 807.084L1404.86 804.864ZM1409.9 810.524L1268.87 936.284L1270.85 938.504L1411.87 812.745L1409.9 810.524ZM1414.95 816.17L1273.92 941.929L1275.9 944.15L1416.92 818.39L1414.95 816.17ZM1419.99 821.83L1278.96 947.59L1280.93 949.81L1421.96 824.051L1419.99 821.83ZM1425.04 827.49L1284.01 953.25L1285.98 955.47L1427.01 829.711L1425.04 827.49ZM1430.07 833.136L1289.05 958.896L1291.02 961.116L1432.05 835.357L1430.07 833.136ZM1435.12 838.796L1294.1 964.556L1296.07 966.777L1437.1 841.017L1435.12 838.796Z" fill="white"/>
</g>
</g>
<path d="M268.99 1234.64C404.165 1234.64 513.746 1125.06 513.746 989.889C513.746 854.714 404.165 745.133 268.99 745.133C133.815 745.133 24.2344 854.714 24.2344 989.889C24.2344 1125.06 133.815 1234.64 268.99 1234.64Z" fill="url(#paint13_linear_85_4260)"/>
<path d="M1309.68 1159.33C1385.26 1159.33 1446.53 1098.07 1446.53 1022.49C1446.53 946.908 1385.26 885.639 1309.68 885.639C1234.1 885.639 1172.83 946.908 1172.83 1022.49C1172.83 1098.07 1234.1 1159.33 1309.68 1159.33Z" fill="url(#paint14_linear_85_4260)"/>
<path d="M1531.51 306.027C1623.48 306.027 1698.03 231.477 1698.03 139.514C1698.03 47.5507 1623.48 -27 1531.51 -27C1439.55 -27 1365 47.5507 1365 139.514C1365 231.477 1439.55 306.027 1531.51 306.027Z" fill="url(#paint15_linear_85_4260)"/>
<g opacity="0.68">
<path opacity="0.68" d="M549.367 523.418L448.223 609.033" stroke="white" stroke-width="2" stroke-miterlimit="10" stroke-linecap="round"/>
<path opacity="0.68" d="M282.158 640.979L181.027 726.594" stroke="white" stroke-width="2" stroke-miterlimit="10" stroke-linecap="round"/>
<path opacity="0.68" d="M568.469 273.902L467.324 359.532" stroke="white" stroke-width="2" stroke-miterlimit="10" stroke-linecap="round"/>
<path opacity="0.68" d="M837.458 567.641L736.328 653.256" stroke="white" stroke-width="2" stroke-miterlimit="10" stroke-linecap="round"/>
<path opacity="0.68" d="M822.121 788.596L720.977 874.211" stroke="white" stroke-width="2" stroke-miterlimit="10" stroke-linecap="round"/>
<path opacity="0.68" d="M1205.68 899.508L1104.54 985.138" stroke="white" stroke-width="2" stroke-miterlimit="10" stroke-linecap="round"/>
<path opacity="0.68" d="M1215.71 493.275L1114.56 578.891" stroke="white" stroke-width="2" stroke-miterlimit="10" stroke-linecap="round"/>
<path opacity="0.68" d="M1240.01 696.377L1138.88 781.992" stroke="white" stroke-width="2" stroke-miterlimit="10" stroke-linecap="round"/>
<path opacity="0.68" d="M1160.82 1186.03L1059.69 1271.66" stroke="white" stroke-width="2" stroke-miterlimit="10" stroke-linecap="round"/>
<path opacity="0.68" d="M473.794 791.396L372.664 877.012" stroke="white" stroke-width="2" stroke-miterlimit="10" stroke-linecap="round"/>
<path opacity="0.68" d="M846.185 1061.09L745.055 1146.7" stroke="white" stroke-width="2" stroke-miterlimit="10" stroke-linecap="round"/>
</g>
<path d="M640.165 728.261C616.566 728.261 597.379 709.06 597.379 685.475C597.379 661.891 616.58 642.689 640.165 642.689C663.764 642.689 682.951 661.891 682.951 685.475C682.951 709.06 663.749 728.261 640.165 728.261ZM640.165 644.315C617.48 644.315 599.019 662.776 599.019 685.461C599.019 708.145 617.48 726.607 640.165 726.607C662.849 726.607 681.311 708.145 681.311 685.461C681.311 662.776 662.849 644.315 640.165 644.315Z" fill="url(#paint16_linear_85_4260)"/>
<path d="M1727.27 360.537C1685.21 360.537 1651 326.329 1651 284.269C1651 242.208 1685.22 208 1727.27 208C1769.31 208 1803.54 242.223 1803.54 284.269C1803.54 326.314 1769.33 360.537 1727.27 360.537ZM1727.27 210.917C1686.82 210.917 1653.92 243.819 1653.92 284.269C1653.92 324.718 1686.82 357.62 1727.27 357.62C1767.72 357.62 1800.62 324.718 1800.62 284.269C1800.62 243.819 1767.72 210.917 1727.27 210.917Z" fill="url(#paint17_linear_85_4260)"/>
<path d="M517.19 502.401C465.884 502.401 424.129 460.66 424.129 409.34C424.129 358.02 465.87 316.279 517.19 316.279C568.495 316.279 610.25 358.02 610.25 409.34C610.25 460.66 568.495 502.401 517.19 502.401ZM517.19 319.864C467.844 319.864 427.699 360.009 427.699 409.354C427.699 458.7 467.844 498.845 517.19 498.845C566.536 498.845 606.68 458.7 606.68 409.354C606.68 360.009 566.536 319.864 517.19 319.864Z" fill="url(#paint18_linear_85_4260)"/>
<path d="M536.026 1126.02C472.848 1126.02 421.441 1074.62 421.441 1011.45C421.441 948.27 472.834 896.863 536.026 896.863C599.217 896.863 650.595 948.256 650.595 1011.45C650.61 1074.61 599.203 1126.02 536.026 1126.02ZM536.026 901.246C475.272 901.246 425.839 950.679 425.839 1011.43C425.839 1072.19 475.272 1121.62 536.026 1121.62C596.779 1121.62 646.212 1072.19 646.212 1011.43C646.212 950.679 596.779 901.246 536.026 901.246Z" fill="url(#paint19_linear_85_4260)"/>
<path d="M985.485 1038.44C961.886 1038.44 942.699 1019.24 942.699 995.657C942.699 972.058 961.901 952.871 985.485 952.871C1009.07 952.871 1028.27 972.072 1028.27 995.657C1028.27 1019.24 1009.08 1038.44 985.485 1038.44ZM985.485 954.511C962.8 954.511 944.339 972.972 944.339 995.657C944.339 1018.34 962.8 1036.8 985.485 1036.8C1008.17 1036.8 1026.63 1018.34 1026.63 995.657C1026.63 972.972 1008.17 954.511 985.485 954.511Z" fill="url(#paint20_linear_85_4260)"/>
<path d="M1322.59 1124.02C1298.99 1124.02 1279.8 1104.83 1279.8 1081.23C1279.8 1057.63 1299 1038.44 1322.59 1038.44C1346.19 1038.44 1365.37 1057.64 1365.37 1081.23C1365.37 1104.83 1346.17 1124.02 1322.59 1124.02ZM1322.59 1040.08C1299.9 1040.08 1281.44 1058.54 1281.44 1081.23C1281.44 1103.91 1299.9 1122.37 1322.59 1122.37C1345.27 1122.37 1363.73 1103.91 1363.73 1081.23C1363.73 1058.54 1345.27 1040.08 1322.59 1040.08Z" fill="url(#paint21_linear_85_4260)"/>
<path d="M1106.25 532.894C1082.65 532.894 1063.46 513.693 1063.46 490.108C1063.46 466.524 1082.66 447.322 1106.25 447.322C1129.83 447.322 1149.03 466.524 1149.03 490.108C1149.03 513.693 1129.85 532.894 1106.25 532.894ZM1106.25 448.962C1083.56 448.962 1065.1 467.423 1065.1 490.108C1065.1 512.793 1083.56 531.254 1106.25 531.254C1128.93 531.254 1147.39 512.793 1147.39 490.108C1147.39 467.409 1128.95 448.962 1106.25 448.962Z" fill="url(#paint22_linear_85_4260)"/>
<path d="M1144.92 767.476C1128.68 767.476 1115.48 754.269 1115.48 738.028C1115.48 721.787 1128.68 708.58 1144.92 708.58C1161.17 708.58 1174.37 721.787 1174.37 738.028C1174.37 754.269 1161.17 767.476 1144.92 767.476ZM1144.92 709.712C1129.31 709.712 1116.61 722.412 1116.61 738.028C1116.61 753.645 1129.31 766.344 1144.92 766.344C1160.54 766.344 1173.24 753.645 1173.24 738.028C1173.24 722.412 1160.54 709.712 1144.92 709.712Z" fill="url(#paint23_linear_85_4260)"/>
<path d="M818.749 497.728C802.508 497.728 789.301 484.521 789.301 468.28C789.301 452.039 802.508 438.832 818.749 438.832C834.989 438.832 848.197 452.039 848.197 468.28C848.197 484.521 834.989 497.728 818.749 497.728ZM818.749 439.979C803.132 439.979 790.433 452.678 790.433 468.294C790.433 483.911 803.132 496.61 818.749 496.61C834.365 496.61 847.065 483.911 847.065 468.294C847.065 452.678 834.365 439.979 818.749 439.979Z" fill="url(#paint24_linear_85_4260)"/>
<path d="M380.327 798.216C364.086 798.216 350.879 785.009 350.879 768.768C350.879 752.528 364.086 739.32 380.327 739.32C396.567 739.32 409.775 752.528 409.775 768.768C409.775 785.009 396.567 798.216 380.327 798.216ZM380.327 740.452C364.71 740.452 352.011 753.152 352.011 768.768C352.011 784.385 364.71 797.084 380.327 797.084C395.943 797.084 408.643 784.385 408.643 768.768C408.643 753.166 395.943 740.452 380.327 740.452Z" fill="url(#paint25_linear_85_4260)"/>
<path d="M253.089 591.224C236.848 591.224 223.641 578.017 223.641 561.776C223.641 545.535 236.848 532.328 253.089 532.328C269.329 532.328 282.536 545.535 282.536 561.776C282.536 578.017 269.329 591.224 253.089 591.224ZM253.089 533.475C237.472 533.475 224.773 546.174 224.773 561.791C224.773 577.407 237.472 590.106 253.089 590.106C268.705 590.106 281.404 577.407 281.404 561.791C281.404 546.174 268.705 533.475 253.089 533.475Z" fill="url(#paint26_linear_85_4260)"/>
<path d="M1355.17 826.546C1312.92 826.546 1278.54 792.178 1278.54 749.915C1278.54 707.666 1312.91 673.283 1355.17 673.283C1397.42 673.283 1431.8 707.651 1431.8 749.915C1431.8 792.178 1397.42 826.546 1355.17 826.546ZM1355.17 676.244C1314.55 676.244 1281.49 709.306 1281.49 749.929C1281.49 790.552 1314.55 823.614 1355.17 823.614C1395.79 823.614 1428.86 790.552 1428.86 749.929C1428.86 709.291 1395.81 676.244 1355.17 676.244Z" fill="url(#paint27_linear_85_4260)"/>
<path d="M769.956 939.839C753.715 939.839 740.508 926.632 740.508 910.391C740.508 894.151 753.715 880.943 769.956 880.943C786.196 880.943 799.404 894.151 799.404 910.391C799.404 926.632 786.196 939.839 769.956 939.839ZM769.956 882.075C754.339 882.075 741.64 894.775 741.64 910.391C741.64 926.008 754.339 938.707 769.956 938.707C785.572 938.707 798.272 926.008 798.272 910.391C798.272 894.789 785.572 882.075 769.956 882.075Z" fill="url(#paint28_linear_85_4260)"/>
</g>
<path d="M56.6542 988.308C54.6472 988.308 53 986.68 53 984.654C53 982.647 54.6283 981 56.6542 981C58.6801 981 60.3084 982.628 60.3084 984.654C60.3084 986.661 58.6612 988.308 56.6542 988.308Z" fill="#0B315E"/>
<path d="M91.0019 988.308C88.9949 988.308 87.3477 986.68 87.3477 984.654C87.3477 982.647 88.976 981 91.0019 981C93.0089 981 94.6561 982.628 94.6561 984.654C94.6372 986.661 93.0089 988.308 91.0019 988.308Z" fill="#0B315E"/>
<path d="M125.326 988.308C123.319 988.308 121.672 986.68 121.672 984.654C121.672 982.647 123.3 981 125.326 981C127.333 981 128.98 982.628 128.98 984.654C128.98 986.661 127.352 988.308 125.326 988.308Z" fill="#0B315E"/>
<path d="M159.674 988.308C157.667 988.308 156.02 986.68 156.02 984.654C156.02 982.647 157.648 981 159.674 981C161.681 981 163.328 982.628 163.328 984.654C163.328 986.661 161.681 988.308 159.674 988.308Z" fill="#0B315E"/>
<path d="M194.002 988.308C191.995 988.308 190.348 986.68 190.348 984.654C190.348 982.647 191.976 981 194.002 981C196.009 981 197.656 982.628 197.656 984.654C197.656 986.661 196.028 988.308 194.002 988.308Z" fill="#0B315E"/>
<path d="M228.346 988.308C226.339 988.308 224.691 986.68 224.691 984.654C224.691 982.647 226.32 981 228.346 981C230.372 981 232 982.628 232 984.654C232 986.661 230.353 988.308 228.346 988.308Z" fill="#0B315E"/>
<path d="M56.6542 1019.62C54.6472 1019.62 53 1017.99 53 1015.97C53 1013.96 54.6283 1012.31 56.6542 1012.31C58.6801 1012.31 60.3084 1013.94 60.3084 1015.97C60.3084 1017.97 58.6612 1019.62 56.6542 1019.62Z" fill="#0B315E"/>
<path d="M91.0019 1019.62C88.9949 1019.62 87.3477 1017.99 87.3477 1015.97C87.3477 1013.96 88.976 1012.31 91.0019 1012.31C93.0089 1012.31 94.6561 1013.94 94.6561 1015.97C94.6372 1017.97 93.0089 1019.62 91.0019 1019.62Z" fill="#0B315E"/>
<path d="M125.326 1019.62C123.319 1019.62 121.672 1017.99 121.672 1015.97C121.672 1013.96 123.3 1012.31 125.326 1012.31C127.333 1012.31 128.98 1013.94 128.98 1015.97C128.98 1017.97 127.352 1019.62 125.326 1019.62Z" fill="#0B315E"/>
<path d="M159.674 1019.62C157.667 1019.62 156.02 1017.99 156.02 1015.97C156.02 1013.96 157.648 1012.31 159.674 1012.31C161.681 1012.31 163.328 1013.94 163.328 1015.97C163.328 1017.97 161.681 1019.62 159.674 1019.62Z" fill="#0B315E"/>
<path d="M194.002 1019.62C191.995 1019.62 190.348 1017.99 190.348 1015.97C190.348 1013.96 191.976 1012.31 194.002 1012.31C196.009 1012.31 197.656 1013.94 197.656 1015.97C197.656 1017.97 196.028 1019.62 194.002 1019.62Z" fill="#0B315E"/>
<path d="M228.346 1019.62C226.339 1019.62 224.691 1017.99 224.691 1015.97C224.691 1013.96 226.32 1012.31 228.346 1012.31C230.372 1012.31 232 1013.94 232 1015.97C232 1017.97 230.353 1019.62 228.346 1019.62Z" fill="#0B315E"/>
<path d="M56.6542 1050.92C54.6472 1050.92 53 1049.3 53 1047.27C53 1045.26 54.6283 1043.62 56.6542 1043.62C58.6801 1043.62 60.3084 1045.24 60.3084 1047.27C60.3084 1049.3 58.6612 1050.92 56.6542 1050.92Z" fill="#0B315E"/>
<path d="M91.0019 1050.92C88.9949 1050.92 87.3477 1049.3 87.3477 1047.27C87.3477 1045.26 88.976 1043.62 91.0019 1043.62C93.0089 1043.62 94.6561 1045.24 94.6561 1047.27C94.6372 1049.3 93.0089 1050.92 91.0019 1050.92Z" fill="#0B315E"/>
<path d="M125.326 1050.92C123.319 1050.92 121.672 1049.3 121.672 1047.27C121.672 1045.26 123.3 1043.62 125.326 1043.62C127.333 1043.62 128.98 1045.24 128.98 1047.27C128.98 1049.3 127.352 1050.92 125.326 1050.92Z" fill="#0B315E"/>
<path d="M159.674 1050.92C157.667 1050.92 156.02 1049.3 156.02 1047.27C156.02 1045.26 157.648 1043.62 159.674 1043.62C161.681 1043.62 163.328 1045.24 163.328 1047.27C163.328 1049.3 161.681 1050.92 159.674 1050.92Z" fill="#0B315E"/>
<path d="M194.002 1050.92C191.995 1050.92 190.348 1049.3 190.348 1047.27C190.348 1045.26 191.976 1043.62 194.002 1043.62C196.009 1043.62 197.656 1045.24 197.656 1047.27C197.656 1049.3 196.028 1050.92 194.002 1050.92Z" fill="#0B315E"/>
<path d="M228.346 1050.92C226.339 1050.92 224.691 1049.3 224.691 1047.27C224.691 1045.26 226.32 1043.62 228.346 1043.62C230.372 1043.62 232 1045.24 232 1047.27C232 1049.3 230.353 1050.92 228.346 1050.92Z" fill="#0B315E"/>
<path d="M56.6542 1082.24C54.6472 1082.24 53 1080.61 53 1078.58C53 1076.58 54.6283 1074.93 56.6542 1074.93C58.6801 1074.93 60.3084 1076.56 60.3084 1078.58C60.3084 1080.59 58.6612 1082.24 56.6542 1082.24Z" fill="#0B315E"/>
<path d="M91.0019 1082.24C88.9949 1082.24 87.3477 1080.61 87.3477 1078.58C87.3477 1076.58 88.976 1074.93 91.0019 1074.93C93.0089 1074.93 94.6561 1076.56 94.6561 1078.58C94.6372 1080.59 93.0089 1082.24 91.0019 1082.24Z" fill="#0B315E"/>
<path d="M125.326 1082.24C123.319 1082.24 121.672 1080.61 121.672 1078.58C121.672 1076.58 123.3 1074.93 125.326 1074.93C127.333 1074.93 128.98 1076.56 128.98 1078.58C128.98 1080.59 127.352 1082.24 125.326 1082.24Z" fill="#0B315E"/>
<path d="M159.674 1082.24C157.667 1082.24 156.02 1080.61 156.02 1078.58C156.02 1076.58 157.648 1074.93 159.674 1074.93C161.681 1074.93 163.328 1076.56 163.328 1078.58C163.328 1080.59 161.681 1082.24 159.674 1082.24Z" fill="#0B315E"/>
<path d="M194.002 1082.24C191.995 1082.24 190.348 1080.61 190.348 1078.58C190.348 1076.58 191.976 1074.93 194.002 1074.93C196.009 1074.93 197.656 1076.56 197.656 1078.58C197.656 1080.59 196.028 1082.24 194.002 1082.24Z" fill="#0B315E"/>
<path d="M228.346 1082.24C226.339 1082.24 224.691 1080.61 224.691 1078.58C224.691 1076.58 226.32 1074.93 228.346 1074.93C230.372 1074.93 232 1076.56 232 1078.58C232 1080.59 230.353 1082.24 228.346 1082.24Z" fill="#0B315E"/>
<path d="M56.6542 1113.56C54.6472 1113.56 53 1111.93 53 1109.9C53 1107.9 54.6283 1106.25 56.6542 1106.25C58.6801 1106.25 60.3084 1107.88 60.3084 1109.9C60.3084 1111.91 58.6612 1113.56 56.6542 1113.56Z" fill="#0B315E"/>
<path d="M91.0019 1113.56C88.9949 1113.56 87.3477 1111.93 87.3477 1109.9C87.3477 1107.9 88.976 1106.25 91.0019 1106.25C93.0089 1106.25 94.6561 1107.88 94.6561 1109.9C94.6372 1111.91 93.0089 1113.56 91.0019 1113.56Z" fill="#0B315E"/>
<path d="M125.326 1113.56C123.319 1113.56 121.672 1111.93 121.672 1109.9C121.672 1107.9 123.3 1106.25 125.326 1106.25C127.333 1106.25 128.98 1107.88 128.98 1109.9C128.98 1111.91 127.352 1113.56 125.326 1113.56Z" fill="#0B315E"/>
<path d="M159.674 1113.56C157.667 1113.56 156.02 1111.93 156.02 1109.9C156.02 1107.9 157.648 1106.25 159.674 1106.25C161.681 1106.25 163.328 1107.88 163.328 1109.9C163.328 1111.91 161.681 1113.56 159.674 1113.56Z" fill="#0B315E"/>
<path d="M194.002 1113.56C191.995 1113.56 190.348 1111.93 190.348 1109.9C190.348 1107.9 191.976 1106.25 194.002 1106.25C196.009 1106.25 197.656 1107.88 197.656 1109.9C197.656 1111.91 196.028 1113.56 194.002 1113.56Z" fill="#0B315E"/>
<path d="M228.346 1113.56C226.339 1113.56 224.691 1111.93 224.691 1109.9C224.691 1107.9 226.32 1106.25 228.346 1106.25C230.372 1106.25 232 1107.88 232 1109.9C232 1111.91 230.353 1113.56 228.346 1113.56Z" fill="#0B315E"/>
<path d="M56.6542 1144.85C54.6472 1144.85 53 1143.22 53 1141.2C53 1139.19 54.6283 1137.54 56.6542 1137.54C58.6801 1137.54 60.3084 1139.17 60.3084 1141.2C60.3084 1143.22 58.6612 1144.85 56.6542 1144.85Z" fill="#0B315E"/>
<path d="M91.0019 1144.85C88.9949 1144.85 87.3477 1143.22 87.3477 1141.2C87.3477 1139.19 88.976 1137.54 91.0019 1137.54C93.0089 1137.54 94.6561 1139.17 94.6561 1141.2C94.6372 1143.22 93.0089 1144.85 91.0019 1144.85Z" fill="#0B315E"/>
<path d="M125.326 1144.85C123.319 1144.85 121.672 1143.22 121.672 1141.2C121.672 1139.19 123.3 1137.54 125.326 1137.54C127.333 1137.54 128.98 1139.17 128.98 1141.2C128.98 1143.22 127.352 1144.85 125.326 1144.85Z" fill="#0B315E"/>
<path d="M159.674 1144.85C157.667 1144.85 156.02 1143.22 156.02 1141.2C156.02 1139.19 157.648 1137.54 159.674 1137.54C161.681 1137.54 163.328 1139.17 163.328 1141.2C163.328 1143.22 161.681 1144.85 159.674 1144.85Z" fill="#0B315E"/>
<path d="M194.002 1144.85C191.995 1144.85 190.348 1143.22 190.348 1141.2C190.348 1139.19 191.976 1137.54 194.002 1137.54C196.009 1137.54 197.656 1139.17 197.656 1141.2C197.656 1143.22 196.028 1144.85 194.002 1144.85Z" fill="#0B315E"/>
<path d="M228.346 1144.85C226.339 1144.85 224.691 1143.22 224.691 1141.2C224.691 1139.19 226.32 1137.54 228.346 1137.54C230.372 1137.54 232 1139.17 232 1141.2C232 1143.22 230.353 1144.85 228.346 1144.85Z" fill="#0B315E"/>
</g>
<defs>
<radialGradient id="paint0_radial_85_4260" cx="0" cy="0" r="1" gradientUnits="userSpaceOnUse" gradientTransform="translate(461.715 537.963) rotate(49.7963) scale(103.138 663.648)">
<stop/>
<stop offset="1" stop-opacity="0"/>
</radialGradient>
<radialGradient id="paint1_radial_85_4260" cx="0" cy="0" r="1" gradientUnits="userSpaceOnUse" gradientTransform="translate(1186.65 595.978) rotate(49.7868) scale(84.7921 535.075)">
<stop/>
<stop offset="1" stop-opacity="0"/>
</radialGradient>
<radialGradient id="paint2_radial_85_4260" cx="0" cy="0" r="1" gradientUnits="userSpaceOnUse" gradientTransform="translate(430.831 386.078) rotate(49.8065) scale(33.0627 254.301)">
<stop/>
<stop offset="1" stop-opacity="0"/>
</radialGradient>
<radialGradient id="paint3_radial_85_4260" cx="0" cy="0" r="1" gradientUnits="userSpaceOnUse" gradientTransform="translate(640.922 980.209) rotate(49.7973) scale(65.382 307.04)">
<stop/>
<stop offset="1" stop-opacity="0"/>
</radialGradient>
<radialGradient id="paint4_radial_85_4260" cx="0" cy="0" r="1" gradientUnits="userSpaceOnUse" gradientTransform="translate(868.557 588.655) rotate(49.7993) scale(74.1747 422.238)">
<stop/>
<stop offset="1" stop-opacity="0"/>
</radialGradient>
<radialGradient id="paint5_radial_85_4260" cx="0" cy="0" r="1" gradientUnits="userSpaceOnUse" gradientTransform="translate(316.725 917.023) rotate(49.7969) scale(96.7654 387.69)">
<stop/>
<stop offset="1" stop-opacity="0"/>
</radialGradient>
<radialGradient id="paint6_radial_85_4260" cx="0" cy="0" r="1" gradientUnits="userSpaceOnUse" gradientTransform="translate(1037.2 1235.17) rotate(49.7962) scale(36.0644 232.058)">
<stop/>
<stop offset="1" stop-opacity="0"/>
</radialGradient>
<radialGradient id="paint7_radial_85_4260" cx="0" cy="0" r="1" gradientUnits="userSpaceOnUse" gradientTransform="translate(1044.58 972.791) rotate(49.7962) scale(55.5734 357.589)">
<stop/>
<stop offset="1" stop-opacity="0"/>
</radialGradient>
<linearGradient id="paint8_linear_85_4260" x1="554.915" y1="689.798" x2="715.062" y2="849.946" gradientUnits="userSpaceOnUse">
<stop stop-color="#A0F1FF" stop-opacity="0"/>
<stop offset="0.9933" stop-color="#E1A8FF"/>
</linearGradient>
<linearGradient id="paint9_linear_85_4260" x1="907.258" y1="1252.48" x2="527.981" y2="873.208" gradientUnits="userSpaceOnUse">
<stop stop-color="#A0F1FF" stop-opacity="0"/>
<stop offset="0.9933" stop-color="#E1A8FF"/>
</linearGradient>
<linearGradient id="paint10_linear_85_4260" x1="531.268" y1="40.5645" x2="1057.8" y2="567.097" gradientUnits="userSpaceOnUse">
<stop stop-color="#A0F1FF" stop-opacity="0"/>
<stop offset="0.9933" stop-color="#E1A8FF"/>
</linearGradient>
<linearGradient id="paint11_linear_85_4260" x1="1536.15" y1="1103.71" x2="1055.37" y2="622.93" gradientUnits="userSpaceOnUse">
<stop stop-color="#A0F1FF" stop-opacity="0"/>
<stop offset="0.9933" stop-color="#E1A8FF"/>
</linearGradient>
<linearGradient id="paint12_linear_85_4260" x1="101.021" y1="565.768" x2="315.241" y2="779.988" gradientUnits="userSpaceOnUse">
<stop stop-color="#A0F1FF" stop-opacity="0"/>
<stop offset="0.9933" stop-color="#E1A8FF"/>
</linearGradient>
<linearGradient id="paint13_linear_85_4260" x1="128.756" y1="1124.11" x2="550.978" y2="720.016" gradientUnits="userSpaceOnUse">
<stop offset="0.00404646" stop-color="#C92BFF" stop-opacity="0"/>
<stop offset="0.0258" stop-color="#C831FF" stop-opacity="0.0221"/>
<stop offset="0.2871" stop-color="#BA75FF" stop-opacity="0.2875"/>
<stop offset="0.5232" stop-color="#AFAAFF" stop-opacity="0.5272"/>
<stop offset="0.7262" stop-color="#A7D1FF" stop-opacity="0.7334"/>
<stop offset="0.8881" stop-color="#A2E8FF" stop-opacity="0.8978"/>
<stop offset="0.9887" stop-color="#A0F1FF"/>
</linearGradient>
<linearGradient id="paint14_linear_85_4260" x1="1171.28" y1="1206.36" x2="1443.26" y2="845.011" gradientUnits="userSpaceOnUse">
<stop offset="0.00404646" stop-color="#C92BFF" stop-opacity="0"/>
<stop offset="0.0258" stop-color="#C831FF" stop-opacity="0.0221"/>
<stop offset="0.2871" stop-color="#BA75FF" stop-opacity="0.2875"/>
<stop offset="0.5232" stop-color="#AFAAFF" stop-opacity="0.5272"/>
<stop offset="0.7262" stop-color="#A7D1FF" stop-opacity="0.7334"/>
<stop offset="0.8881" stop-color="#A2E8FF" stop-opacity="0.8978"/>
<stop offset="0.9887" stop-color="#A0F1FF"/>
</linearGradient>
<linearGradient id="paint15_linear_85_4260" x1="1709.38" y1="-31.8683" x2="1354.51" y2="310.054" gradientUnits="userSpaceOnUse">
<stop offset="0.00404646" stop-color="#232BFF" stop-opacity="0"/>
<stop offset="0.0258" stop-color="#2731FF" stop-opacity="0.0221"/>
<stop offset="0.2871" stop-color="#5175FF" stop-opacity="0.2875"/>
<stop offset="0.5232" stop-color="#73AAFF" stop-opacity="0.5272"/>
<stop offset="0.7262" stop-color="#8CD1FF" stop-opacity="0.7334"/>
<stop offset="0.8881" stop-color="#9BE8FF" stop-opacity="0.8978"/>
<stop offset="0.9887" stop-color="#A0F1FF"/>
</linearGradient>
<linearGradient id="paint16_linear_85_4260" x1="597.372" y1="685.468" x2="682.948" y2="685.468" gradientUnits="userSpaceOnUse">
<stop stop-color="#A0F1FF" stop-opacity="0"/>
<stop offset="0.9887" stop-color="#A0F1FF"/>
</linearGradient>
<linearGradient id="paint17_linear_85_4260" x1="1651" y1="284.26" x2="1803.55" y2="284.26" gradientUnits="userSpaceOnUse">
<stop stop-color="#A0F1FF" stop-opacity="0"/>
<stop offset="0.9887" stop-color="#A0F1FF"/>
</linearGradient>
<linearGradient id="paint18_linear_85_4260" x1="424.13" y1="409.347" x2="610.244" y2="409.347" gradientUnits="userSpaceOnUse">
<stop stop-color="#A0F1FF" stop-opacity="0"/>
<stop offset="0.9887" stop-color="#A0F1FF"/>
</linearGradient>
<linearGradient id="paint19_linear_85_4260" x1="421.45" y1="1011.43" x2="650.604" y2="1011.43" gradientUnits="userSpaceOnUse">
<stop stop-color="#A0F1FF" stop-opacity="0"/>
<stop offset="0.9887" stop-color="#A0F1FF"/>
</linearGradient>
<linearGradient id="paint20_linear_85_4260" x1="942.699" y1="995.654" x2="1028.27" y2="995.654" gradientUnits="userSpaceOnUse">
<stop stop-color="#A0F1FF" stop-opacity="0"/>
<stop offset="0.9887" stop-color="#A0F1FF"/>
</linearGradient>
<linearGradient id="paint21_linear_85_4260" x1="1279.8" y1="1081.23" x2="1365.37" y2="1081.23" gradientUnits="userSpaceOnUse">
<stop stop-color="#A0F1FF" stop-opacity="0"/>
<stop offset="0.9887" stop-color="#A0F1FF"/>
</linearGradient>
<linearGradient id="paint22_linear_85_4260" x1="1063.47" y1="490.103" x2="1149.04" y2="490.103" gradientUnits="userSpaceOnUse">
<stop stop-color="#A0F1FF" stop-opacity="0"/>
<stop offset="0.9887" stop-color="#A0F1FF"/>
</linearGradient>
<linearGradient id="paint23_linear_85_4260" x1="1115.49" y1="738.028" x2="1174.37" y2="738.028" gradientUnits="userSpaceOnUse">
<stop stop-color="#A0F1FF" stop-opacity="0"/>
<stop offset="0.9887" stop-color="#A0F1FF"/>
</linearGradient>
<linearGradient id="paint24_linear_85_4260" x1="789.308" y1="468.285" x2="848.194" y2="468.285" gradientUnits="userSpaceOnUse">
<stop stop-color="#A0F1FF" stop-opacity="0"/>
<stop offset="0.9887" stop-color="#A0F1FF"/>
</linearGradient>
<linearGradient id="paint25_linear_85_4260" x1="350.89" y1="768.771" x2="409.775" y2="768.771" gradientUnits="userSpaceOnUse">
<stop stop-color="#A0F1FF" stop-opacity="0"/>
<stop offset="0.9887" stop-color="#A0F1FF"/>
</linearGradient>
<linearGradient id="paint26_linear_85_4260" x1="223.651" y1="561.786" x2="282.536" y2="561.786" gradientUnits="userSpaceOnUse">
<stop stop-color="#A0F1FF" stop-opacity="0"/>
<stop offset="0.9887" stop-color="#A0F1FF"/>
</linearGradient>
<linearGradient id="paint27_linear_85_4260" x1="1278.55" y1="749.928" x2="1431.8" y2="749.928" gradientUnits="userSpaceOnUse">
<stop stop-color="#A0F1FF" stop-opacity="0"/>
<stop offset="0.9887" stop-color="#A0F1FF"/>
</linearGradient>
<linearGradient id="paint28_linear_85_4260" x1="740.519" y1="910.394" x2="799.404" y2="910.394" gradientUnits="userSpaceOnUse">
<stop stop-color="#A0F1FF" stop-opacity="0"/>
<stop offset="0.9887" stop-color="#A0F1FF"/>
</linearGradient>
</defs>
</svg>
