<svg width="195" height="66" viewBox="0 0 195 66" fill="none" xmlns="http://www.w3.org/2000/svg">
<path d="M14.9331 30.9091H10.9274C10.899 30.5777 10.8232 30.277 10.7001 30.0071C10.5817 29.7372 10.416 29.5052 10.2029 29.3111C9.99461 29.1122 9.7413 28.9607 9.443 28.8565C9.14471 28.7476 8.80617 28.6932 8.42738 28.6932C7.7645 28.6932 7.20342 28.8542 6.74414 29.1761C6.2896 29.4981 5.94395 29.9598 5.70721 30.5611C5.4752 31.1624 5.3592 31.8845 5.3592 32.7273C5.3592 33.6174 5.47757 34.3632 5.71431 34.9645C5.95579 35.5611 6.3038 36.0109 6.75835 36.3139C7.21289 36.6122 7.75977 36.7614 8.39897 36.7614C8.76355 36.7614 9.09026 36.7164 9.37908 36.6264C9.66791 36.5317 9.91886 36.3968 10.1319 36.2216C10.345 36.0464 10.5178 35.8357 10.6504 35.5895C10.7877 35.3385 10.88 35.0568 10.9274 34.7443L14.9331 34.7727C14.8857 35.3883 14.7129 36.0156 14.4146 36.6548C14.1163 37.2893 13.6925 37.8764 13.1433 38.4162C12.5988 38.9512 11.9241 39.3821 11.1191 39.7088C10.3142 40.0355 9.37908 40.1989 8.31374 40.1989C6.97852 40.1989 5.7806 39.9124 4.71999 39.3395C3.66412 38.7666 2.82842 37.9238 2.21289 36.8111C1.6021 35.6984 1.2967 34.3371 1.2967 32.7273C1.2967 31.108 1.6092 29.7443 2.2342 28.6364C2.8592 27.5237 3.702 26.6832 4.76261 26.1151C5.82321 25.5421 7.00692 25.2557 8.31374 25.2557C9.2323 25.2557 10.0775 25.3812 10.8493 25.6321C11.621 25.883 12.2981 26.25 12.8805 26.733C13.4629 27.2112 13.9316 27.8007 14.2868 28.5014C14.6419 29.2022 14.8573 30.0047 14.9331 30.9091ZM16.7246 40V25.4545H20.6735V31.1364H25.9007V25.4545H29.8496V40H25.9007V34.3182H20.6735V40H16.7246ZM35.503 40H31.2417L36.0428 25.4545H41.4405L46.2417 40H41.9803L38.7985 29.4602H38.6848L35.503 40ZM34.7076 34.2614H42.7189V37.2159H34.7076V34.2614ZM60.2278 25.4545V40H56.9324L51.6767 32.358H51.5914V40H47.6426V25.4545H50.9949L56.1653 33.0682H56.2789V25.4545H60.2278ZM71.5417 30.2557C71.4802 30.0047 71.3831 29.7846 71.2505 29.5952C71.118 29.401 70.9522 29.2377 70.7534 29.1051C70.5592 28.9678 70.332 28.866 70.0716 28.7997C69.8159 28.7287 69.5342 28.6932 69.2264 28.6932C68.5635 28.6932 67.9977 28.8518 67.5289 29.169C67.0649 29.4863 66.7098 29.9432 66.4636 30.5398C66.2221 31.1364 66.1014 31.8561 66.1014 32.6989C66.1014 33.5511 66.2174 34.2803 66.4494 34.8864C66.6814 35.4924 67.027 35.9564 67.4863 36.2784C67.9456 36.6004 68.5162 36.7614 69.198 36.7614C69.7993 36.7614 70.2988 36.6738 70.6966 36.4986C71.099 36.3234 71.3997 36.0748 71.5985 35.7528C71.7974 35.4309 71.8968 35.0521 71.8968 34.6165L72.5787 34.6875H69.2548V31.875H75.7037V33.892C75.7037 35.2178 75.4219 36.3518 74.8585 37.294C74.2998 38.2315 73.528 38.9512 72.5431 39.4531C71.563 39.9503 70.4385 40.1989 69.1696 40.1989C67.7538 40.1989 66.5109 39.8982 65.4409 39.2969C64.3708 38.6955 63.5351 37.8385 62.9338 36.7259C62.3372 35.6132 62.0389 34.2898 62.0389 32.7557C62.0389 31.553 62.2212 30.4877 62.5858 29.5597C62.9551 28.6316 63.4664 27.848 64.1199 27.2088C64.7733 26.5649 65.5285 26.0795 66.3855 25.7528C67.2425 25.4214 68.161 25.2557 69.1412 25.2557C70.0029 25.2557 70.8031 25.3788 71.5417 25.625C72.2851 25.8665 72.9409 26.2121 73.5091 26.6619C74.082 27.107 74.5436 27.6349 74.894 28.2457C75.2444 28.8565 75.4574 29.5265 75.5332 30.2557H71.5417ZM77.5449 40V25.4545H88.0279V28.6364H81.4938V31.1364H87.4881V34.3182H81.4938V36.8182H87.9995V40H77.5449ZM97.9196 25.4545V40H93.9707V25.4545H97.9196ZM99.3933 28.6364V25.4545H112.035V28.6364H107.66V40H103.768V28.6364H99.3933Z" fill="white"/>
</svg>
