<svg width="40" height="40" viewBox="0 0 40 40" fill="none" xmlns="http://www.w3.org/2000/svg">
<path fill-rule="evenodd" clip-rule="evenodd" d="M2.66041 28.8652C1.71547 28.7133 1.13002 28.4156 0.743228 27.9866C0.439007 27.6492 0.235742 27.2166 0.126222 26.6382C0.00813942 26.0149 2.671e-05 25.1712 2.671e-05 24.0282V21.1252C2.671e-05 21.1084 -0.0270151 19.2588 1.63976 17.7924C2.64067 16.9119 4.29554 16.135 7.07599 16.135C9.85643 16.135 11.5113 16.9119 12.5122 17.7924C14.179 19.2588 14.1519 21.1084 14.1519 21.1252V24.0282C14.1519 25.171 14.1438 26.0147 14.0258 26.6379C13.9162 27.2163 13.7131 27.6488 13.4087 27.9864C13.022 28.4154 12.4366 28.7133 11.4916 28.8651C11.4762 29.061 11.4559 29.237 11.4289 29.395C11.3284 29.9839 11.1309 30.3917 10.8517 30.6921C10.559 31.007 10.1636 31.2248 9.58998 31.3382C9.02742 31.4494 8.2241 31.4587 7.07599 31.4587C5.92788 31.4587 5.12455 31.4494 4.56199 31.3382C3.98834 31.2248 3.59299 31.007 3.30031 30.6921C3.02106 30.3917 2.82356 29.9839 2.72305 29.395C2.6961 29.237 2.67573 29.061 2.66041 28.8652ZM11.5376 27.0415C11.7719 26.9916 11.9465 26.916 12.0697 26.7793C12.2184 26.6144 12.2542 26.373 12.2914 26.0561C12.3521 25.5379 12.3492 24.8753 12.3492 24.0282V21.1252C12.3492 21.1151 12.3222 20.0264 11.3215 19.146C10.544 18.4621 9.23546 17.9378 7.07599 17.9378C4.91651 17.9378 3.60796 18.4621 2.8305 19.146C1.82977 20.0264 1.80282 21.1151 1.80282 21.1252V24.0282C1.80282 24.8755 1.79984 25.5382 1.8606 26.0564C1.89774 26.3731 1.93361 26.6146 2.08216 26.7795C2.20538 26.9161 2.38007 26.9916 2.61435 27.0416C2.61417 26.9393 2.61408 26.8343 2.61408 26.7264V22.5349C2.61408 22.0374 3.01799 21.6335 3.51547 21.6335C4.01295 21.6335 4.41687 22.0374 4.41687 22.5349V26.7264C4.41687 27.6441 4.41444 28.3324 4.46771 28.8486C4.49709 29.1331 4.50322 29.3384 4.62076 29.4648C4.72298 29.5748 4.89461 29.575 5.12455 29.6025C5.59923 29.6592 6.23219 29.6559 7.07599 29.6559C7.91978 29.6559 8.55275 29.6592 9.02742 29.6025C9.25737 29.575 9.42899 29.5748 9.53121 29.4648C9.64875 29.3384 9.65488 29.1331 9.68427 28.8486C9.73754 28.3324 9.73511 27.6441 9.73511 26.7264V22.5349C9.73511 22.0374 10.139 21.6335 10.6365 21.6335C11.134 21.6335 11.5379 22.0374 11.5379 22.5349V26.7264C11.5379 26.8343 11.5378 26.9393 11.5376 27.0415ZM28.1699 28.8652C27.225 28.7133 26.6395 28.4156 26.2527 27.9866C25.9485 27.6492 25.7453 27.2166 25.6357 26.6382C25.5177 26.0149 25.5095 25.1712 25.5095 24.0282V21.1252C25.5095 21.1084 25.4825 19.2588 27.1493 17.7924C28.1502 16.9119 29.8051 16.135 32.5855 16.135C35.366 16.135 37.0208 16.9119 38.0217 17.7924C39.6885 19.2588 39.6615 21.1084 39.6615 21.1252V24.0282C39.6615 25.171 39.6534 26.0147 39.5353 26.6379C39.4257 27.2163 39.2226 27.6488 38.9183 27.9864C38.5316 28.4154 37.9461 28.7133 37.0011 28.8651C36.9858 29.061 36.9654 29.237 36.9384 29.395C36.8379 29.9839 36.6404 30.3917 36.3612 30.6921C36.0685 31.007 35.6731 31.2248 35.0995 31.3382C34.5369 31.4494 33.7336 31.4587 32.5855 31.4587C31.4374 31.4587 30.6341 31.4494 30.0715 31.3382C29.4979 31.2248 29.1025 31.007 28.8098 30.6921C28.5306 30.3917 28.3331 29.9839 28.2326 29.395C28.2056 29.237 28.1852 29.061 28.1699 28.8652ZM37.0471 27.0415C37.2814 26.9916 37.456 26.916 37.5792 26.7793C37.7279 26.6144 37.7638 26.373 37.8009 26.0561C37.8616 25.5379 37.8587 24.8753 37.8587 24.0282V21.1252C37.8587 21.1151 37.8317 20.0264 36.831 19.146C36.0535 18.4621 34.745 17.9378 32.5855 17.9378C30.426 17.9378 29.1175 18.4621 28.34 19.146C27.3393 20.0264 27.3123 21.1151 27.3123 21.1252V24.0282C27.3123 24.8755 27.3094 25.5382 27.3701 26.0564C27.4072 26.3731 27.4431 26.6146 27.5917 26.7795C27.7149 26.9161 27.8896 26.9916 28.1239 27.0416C28.1237 26.9393 28.1236 26.8343 28.1236 26.7264V22.5349C28.1236 22.0374 28.5275 21.6335 29.025 21.6335C29.5225 21.6335 29.9264 22.0374 29.9264 22.5349V26.7264C29.9264 27.6441 29.924 28.3324 29.9772 28.8486C30.0066 29.1331 30.0127 29.3384 30.1303 29.4648C30.2325 29.5748 30.4041 29.575 30.6341 29.6025C31.1087 29.6592 31.7417 29.6559 32.5855 29.6559C33.4293 29.6559 34.0623 29.6592 34.5369 29.6025C34.7669 29.575 34.9385 29.5748 35.0407 29.4648C35.1583 29.3384 35.1644 29.1331 35.1938 28.8486C35.2471 28.3324 35.2446 27.6441 35.2446 26.7264V22.5349C35.2446 22.0374 35.6485 21.6335 36.146 21.6335C36.6435 21.6335 37.0474 22.0374 37.0474 22.5349V26.7264C37.0474 26.8343 37.0473 26.9393 37.0471 27.0415ZM10.837 4.22692L12.2722 4.45317C12.7636 4.53069 13.0997 4.99256 13.0222 5.48391C12.9448 5.97536 12.4829 6.31149 11.9915 6.23397L8.46567 5.67816C8.2295 5.64094 8.01777 5.51141 7.87715 5.31806C7.73653 5.1248 7.67839 4.88349 7.71562 4.64733L8.27151 1.12152C8.34903 0.630166 8.81091 0.294036 9.30226 0.371556C9.7937 0.448986 10.1298 0.910861 10.0523 1.4023L9.84481 2.71825C12.8041 0.990274 16.2468 0 19.9209 0C24.2082 0 28.1806 1.34849 31.4372 3.64407C31.8438 3.93063 31.9413 4.49346 31.6547 4.90017C31.3681 5.30679 30.8052 5.40423 30.3986 5.11759C27.4356 3.02905 23.8215 1.80279 19.9209 1.80279C16.6127 1.80279 13.5105 2.6849 10.837 4.22692ZM29.997 37.2817C27.0377 39.0097 23.595 40 19.9209 40C15.6336 40 11.6612 38.6515 8.40456 36.356C7.99794 36.0694 7.9005 35.5065 8.18705 35.0999C8.47369 34.6933 9.03652 34.5959 9.44314 34.8824C12.4061 36.9709 16.0203 38.1972 19.9209 38.1972C23.2291 38.1972 26.3313 37.3151 29.0048 35.7731L27.5696 35.5468C27.0782 35.4694 26.7421 35.0075 26.8195 34.5161C26.897 34.0246 27.3588 33.6886 27.8503 33.766L31.3761 34.3218C31.6123 34.3591 31.8239 34.4886 31.9646 34.6819C32.1052 34.8752 32.1634 35.1165 32.1262 35.3526L31.5703 38.8784C31.4927 39.3698 31.0309 39.706 30.5395 39.6284C30.0481 39.5509 29.7119 39.0891 29.7895 38.5977L29.997 37.2817ZM7.16613 15.5942C5.05416 15.5942 3.33519 13.8626 3.33519 11.7182C3.33519 9.57373 5.05416 7.84215 7.16613 7.84215C9.27801 7.84215 10.9971 9.57373 10.9971 11.7182C10.9971 13.8626 9.27801 15.5942 7.16613 15.5942ZM7.16613 13.7914C8.29008 13.7914 9.19427 12.8594 9.19427 11.7182C9.19427 10.5769 8.29008 9.64494 7.16613 9.64494C6.04218 9.64494 5.13799 10.5769 5.13799 11.7182C5.13799 12.8594 6.04218 13.7914 7.16613 13.7914ZM32.6756 15.5942C30.5638 15.5942 28.8447 13.8626 28.8447 11.7182C28.8447 9.57373 30.5638 7.84215 32.6756 7.84215C34.7875 7.84215 36.5066 9.57373 36.5066 11.7182C36.5066 13.8626 34.7875 15.5942 32.6756 15.5942ZM32.6756 13.7914C33.7996 13.7914 34.7038 12.8594 34.7038 11.7182C34.7038 10.5769 33.7996 9.64494 32.6756 9.64494C31.5517 9.64494 30.6475 10.5769 30.6475 11.7182C30.6475 12.8594 31.5517 13.7914 32.6756 13.7914Z" fill="#533BE4"/>
</svg>
