<svg width="24" height="24" viewBox="0 0 24 24" fill="none" xmlns="http://www.w3.org/2000/svg">
<path d="M15.6853 14.8192C15.9996 14.924 16.3394 14.7541 16.4442 14.4397C16.549 14.1254 16.3791 13.7856 16.0647 13.6808L15.6853 14.8192ZM12.5 13.125H11.9C11.9 13.3833 12.0653 13.6125 12.3103 13.6942L12.5 13.125ZM13.1 8.42087C13.1 8.0895 12.8314 7.82087 12.5 7.82087C12.1686 7.82087 11.9 8.0895 11.9 8.42087H13.1ZM16.0647 13.6808L12.6897 12.5558L12.3103 13.6942L15.6853 14.8192L16.0647 13.6808ZM13.1 13.125V8.42087H11.9V13.125H13.1ZM20.9 12C20.9 16.6392 17.1392 20.4 12.5 20.4V21.6C17.8019 21.6 22.1 17.3019 22.1 12H20.9ZM12.5 20.4C7.86081 20.4 4.1 16.6392 4.1 12H2.9C2.9 17.3019 7.19807 21.6 12.5 21.6V20.4ZM4.1 12C4.1 7.36081 7.86081 3.6 12.5 3.6V2.4C7.19807 2.4 2.9 6.69807 2.9 12H4.1ZM12.5 3.6C17.1392 3.6 20.9 7.36081 20.9 12H22.1C22.1 6.69807 17.8019 2.4 12.5 2.4V3.6Z" fill="white"/>
</svg>
