<svg width="25" height="26" viewBox="0 0 25 26" fill="none" xmlns="http://www.w3.org/2000/svg">
<path d="M13.0368 19.581L20.4871 19.5745H20.4872C20.6954 19.5745 20.8643 19.7403 20.8644 19.9494L13.0368 19.581ZM13.0368 19.581V16.618H20.4501H20.4861L20.4884 16.6113C22.6201 16.5918 24.3485 14.8469 24.3485 12.7044C24.3485 11.0575 23.3014 9.58318 21.7704 9.03104C21.5453 7.03799 20.0436 5.44432 18.0728 5.11191C17.417 2.68492 15.1782 0.95 12.6486 0.95C10.4058 0.95 8.36387 2.30961 7.48473 4.3612C5.09457 4.30908 2.93273 6.13389 2.6379 8.60283C-0.664442 11.2416 1.20238 16.6137 5.43836 16.6137H12.2605V19.5767L4.79915 19.5832L13.0368 19.581ZM20.8708 21.8864L20.8644 19.9496L4.7991 19.5832C4.59044 19.5832 4.42191 19.7518 4.42191 19.9605V21.8866C3.72541 22.0607 3.20674 22.6928 3.20674 23.4445C3.20674 24.3295 3.9272 25.05 4.81006 25.05C5.69291 25.05 6.41337 24.3295 6.41337 23.4445C6.41337 22.6927 5.89455 22.0628 5.19821 21.8867V20.3508H12.2626V21.8866C11.5661 22.0607 11.0475 22.6928 11.0475 23.4445C11.0475 24.3295 11.7679 25.05 12.6508 25.05C13.5337 25.05 14.2541 24.3295 14.2541 23.4445C14.2541 22.6927 13.7353 22.0628 13.0389 21.8867V20.3508H20.099V21.8866C19.4025 22.0607 18.8839 22.6928 18.8839 23.4445C18.8839 24.3295 19.6043 25.05 20.4872 25.05C21.37 25.05 22.0905 24.3295 22.0905 23.4445C22.0905 22.6906 21.5696 22.0584 20.8708 21.8864ZM3.37416 8.83447L3.3742 8.83399C3.55523 6.66384 5.47571 4.9614 7.7079 5.12731L7.70859 5.12736C7.87393 5.13738 8.0295 5.03977 8.08985 4.88388L8.09009 4.88325C8.79622 2.98294 10.6276 1.70667 12.6508 1.70667C14.9158 1.70667 16.9157 3.31559 17.4015 5.5332L17.4016 5.53334C17.4367 5.69146 17.5674 5.80983 17.7285 5.82745L17.7286 5.82745C19.5453 6.02549 20.9382 7.50203 21.0416 9.3366L21.0416 9.33691C21.0516 9.49754 21.1598 9.63334 21.3153 9.67851L21.3155 9.67856C22.6575 10.0629 23.5962 11.3086 23.5962 12.7066C23.5962 14.4441 22.1872 15.8592 20.4545 15.8592H5.43836C1.84813 15.8592 0.338169 11.2457 3.22326 9.10561L3.22329 9.10559C3.31155 9.04002 3.36418 8.94177 3.37416 8.83447ZM21.3389 23.3923H21.3382V23.4423C21.3382 23.9122 20.9569 24.2933 20.4894 24.2933C20.0218 24.2933 19.6405 23.9122 19.6405 23.4423C19.6405 22.9726 20.0324 22.5851 20.4996 22.5913L20.4998 22.5913C20.9427 22.5953 21.313 22.9461 21.3389 23.3923ZM12.6508 24.2933C11.7261 24.2933 11.4682 23.0075 12.3316 22.653C12.5376 22.5686 12.7661 22.5686 12.9721 22.653C13.8356 23.0075 13.5777 24.2933 12.653 24.2933H12.6508ZM4.81224 24.2933C3.88752 24.2933 3.62965 23.0075 4.49307 22.653C4.69896 22.5686 4.92529 22.5685 5.13358 22.653C5.99701 23.0075 5.73914 24.2933 4.81442 24.2933H4.81224Z" fill="black" stroke="black" stroke-width="0.1"/>
</svg>
