<svg width="21" height="24" viewBox="0 0 21 24" fill="none" xmlns="http://www.w3.org/2000/svg">
<path d="M13.2629 12.2803C13.6839 12.0239 14.069 11.7154 14.4089 11.3616H17.0837C17.6266 11.3616 18.0847 11.0148 18.261 10.5322C19.0173 10.3745 19.5868 9.70287 19.5868 8.9002L19.5857 7.12779C19.5857 6.20794 18.8375 5.45979 17.9177 5.45979C17.7182 5.45979 17.5303 5.50039 17.3528 5.56534C16.8053 2.38952 14.0413 0 10.741 0H9.90934C6.61622 0 3.8579 2.37903 3.30113 5.56653C3.12365 5.50157 2.93342 5.46098 2.7339 5.46098C1.81406 5.46098 1.0659 6.20913 1.0659 7.12898V8.90254C1.0659 9.82239 1.81406 10.5705 2.7339 10.5705C3.65375 10.5705 4.4019 9.82239 4.4019 8.90254V7.12782C4.4019 6.80537 4.30563 6.50726 4.14671 6.25207C4.3845 3.25589 6.88651 0.927843 9.90923 0.927843H10.7409C13.7706 0.927843 16.2763 3.26513 16.5046 6.24969C16.3445 6.50488 16.2483 6.80415 16.2483 7.12776V8.90132C16.2483 9.56829 16.6438 10.1401 17.211 10.4069C17.1727 10.4232 17.1287 10.4336 17.0834 10.4336H15.1289C15.6695 9.56596 15.9873 8.54637 15.9873 7.4502C15.9873 4.32871 13.4482 1.78983 10.3269 1.78983C7.20567 1.78983 4.66655 4.32895 4.66655 7.4502C4.66655 9.48938 5.75343 11.2734 7.37386 12.2708C3.23504 12.8241 0.0209085 16.3678 0.00813984 20.6536L2.02469e-05 23.4757C-0.00113962 23.5986 0.0475788 23.717 0.134572 23.804C0.221568 23.891 0.338721 23.9408 0.461686 23.9408L10.3004 23.9698L14.4472 23.9826H14.4484H14.4495L20.1541 24H20.1553C20.4105 24 20.6181 23.7935 20.6193 23.5372L20.6274 20.715C20.6413 16.4058 17.4248 12.8359 13.2629 12.2803ZM3.47407 8.90135C3.47407 9.30965 3.14232 9.6414 2.73402 9.6414C2.32572 9.6414 1.99398 9.30965 1.99398 8.90135V7.12779C1.99398 6.71949 2.32572 6.38774 2.73402 6.38774C3.14232 6.38774 3.47407 6.71949 3.47407 7.12779V8.90135ZM17.1787 7.12779C17.1787 6.71949 17.5104 6.38774 17.9187 6.38774C18.327 6.38774 18.6588 6.71949 18.6588 7.12779V8.90135C18.6588 9.30965 18.327 9.6414 17.9187 9.6414C17.5104 9.6414 17.1787 9.30965 17.1787 8.90135V7.12779ZM5.59307 7.45024C5.59307 4.84036 7.71575 2.71753 10.3258 2.71753C12.9357 2.71753 15.0585 4.84021 15.0585 7.45024C15.0585 8.58003 14.6595 9.61818 13.996 10.4336H11.0486C10.7922 10.4336 10.5846 10.6413 10.5846 10.8976C10.5846 11.154 10.7922 11.3616 11.0486 11.3616H12.9868C12.2282 11.8801 11.3119 12.184 10.3259 12.184C7.71721 12.184 5.59307 10.06 5.59307 7.45024ZM19.6932 23.0701L14.9142 23.0562L14.9258 19.0671C14.9269 18.8107 14.7193 18.6031 14.463 18.6019H14.4618C14.2066 18.6019 13.999 18.8084 13.9978 19.0648L13.9862 23.0539L10.3047 23.0435L6.63594 23.0319L6.64754 19.0427C6.6487 18.7864 6.44107 18.5787 6.18472 18.5776H6.18356C5.92837 18.5776 5.72074 18.784 5.71958 19.0404L5.70798 23.0296L0.92895 23.0156L0.935909 20.6575C0.948669 16.4991 4.34157 13.1166 8.52196 13.1166L12.1595 13.127C16.3307 13.1398 19.7132 16.5431 19.7005 20.7131L19.6932 23.0701Z" fill="black"/>
</svg>
