<svg width="48" height="48" viewBox="0 0 48 48" fill="none" xmlns="http://www.w3.org/2000/svg">
<path d="M33.7163 29.2338C35.039 29.2561 36.1079 30.3388 36.1079 31.6667C36.1079 32.313 35.8515 32.8962 35.4409 33.3334C35.8515 33.7706 36.1079 34.3538 36.1079 35.0001C36.1079 35.8392 35.6806 36.5692 35.0415 37.0076C35.291 37.3871 35.4412 37.8421 35.4412 38.3334C35.4412 39.1729 35.0136 39.9032 34.368 40.3416C34.6687 40.8035 34.8196 41.3592 34.7607 41.9169C34.6351 43.1449 33.5287 44.1 32.2412 44.1H23.3346C21.5581 44.1 19.7951 43.6559 18.2338 42.8147C17.5847 42.4652 16.8569 42.246 16.1013 42.1523V42.6667C16.1013 43.0886 15.7565 43.4334 15.3346 43.4334H7.33463C6.91274 43.4334 6.56797 43.0886 6.56797 42.6667V29.3334C6.56797 28.9115 6.91274 28.5668 7.33463 28.5668H15.3279C15.7498 28.5668 16.0946 28.9115 16.0946 29.3334V29.83C16.9194 29.6907 17.6926 29.3265 18.3288 28.7715L33.7163 29.2338ZM33.7163 29.2338L33.7093 29.2268H33.6679H28.1012V26.6601C28.1012 23.6649 25.6631 21.2268 22.6679 21.2268C22.246 21.2268 21.9012 21.5716 21.9012 21.9934V23.5801C21.9012 24.8912 21.3337 26.1438 20.3421 27.0115C20.3421 27.0115 20.3421 27.0115 20.3421 27.0115L18.3288 28.7714L33.7163 29.2338ZM23.4412 22.827C25.2234 23.1858 26.5746 24.7642 26.5746 26.6534V29.9867C26.5746 30.4086 26.9193 30.7534 27.3412 30.7534H33.6745C34.1726 30.7534 34.5745 31.1553 34.5745 31.6534C34.5745 32.1515 34.1726 32.5534 33.6745 32.5534H32.0079C31.586 32.5534 31.2412 32.8982 31.2412 33.3201C31.2412 33.6686 31.4765 33.9646 31.7963 34.0569L31.7598 34.0934H32.0012H33.6679C34.166 34.0934 34.5679 34.4953 34.5679 34.9934C34.5679 35.4915 34.166 35.8934 33.6679 35.8934H31.3345C30.9126 35.8934 30.5679 36.2382 30.5679 36.6601C30.5679 37.0819 30.9126 37.4267 31.3345 37.4267H33.0012C33.4993 37.4267 33.9012 37.8286 33.9012 38.3267C33.9012 38.8248 33.4993 39.2267 33.0012 39.2267H30.6679C30.246 39.2267 29.9012 39.5715 29.9012 39.9934C29.9012 40.4153 30.246 40.76 30.6679 40.76H32.3345C32.5917 40.76 32.8255 40.8672 33.0009 41.0544C33.1742 41.2459 33.2523 41.4907 33.2284 41.75C33.1809 42.1915 32.7577 42.5534 32.2412 42.5534H23.3346C21.8113 42.5534 20.3009 42.1709 18.9621 41.4521C18.0888 40.9793 17.1144 40.6919 16.1013 40.5892V31.369C17.2958 31.2187 18.4279 30.7088 19.3469 29.9088L19.3471 29.9087L21.3604 28.1487L21.3605 28.1486C22.682 26.9897 23.4412 25.3224 23.4412 23.5668V22.827ZM14.5679 30.6601V41.8934H8.1013V30.0934H14.5679V30.6601Z" fill="#6941C6" stroke="#6941C6" stroke-width="0.2"/>
<path d="M16.8615 10.5033L19.6719 13.3901L16.8615 10.5033ZM16.8615 10.5033L20.9071 9.72816L20.9138 9.73489L20.9659 9.72483C21.3733 9.64622 21.725 9.40277 21.9334 9.04373C21.9334 9.04365 21.9335 9.04357 21.9335 9.04349L24.0003 5.52413L26.0671 9.04349C26.0672 9.04355 26.0672 9.04361 26.0672 9.04367C26.2756 9.40274 26.6273 9.64621 27.0347 9.72484L27.0354 9.72497L31.1389 10.4844L28.3288 13.3901C28.3287 13.3901 28.3287 13.3902 28.3286 13.3902C28.0269 13.6993 27.8909 14.1229 27.941 14.5451L27.9411 14.5455L28.4263 18.491L24.5805 16.8017L24.5799 16.8015C24.2156 16.6443 23.7932 16.6367 23.4199 16.8018L23.4199 16.8018L19.5744 18.5038L20.0596 14.5455L20.0596 14.5451C20.1097 14.1229 19.9738 13.6993 19.672 13.3902L16.8615 10.5033ZM15.6285 11.4296L18.5338 14.4273L18.0345 18.5007C18.0345 18.5008 18.0345 18.5008 18.0344 18.5009C17.9699 19.0108 18.1857 19.5059 18.6008 19.8136C19.016 20.1214 19.5673 20.1861 20.0406 19.9782C20.0406 19.9782 20.0406 19.9782 20.0406 19.9782L24.007 18.2358L27.9667 19.9781L27.9667 19.9781L27.968 19.9787C28.1524 20.0567 28.3456 20.0999 28.547 20.0999C28.8537 20.0999 29.1553 20.0072 29.4073 19.813C29.8226 19.5047 30.0302 19.0166 29.973 18.5022L29.9729 18.5009L29.4655 14.4284L32.3717 11.4233C32.3717 11.4233 32.3718 11.4232 32.3718 11.4232C32.7383 11.0494 32.8597 10.5041 32.7024 10.01C32.5443 9.507 32.1207 9.14189 31.606 9.04182L31.6056 9.04174L27.3702 8.23688L25.2401 4.60978C25.2401 4.60975 25.2401 4.60971 25.2401 4.60968C24.9819 4.16516 24.5154 3.9 24.0003 3.9C23.4844 3.9 23.0255 4.16579 22.7611 4.60875L22.7608 4.60936L20.6304 8.23696L16.3949 9.04843L16.3946 9.04848C15.8794 9.14867 15.4564 9.52082 15.2984 10.0163C15.1405 10.5115 15.2697 11.0564 15.6283 11.4293L15.6285 11.4296Z" fill="#6941C6" stroke="#6941C6" stroke-width="0.2"/>
<path d="M7.39764 21.3383L7.4056 21.3463L7.46857 21.3179L10.0008 20.1764L12.5327 21.3178C12.5328 21.3178 12.5329 21.3178 12.5329 21.3178C12.9332 21.4997 13.3915 21.4483 13.7467 21.1873L13.7474 21.1867C14.0954 20.9258 14.2843 20.4978 14.2334 20.0618L14.2334 20.0615L13.9123 17.388L15.7664 15.4225C15.7665 15.4224 15.7666 15.4223 15.7667 15.4222C16.0724 15.1017 16.1733 14.6371 16.0429 14.2171L16.043 14.2171L16.0425 14.2156C15.9047 13.795 15.5561 13.4825 15.1204 13.3954L15.12 13.3953L12.4114 12.8641L11.0475 10.4903L11.0474 10.4901C10.8299 10.113 10.4305 9.8801 10.0008 9.8801C9.57226 9.8801 9.16527 10.1121 8.95378 10.4908L7.59015 12.8641L4.88157 13.3953L4.8812 13.3954C4.4455 13.4825 4.09691 13.795 3.95912 14.2156C3.82084 14.6378 3.93005 15.1027 4.23493 15.4222C4.235 15.4223 4.23508 15.4224 4.23515 15.4225L6.08927 17.388L5.76819 20.0615L5.76815 20.0618C5.7174 20.4968 5.89875 20.9256 6.25493 21.1873L6.25549 21.1877C6.46596 21.3401 6.71984 21.4201 6.96747 21.4201C7.11294 21.4201 7.25796 21.3927 7.39764 21.3383ZM5.75078 14.7956L8.02628 14.3516C8.02632 14.3516 8.02636 14.3516 8.02639 14.3516C8.36851 14.2861 8.67323 14.0682 8.84763 13.763L10.0008 11.7543L11.154 13.763C11.3288 14.0689 11.6269 14.2791 11.9737 14.3513L11.9737 14.3513L11.975 14.3516L14.2568 14.7968L12.6947 16.4514C12.6947 16.4514 12.6947 16.4514 12.6947 16.4514C12.4473 16.7134 12.3314 17.0697 12.3748 17.432L12.3748 17.432L12.647 19.6894L10.5022 18.7224C10.5021 18.7223 10.5021 18.7223 10.502 18.7223C10.3428 18.6499 10.1754 18.6134 10.0075 18.6134C9.84074 18.6134 9.66628 18.6494 9.5121 18.7227L7.36803 19.6893L7.64008 17.4387L7.64009 17.4387C7.68357 17.0764 7.56757 16.72 7.32017 16.4581L5.75078 14.7956Z" fill="#6941C6" stroke="#6941C6" stroke-width="0.2"/>
<path d="M43.12 13.4021L40.4114 12.8709L39.0475 10.4971L39.0474 10.497C38.8299 10.1199 38.4305 9.88694 38.0008 9.88694C37.5723 9.88694 37.1653 10.1189 36.9538 10.4977L35.5901 12.8709L32.8816 13.4021L32.8812 13.4022C32.4455 13.4893 32.0969 13.8018 31.9591 14.2225C31.8208 14.6446 31.93 15.1095 32.2349 15.4291C32.235 15.4291 32.2351 15.4292 32.2351 15.4293L34.0893 17.3948L33.7682 20.0683L33.7682 20.0686C33.7174 20.5037 33.8987 20.9325 34.2549 21.1942L34.2555 21.1946C34.466 21.347 34.7198 21.4269 34.9675 21.4269C35.1354 21.4269 35.3028 21.3904 35.462 21.318C35.4621 21.318 35.4621 21.318 35.4622 21.3179L37.9941 20.1766L40.5261 21.3179C40.5261 21.318 40.5262 21.318 40.5262 21.318C40.9265 21.4999 41.3848 21.4484 41.74 21.1875L41.7408 21.1869C42.0887 20.9259 42.2776 20.498 42.2268 20.062L42.2267 20.0616L41.9057 17.3881L43.7598 15.4226C43.7599 15.4225 43.7599 15.4225 43.76 15.4224C44.0639 15.1038 44.1654 14.6428 44.0386 14.2248L44.0425 14.2225C43.9047 13.8018 43.5561 13.4893 43.1204 13.4022L43.12 13.4021ZM42.2701 14.8036L40.7591 16.4042L40.7457 16.3976L40.6948 16.4516C40.4474 16.7135 40.3314 17.0699 40.3748 17.4322L40.3748 17.4322L40.647 19.6895L38.5022 18.7225C38.5021 18.7225 38.5021 18.7225 38.5021 18.7225C38.3428 18.6501 38.1754 18.6136 38.0075 18.6136C37.8407 18.6136 37.6663 18.6496 37.5121 18.7228L35.368 19.6895L35.6401 17.4389L35.6401 17.4388C35.6836 17.0765 35.5676 16.7202 35.3202 16.4583C35.3202 16.4583 35.3202 16.4583 35.3202 16.4583L33.7582 14.8036L36.0396 14.3585C36.0396 14.3585 36.0397 14.3585 36.0397 14.3584C36.3818 14.2929 36.6866 14.0751 36.861 13.7699L38.0141 11.7611L39.1673 13.7699C39.3421 14.0758 39.6402 14.2859 39.9871 14.3582L39.9871 14.3582L39.9883 14.3584L42.2701 14.8036Z" fill="#6941C6" stroke="#6941C6" stroke-width="0.2"/>
</svg>
