<svg width="24" height="24" viewBox="0 0 24 24" fill="none" xmlns="http://www.w3.org/2000/svg">
<path d="M15.1198 4.11118C14.9922 4.03324 14.8306 4.02421 14.6974 4.09085L10.1634 6.3612H5.61812C4.75404 6.3612 4.04809 7.06715 4.04809 7.93124V10.2851C4.04809 11.1492 4.75065 11.8552 5.61812 11.8552H5.84064L6.36699 15.5307C6.39862 15.7441 6.58047 15.9034 6.79735 15.9034H9.1106C9.23485 15.9034 9.35684 15.8481 9.43703 15.7532C9.52062 15.6583 9.55564 15.5329 9.53869 15.4087L9.03041 11.8552H10.1645L14.6984 14.1222C14.7594 14.1538 14.8261 14.1685 14.8927 14.1685C14.9707 14.1685 15.052 14.1459 15.1209 14.1052C15.2474 14.0239 15.3253 13.885 15.3253 13.7348V4.48173C15.3253 4.3315 15.2474 4.19249 15.1198 4.11118ZM4.91573 10.2853V7.93135C4.91573 7.54394 5.23086 7.22879 5.6183 7.22879H9.83132V10.9878H5.6183C5.23089 10.9878 4.91573 10.6727 4.91573 10.2853ZM8.60827 15.0361H7.17151L6.71744 11.8554H8.15421L8.60827 15.0361ZM14.4579 13.0323L10.6989 11.1528V7.06385L14.4579 5.18433V13.0323ZM19.9519 9.10849C19.9519 9.34794 19.7576 9.54222 19.5182 9.54222H18.3615C18.1221 9.54222 17.9278 9.34794 17.9278 9.10849C17.9278 8.86903 18.1221 8.67475 18.3615 8.67475H19.5182C19.7576 8.67475 19.9519 8.86903 19.9519 9.10849ZM16.8174 6.4112C16.7101 6.19772 16.7971 5.93681 17.0117 5.8295L18.1684 5.25118C18.3818 5.14388 18.6427 5.23085 18.7501 5.44546C18.8574 5.65894 18.7704 5.91985 18.5558 6.02716L17.3991 6.60548C17.3359 6.6371 17.2715 6.65179 17.2049 6.65179C17.0456 6.65066 16.8931 6.56368 16.8174 6.4112ZM18.7489 12.7727C18.6733 12.9251 18.5208 13.0121 18.3615 13.0121C18.2949 13.0121 18.2316 12.9974 18.1672 12.9658L17.0106 12.3875C16.7971 12.2802 16.7101 12.0204 16.8163 11.8058C16.9236 11.5923 17.1834 11.5053 17.398 11.6115L18.5547 12.1898C18.7693 12.2983 18.8562 12.558 18.7489 12.7727ZM22.4209 0H1.57906C0.708204 0 0 0.708204 0 1.57906V18.3704C0 19.2413 0.708204 19.9495 1.57906 19.9495L9.25301 19.9484V23.1291H6.79517C6.55571 23.1291 6.36143 23.3234 6.36143 23.5628C6.36143 23.8023 6.55571 23.9966 6.79517 23.9966H17.2048C17.4443 23.9966 17.6386 23.8023 17.6386 23.5628C17.6386 23.3234 17.4443 23.1291 17.2048 23.1291H14.747V19.9484H22.4209C23.2918 19.9484 24 19.2402 24 18.3693V1.57909C24 0.708231 23.2918 0 22.4209 0ZM13.8795 23.1326H10.1205V19.9519H13.8795V23.1326ZM23.1326 18.3728C23.1326 18.7658 22.8118 19.0844 22.421 19.0844H1.57909C1.18601 19.0844 0.867501 18.7636 0.867501 18.3728V1.57909C0.867501 1.18601 1.18829 0.867501 1.57909 0.867501H22.4187C22.8117 0.867501 23.1302 1.18829 23.1302 1.57909L23.1291 18.3728H23.1326Z" fill="black"/>
</svg>
