<svg width="42" height="42" viewBox="0 0 42 42" fill="none" xmlns="http://www.w3.org/2000/svg">
<mask id="path-1-outside-1_281_738" maskUnits="userSpaceOnUse" x="0" y="0" width="42" height="42" fill="black">
<rect fill="white" width="42" height="42"/>
<path d="M37.3179 20.3795L37.9415 19.4807C38.247 19.0478 38.3685 18.5114 38.2794 17.989C38.1902 17.4667 37.8977 17.001 37.4658 16.6939C37.0258 16.3987 36.489 16.2839 35.9667 16.3733C35.4444 16.4627 34.9764 16.7495 34.6596 17.1742L34.008 18.107C33.0452 17.6612 32.027 17.3462 30.9807 17.1702V15.5346C31.4248 15.3782 31.7993 15.0696 32.0377 14.6635C32.2762 14.2574 32.3632 13.78 32.2834 13.3159C32.2036 12.8518 31.9621 12.4309 31.6018 12.1278C31.2414 11.8247 30.7853 11.6589 30.3144 11.6598H27.6495C27.1786 11.6589 26.7225 11.8247 26.3621 12.1278C26.0018 12.4309 25.7603 12.8518 25.6805 13.3159C25.6007 13.78 25.6877 14.2574 25.9262 14.6635C26.1646 15.0696 26.5391 15.3782 26.9832 15.5346V17.1702C25.9374 17.346 24.9199 17.6613 23.9579 18.1076L23.303 17.1702C23.059 16.8342 22.7147 16.5843 22.3196 16.4567V2.33248C22.3196 1.97908 22.1792 1.64016 21.9293 1.39028C21.6794 1.14039 21.3405 1.00001 20.9871 1.00001H6.88155C6.619 0.999405 6.35893 1.05085 6.11638 1.15137C5.87384 1.25189 5.65362 1.39948 5.46846 1.58563L1.58563 5.46846C1.39937 5.65353 1.25169 5.87373 1.15117 6.11629C1.05064 6.35886 0.99926 6.61897 1.00001 6.88154V28.982C1.00001 29.3353 1.14039 29.6743 1.39028 29.9242C1.64017 30.174 1.97909 30.3144 2.33248 30.3144H17.0683C17.2781 32.2287 17.9459 34.0643 19.0151 35.6659C20.0842 37.2676 21.5234 38.5882 23.2108 39.5161C24.8983 40.444 26.7844 40.9518 28.7096 40.9967C30.6348 41.0416 32.5425 40.6222 34.2714 39.774C36.0002 38.9258 37.4994 37.6737 38.6421 36.1236C39.7847 34.5736 40.5373 32.7711 40.8362 30.8687C41.135 28.9663 40.9713 27.0199 40.3589 25.1941C39.7465 23.3684 38.7034 21.7169 37.3179 20.3795ZM35.7496 17.9417C35.8568 17.7999 36.014 17.7043 36.1892 17.6741C36.3644 17.6439 36.5445 17.6815 36.693 17.7792C36.7649 17.8302 36.8261 17.8949 36.873 17.9696C36.9199 18.0442 36.9516 18.1274 36.9663 18.2143C36.981 18.3013 36.9785 18.3903 36.9588 18.4762C36.9391 18.5622 36.9026 18.6434 36.8515 18.7152L36.3026 19.5054C35.9466 19.2301 35.5754 18.9752 35.1906 18.7419L35.7496 17.9417ZM27.6495 12.9923H30.3144C30.4911 12.9923 30.6606 13.0625 30.7855 13.1874C30.9105 13.3123 30.9807 13.4818 30.9807 13.6585C30.9807 13.8352 30.9105 14.0047 30.7855 14.1296C30.6606 14.2545 30.4911 14.3247 30.3144 14.3247H27.6495C27.4728 14.3247 27.3033 14.2545 27.1784 14.1296C27.0534 14.0047 26.9832 13.8352 26.9832 13.6585C26.9832 13.4818 27.0534 13.3123 27.1784 13.1874C27.3033 13.0625 27.4728 12.9923 27.6495 12.9923ZM28.3157 15.6572H29.6482V17.0237C29.4263 17.011 29.2071 16.9897 28.982 16.9897C28.7568 16.9897 28.5376 17.011 28.3157 17.0237V15.6572ZM21.6627 19.5041L21.111 18.7092C21.0601 18.6374 21.0239 18.5562 21.0045 18.4703C20.9851 18.3845 20.9829 18.2956 20.9981 18.2088C21.0133 18.1221 21.0455 18.0392 21.0929 17.965C21.1403 17.8908 21.2019 17.8267 21.2743 17.7765C21.4219 17.6798 21.6005 17.6424 21.7745 17.6717C21.9486 17.7009 22.1051 17.7948 22.213 17.9344L22.7746 18.7386C22.3898 18.9725 22.0186 19.2281 21.6627 19.5041ZM5.66367 3.27454V5.66366H3.27454L5.66367 3.27454ZM2.33248 28.982V6.99614H5.66367C6.01706 6.99614 6.35598 6.85575 6.60587 6.60586C6.85575 6.35598 6.99614 6.01706 6.99614 5.66366V2.33248H20.9871V16.4567C20.8143 16.5114 20.6506 16.5916 20.5014 16.6945C20.0696 17.0001 19.7764 17.4643 19.6863 17.9856C19.5961 18.5068 19.7162 19.0426 20.0204 19.4754L20.6473 20.3788C19.4908 21.4934 18.5708 22.8297 17.9423 24.3079C17.3139 25.786 16.9899 27.3757 16.9897 28.982H2.33248ZM28.982 39.6417C26.8736 39.6417 24.8127 39.0166 23.0597 37.8452C21.3067 36.6739 19.9404 35.0091 19.1336 33.0613C18.3268 31.1135 18.1157 28.9701 18.527 26.9023C18.9383 24.8345 19.9535 22.9351 21.4443 21.4443C22.9351 19.9535 24.8345 18.9383 26.9023 18.527C28.9701 18.1157 31.1135 18.3268 33.0613 19.1336C35.0091 19.9404 36.6739 21.3067 37.8452 23.0597C39.0166 24.8127 39.6417 26.8736 39.6417 28.982C39.6384 31.8081 38.5142 34.5175 36.5159 36.5159C34.5175 38.5142 31.8081 39.6384 28.982 39.6417Z"/>
</mask>
<path d="M37.3179 20.3795L37.9415 19.4807C38.247 19.0478 38.3685 18.5114 38.2794 17.989C38.1902 17.4667 37.8977 17.001 37.4658 16.6939C37.0258 16.3987 36.489 16.2839 35.9667 16.3733C35.4444 16.4627 34.9764 16.7495 34.6596 17.1742L34.008 18.107C33.0452 17.6612 32.027 17.3462 30.9807 17.1702V15.5346C31.4248 15.3782 31.7993 15.0696 32.0377 14.6635C32.2762 14.2574 32.3632 13.78 32.2834 13.3159C32.2036 12.8518 31.9621 12.4309 31.6018 12.1278C31.2414 11.8247 30.7853 11.6589 30.3144 11.6598H27.6495C27.1786 11.6589 26.7225 11.8247 26.3621 12.1278C26.0018 12.4309 25.7603 12.8518 25.6805 13.3159C25.6007 13.78 25.6877 14.2574 25.9262 14.6635C26.1646 15.0696 26.5391 15.3782 26.9832 15.5346V17.1702C25.9374 17.346 24.9199 17.6613 23.9579 18.1076L23.303 17.1702C23.059 16.8342 22.7147 16.5843 22.3196 16.4567V2.33248C22.3196 1.97908 22.1792 1.64016 21.9293 1.39028C21.6794 1.14039 21.3405 1.00001 20.9871 1.00001H6.88155C6.619 0.999405 6.35893 1.05085 6.11638 1.15137C5.87384 1.25189 5.65362 1.39948 5.46846 1.58563L1.58563 5.46846C1.39937 5.65353 1.25169 5.87373 1.15117 6.11629C1.05064 6.35886 0.99926 6.61897 1.00001 6.88154V28.982C1.00001 29.3353 1.14039 29.6743 1.39028 29.9242C1.64017 30.174 1.97909 30.3144 2.33248 30.3144H17.0683C17.2781 32.2287 17.9459 34.0643 19.0151 35.6659C20.0842 37.2676 21.5234 38.5882 23.2108 39.5161C24.8983 40.444 26.7844 40.9518 28.7096 40.9967C30.6348 41.0416 32.5425 40.6222 34.2714 39.774C36.0002 38.9258 37.4994 37.6737 38.6421 36.1236C39.7847 34.5736 40.5373 32.7711 40.8362 30.8687C41.135 28.9663 40.9713 27.0199 40.3589 25.1941C39.7465 23.3684 38.7034 21.7169 37.3179 20.3795ZM35.7496 17.9417C35.8568 17.7999 36.014 17.7043 36.1892 17.6741C36.3644 17.6439 36.5445 17.6815 36.693 17.7792C36.7649 17.8302 36.8261 17.8949 36.873 17.9696C36.9199 18.0442 36.9516 18.1274 36.9663 18.2143C36.981 18.3013 36.9785 18.3903 36.9588 18.4762C36.9391 18.5622 36.9026 18.6434 36.8515 18.7152L36.3026 19.5054C35.9466 19.2301 35.5754 18.9752 35.1906 18.7419L35.7496 17.9417ZM27.6495 12.9923H30.3144C30.4911 12.9923 30.6606 13.0625 30.7855 13.1874C30.9105 13.3123 30.9807 13.4818 30.9807 13.6585C30.9807 13.8352 30.9105 14.0047 30.7855 14.1296C30.6606 14.2545 30.4911 14.3247 30.3144 14.3247H27.6495C27.4728 14.3247 27.3033 14.2545 27.1784 14.1296C27.0534 14.0047 26.9832 13.8352 26.9832 13.6585C26.9832 13.4818 27.0534 13.3123 27.1784 13.1874C27.3033 13.0625 27.4728 12.9923 27.6495 12.9923ZM28.3157 15.6572H29.6482V17.0237C29.4263 17.011 29.2071 16.9897 28.982 16.9897C28.7568 16.9897 28.5376 17.011 28.3157 17.0237V15.6572ZM21.6627 19.5041L21.111 18.7092C21.0601 18.6374 21.0239 18.5562 21.0045 18.4703C20.9851 18.3845 20.9829 18.2956 20.9981 18.2088C21.0133 18.1221 21.0455 18.0392 21.0929 17.965C21.1403 17.8908 21.2019 17.8267 21.2743 17.7765C21.4219 17.6798 21.6005 17.6424 21.7745 17.6717C21.9486 17.7009 22.1051 17.7948 22.213 17.9344L22.7746 18.7386C22.3898 18.9725 22.0186 19.2281 21.6627 19.5041ZM5.66367 3.27454V5.66366H3.27454L5.66367 3.27454ZM2.33248 28.982V6.99614H5.66367C6.01706 6.99614 6.35598 6.85575 6.60587 6.60586C6.85575 6.35598 6.99614 6.01706 6.99614 5.66366V2.33248H20.9871V16.4567C20.8143 16.5114 20.6506 16.5916 20.5014 16.6945C20.0696 17.0001 19.7764 17.4643 19.6863 17.9856C19.5961 18.5068 19.7162 19.0426 20.0204 19.4754L20.6473 20.3788C19.4908 21.4934 18.5708 22.8297 17.9423 24.3079C17.3139 25.786 16.9899 27.3757 16.9897 28.982H2.33248ZM28.982 39.6417C26.8736 39.6417 24.8127 39.0166 23.0597 37.8452C21.3067 36.6739 19.9404 35.0091 19.1336 33.0613C18.3268 31.1135 18.1157 28.9701 18.527 26.9023C18.9383 24.8345 19.9535 22.9351 21.4443 21.4443C22.9351 19.9535 24.8345 18.9383 26.9023 18.527C28.9701 18.1157 31.1135 18.3268 33.0613 19.1336C35.0091 19.9404 36.6739 21.3067 37.8452 23.0597C39.0166 24.8127 39.6417 26.8736 39.6417 28.982C39.6384 31.8081 38.5142 34.5175 36.5159 36.5159C34.5175 38.5142 31.8081 39.6384 28.982 39.6417Z" fill="#533BE4"/>
<path d="M37.3179 20.3795L37.9415 19.4807C38.247 19.0478 38.3685 18.5114 38.2794 17.989C38.1902 17.4667 37.8977 17.001 37.4658 16.6939C37.0258 16.3987 36.489 16.2839 35.9667 16.3733C35.4444 16.4627 34.9764 16.7495 34.6596 17.1742L34.008 18.107C33.0452 17.6612 32.027 17.3462 30.9807 17.1702V15.5346C31.4248 15.3782 31.7993 15.0696 32.0377 14.6635C32.2762 14.2574 32.3632 13.78 32.2834 13.3159C32.2036 12.8518 31.9621 12.4309 31.6018 12.1278C31.2414 11.8247 30.7853 11.6589 30.3144 11.6598H27.6495C27.1786 11.6589 26.7225 11.8247 26.3621 12.1278C26.0018 12.4309 25.7603 12.8518 25.6805 13.3159C25.6007 13.78 25.6877 14.2574 25.9262 14.6635C26.1646 15.0696 26.5391 15.3782 26.9832 15.5346V17.1702C25.9374 17.346 24.9199 17.6613 23.9579 18.1076L23.303 17.1702C23.059 16.8342 22.7147 16.5843 22.3196 16.4567V2.33248C22.3196 1.97908 22.1792 1.64016 21.9293 1.39028C21.6794 1.14039 21.3405 1.00001 20.9871 1.00001H6.88155C6.619 0.999405 6.35893 1.05085 6.11638 1.15137C5.87384 1.25189 5.65362 1.39948 5.46846 1.58563L1.58563 5.46846C1.39937 5.65353 1.25169 5.87373 1.15117 6.11629C1.05064 6.35886 0.99926 6.61897 1.00001 6.88154V28.982C1.00001 29.3353 1.14039 29.6743 1.39028 29.9242C1.64017 30.174 1.97909 30.3144 2.33248 30.3144H17.0683C17.2781 32.2287 17.9459 34.0643 19.0151 35.6659C20.0842 37.2676 21.5234 38.5882 23.2108 39.5161C24.8983 40.444 26.7844 40.9518 28.7096 40.9967C30.6348 41.0416 32.5425 40.6222 34.2714 39.774C36.0002 38.9258 37.4994 37.6737 38.6421 36.1236C39.7847 34.5736 40.5373 32.7711 40.8362 30.8687C41.135 28.9663 40.9713 27.0199 40.3589 25.1941C39.7465 23.3684 38.7034 21.7169 37.3179 20.3795ZM35.7496 17.9417C35.8568 17.7999 36.014 17.7043 36.1892 17.6741C36.3644 17.6439 36.5445 17.6815 36.693 17.7792C36.7649 17.8302 36.8261 17.8949 36.873 17.9696C36.9199 18.0442 36.9516 18.1274 36.9663 18.2143C36.981 18.3013 36.9785 18.3903 36.9588 18.4762C36.9391 18.5622 36.9026 18.6434 36.8515 18.7152L36.3026 19.5054C35.9466 19.2301 35.5754 18.9752 35.1906 18.7419L35.7496 17.9417ZM27.6495 12.9923H30.3144C30.4911 12.9923 30.6606 13.0625 30.7855 13.1874C30.9105 13.3123 30.9807 13.4818 30.9807 13.6585C30.9807 13.8352 30.9105 14.0047 30.7855 14.1296C30.6606 14.2545 30.4911 14.3247 30.3144 14.3247H27.6495C27.4728 14.3247 27.3033 14.2545 27.1784 14.1296C27.0534 14.0047 26.9832 13.8352 26.9832 13.6585C26.9832 13.4818 27.0534 13.3123 27.1784 13.1874C27.3033 13.0625 27.4728 12.9923 27.6495 12.9923ZM28.3157 15.6572H29.6482V17.0237C29.4263 17.011 29.2071 16.9897 28.982 16.9897C28.7568 16.9897 28.5376 17.011 28.3157 17.0237V15.6572ZM21.6627 19.5041L21.111 18.7092C21.0601 18.6374 21.0239 18.5562 21.0045 18.4703C20.9851 18.3845 20.9829 18.2956 20.9981 18.2088C21.0133 18.1221 21.0455 18.0392 21.0929 17.965C21.1403 17.8908 21.2019 17.8267 21.2743 17.7765C21.4219 17.6798 21.6005 17.6424 21.7745 17.6717C21.9486 17.7009 22.1051 17.7948 22.213 17.9344L22.7746 18.7386C22.3898 18.9725 22.0186 19.2281 21.6627 19.5041ZM5.66367 3.27454V5.66366H3.27454L5.66367 3.27454ZM2.33248 28.982V6.99614H5.66367C6.01706 6.99614 6.35598 6.85575 6.60587 6.60586C6.85575 6.35598 6.99614 6.01706 6.99614 5.66366V2.33248H20.9871V16.4567C20.8143 16.5114 20.6506 16.5916 20.5014 16.6945C20.0696 17.0001 19.7764 17.4643 19.6863 17.9856C19.5961 18.5068 19.7162 19.0426 20.0204 19.4754L20.6473 20.3788C19.4908 21.4934 18.5708 22.8297 17.9423 24.3079C17.3139 25.786 16.9899 27.3757 16.9897 28.982H2.33248ZM28.982 39.6417C26.8736 39.6417 24.8127 39.0166 23.0597 37.8452C21.3067 36.6739 19.9404 35.0091 19.1336 33.0613C18.3268 31.1135 18.1157 28.9701 18.527 26.9023C18.9383 24.8345 19.9535 22.9351 21.4443 21.4443C22.9351 19.9535 24.8345 18.9383 26.9023 18.527C28.9701 18.1157 31.1135 18.3268 33.0613 19.1336C35.0091 19.9404 36.6739 21.3067 37.8452 23.0597C39.0166 24.8127 39.6417 26.8736 39.6417 28.982C39.6384 31.8081 38.5142 34.5175 36.5159 36.5159C34.5175 38.5142 31.8081 39.6384 28.982 39.6417Z" stroke="#533BE4" stroke-width="0.4" mask="url(#path-1-outside-1_281_738)"/>
<path d="M26.9843 31.6469C26.9843 31.4702 26.9141 31.3007 26.7891 31.1758C26.6642 31.0508 26.4947 30.9807 26.318 30.9807C26.1413 30.9807 25.9719 31.0508 25.8469 31.1758C25.722 31.3007 25.6518 31.4702 25.6518 31.6469C25.6527 32.4145 25.9183 33.1584 26.4038 33.753C26.8892 34.3477 27.5648 34.7568 28.3167 34.9115V34.9781C28.3167 35.1548 28.3869 35.3242 28.5119 35.4492C28.6368 35.5741 28.8063 35.6443 28.983 35.6443C29.1597 35.6443 29.3291 35.5741 29.4541 35.4492C29.579 35.3242 29.6492 35.1548 29.6492 34.9781V34.9115C30.4022 34.7585 31.0793 34.35 31.5655 33.755C32.0518 33.1601 32.3175 32.4153 32.3175 31.6469C32.3175 30.8785 32.0518 30.1337 31.5655 29.5388C31.0793 28.9438 30.4022 28.5352 29.6492 28.3823V24.4409C30.0376 24.5782 30.374 24.8321 30.6125 25.1679C30.851 25.5038 30.98 25.9051 30.9817 26.317C30.9817 26.4937 31.0519 26.6632 31.1768 26.7881C31.3018 26.913 31.4712 26.9832 31.6479 26.9832C31.8246 26.9832 31.9941 26.913 32.119 26.7881C32.244 26.6632 32.3141 26.4937 32.3141 26.317C32.3132 25.5494 32.0476 24.8055 31.5622 24.2109C31.0767 23.6162 30.4011 23.2071 29.6492 23.0524V22.9858C29.6492 22.8091 29.579 22.6397 29.4541 22.5147C29.3291 22.3898 29.1597 22.3196 28.983 22.3196C28.8063 22.3196 28.6368 22.3898 28.5119 22.5147C28.3869 22.6397 28.3167 22.8091 28.3167 22.9858V23.0524C27.5637 23.2054 26.8867 23.6139 26.4004 24.2089C25.9141 24.8038 25.6484 25.5486 25.6484 26.317C25.6484 27.0854 25.9141 27.8302 26.4004 28.4251C26.8867 29.0201 27.5637 29.4287 28.3167 29.5816V33.5237C27.9283 33.3863 27.5917 33.1323 27.3532 32.7963C27.1147 32.4604 26.9858 32.0589 26.9843 31.6469ZM30.9817 31.6469C30.98 32.0588 30.851 32.4601 30.6125 32.796C30.374 33.1318 30.0376 33.3857 29.6492 33.523V29.7708C30.0376 29.9081 30.374 30.162 30.6125 30.4978C30.851 30.8337 30.98 31.235 30.9817 31.6469ZM26.9843 26.317C26.986 25.9051 27.1149 25.5038 27.3534 25.1679C27.5919 24.8321 27.9284 24.5782 28.3167 24.4409V28.1931C27.9284 28.0558 27.5919 27.8019 27.3534 27.4661C27.1149 27.1302 26.986 26.7289 26.9843 26.317Z" fill="#533BE4"/>
<path d="M17.3243 8.96471C17.2333 9.00979 17.1522 9.0725 17.0856 9.1492L5.09463 22.4725C5.0253 22.5467 4.97141 22.634 4.9361 22.7292C4.90067 22.8247 4.88464 22.9264 4.88897 23.0282C4.8933 23.13 4.91789 23.2299 4.9613 23.3221C5.00472 23.4143 5.06608 23.4969 5.14181 23.5651C5.21753 23.6332 5.30609 23.6856 5.40231 23.7192C5.49853 23.7527 5.60047 23.7667 5.70217 23.7604C5.80387 23.7541 5.90329 23.7275 5.9946 23.6823C6.08561 23.6372 6.16675 23.5745 6.2333 23.4978L18.2243 10.1745C18.2936 10.1003 18.3475 10.013 18.3828 9.91779C18.4182 9.82225 18.4343 9.72061 18.4299 9.6188C18.4256 9.517 18.401 9.41708 18.3576 9.32489C18.3142 9.2327 18.2528 9.1501 18.1771 9.08192C18.1014 9.01374 18.0128 8.96134 17.9166 8.9278C17.8204 8.89426 17.7184 8.88025 17.6167 8.88659C17.515 8.89293 17.4156 8.91949 17.3243 8.96471Z" fill="#533BE4" stroke="#533BE4" stroke-width="0.2"/>
<path d="M8.32901 15.7572C8.87586 15.7572 9.41044 15.595 9.86513 15.2912C10.3198 14.9874 10.6742 14.5555 10.8835 14.0503C11.0928 13.5451 11.1475 12.9892 11.0408 12.4528C10.9341 11.9165 10.6708 11.4238 10.2841 11.0371C9.89744 10.6504 9.40477 10.3871 8.86842 10.2804C8.33208 10.1737 7.77614 10.2285 7.27091 10.4377C6.76568 10.647 6.33386 11.0014 6.03004 11.4561C5.72622 11.9108 5.56406 12.4454 5.56406 12.9922C5.56406 13.7255 5.85537 14.4288 6.3739 14.9473C6.89242 15.4659 7.5957 15.7572 8.32901 15.7572ZM8.32901 11.7597C8.57277 11.7597 8.81106 11.832 9.01374 11.9675C9.21641 12.1029 9.37438 12.2954 9.46767 12.5206C9.56095 12.7458 9.58536 12.9936 9.5378 13.2327C9.49025 13.4717 9.37286 13.6913 9.2005 13.8637C9.02814 14.0361 8.80853 14.1535 8.56945 14.201C8.33038 14.2486 8.08257 14.2242 7.85736 14.1309C7.63216 14.0376 7.43967 13.8796 7.30425 13.6769C7.16882 13.4743 7.09654 13.236 7.09654 12.9922C7.09654 12.6653 7.22639 12.3519 7.45752 12.1207C7.68865 11.8896 8.00214 11.7597 8.32901 11.7597Z" fill="#533BE4" stroke="#533BE4" stroke-width="0.2"/>
<path d="M14.9911 16.8896C14.4443 16.8896 13.9097 17.0518 13.455 17.3556C13.0003 17.6594 12.6459 18.0912 12.4366 18.5965C12.2274 19.1017 12.1726 19.6576 12.2793 20.194C12.386 20.7303 12.6493 21.223 13.036 21.6097C13.4227 21.9964 13.9154 22.2597 14.4517 22.3664C14.9881 22.4731 15.544 22.4183 16.0492 22.209C16.5544 21.9998 16.9863 21.6454 17.2901 21.1907C17.5939 20.736 17.7561 20.2014 17.7561 19.6546C17.7561 18.9213 17.4648 18.218 16.9462 17.6995C16.4277 17.1809 15.7244 16.8896 14.9911 16.8896ZM14.9911 20.887C14.7474 20.887 14.5091 20.8148 14.3064 20.6793C14.1037 20.5439 13.9457 20.3514 13.8525 20.1262C13.7592 19.901 13.7348 19.6532 13.7823 19.4141C13.8299 19.1751 13.9473 18.9554 14.1196 18.7831C14.292 18.6107 14.5116 18.4933 14.7507 18.4458C14.9898 18.3982 15.2376 18.4226 15.4628 18.5159C15.688 18.6092 15.8805 18.7672 16.0159 18.9698C16.1513 19.1725 16.2236 19.4108 16.2236 19.6546C16.2236 19.9814 16.0937 20.2949 15.8626 20.5261C15.6315 20.7572 15.318 20.887 14.9911 20.887Z" fill="#533BE4" stroke="#533BE4" stroke-width="0.2"/>
</svg>
