<svg width="48" height="48" viewBox="0 0 48 48" fill="none" xmlns="http://www.w3.org/2000/svg">
<mask id="path-1-outside-1_281_435" maskUnits="userSpaceOnUse" x="3" y="7" width="42" height="33" fill="black">
<rect fill="white" x="3" y="7" width="42" height="33"/>
<path d="M34.891 9.18112C34.8007 9.02467 34.6469 8.91445 34.4696 8.87934L30.0895 8.01221C29.75 7.94509 29.4193 8.16599 29.3522 8.506C29.2851 8.846 29.5059 9.17623 29.846 9.24334L32.5887 9.78647L21.1853 16.3697C21.1098 16.1084 20.8689 15.9173 20.5831 15.9173H19.7435C19.5808 15.3213 19.3444 14.7515 19.0373 14.2141L19.6315 13.6199C19.8764 13.375 19.8764 12.9776 19.6315 12.7328L17.7488 10.85C17.631 10.7323 17.4715 10.666 17.3052 10.666C17.139 10.666 16.9795 10.7323 16.8617 10.85L16.2674 11.4443C15.7301 11.1372 15.1603 10.9012 14.5643 10.738V9.89847C14.5643 9.5518 14.2834 9.2709 13.9367 9.2709H11.274C10.9273 9.2709 10.6464 9.5518 10.6464 9.89847V10.738C10.0504 10.9007 9.48019 11.1372 8.94284 11.4438L8.34861 10.8496C8.10371 10.6047 7.70637 10.6047 7.46148 10.8496L5.57877 12.7323C5.46099 12.8501 5.39477 13.0096 5.39477 13.1759C5.39477 13.3421 5.46099 13.5021 5.57833 13.6194L6.17256 14.2137C5.86589 14.751 5.62944 15.3213 5.46677 15.9168H4.62719C4.28052 15.9168 3.99962 16.1977 3.99962 16.5444V19.2071C3.99962 19.5538 4.28052 19.8347 4.62719 19.8347H5.46677C5.62944 20.4307 5.86589 21.0009 6.173 21.5383L5.57877 22.1325C5.46099 22.2503 5.39477 22.4098 5.39477 22.5761C5.39477 22.7423 5.46099 22.9019 5.57833 23.0196L7.46103 24.9023C7.57881 25.0201 7.73837 25.0863 7.9046 25.0863C8.07082 25.0863 8.23038 25.0201 8.34816 24.9023L8.9424 24.3081C9.47974 24.6152 10.05 24.8512 10.646 25.0143V25.8539C10.646 26.2006 10.9269 26.4815 11.2736 26.4815H13.9363C14.283 26.4815 14.5639 26.2006 14.5639 25.8539V25.0143C15.1599 24.8517 15.7301 24.6152 16.2674 24.3081L16.8617 24.9023C17.1066 25.1472 17.5039 25.1472 17.7488 24.9023L19.6315 23.0196C19.7493 22.9019 19.8151 22.7423 19.8151 22.5761C19.8151 22.4098 19.7489 22.2498 19.6315 22.1325L19.0373 21.5383C19.3444 21.0009 19.5804 20.4307 19.7435 19.8351H20.5831C20.9298 19.8351 21.2107 19.5542 21.2107 19.2076V17.8044L33.2158 10.8732L32.3149 13.5199C32.2033 13.8479 32.3785 14.2043 32.7065 14.3159C32.7736 14.3386 32.8416 14.3497 32.9087 14.3497C33.17 14.3497 33.4136 14.1852 33.5025 13.9243L34.9416 9.69713C34.9998 9.52602 34.9816 9.33801 34.891 9.18112ZM19.956 18.5795H19.2475C18.9484 18.5795 18.6906 18.7907 18.6319 19.0844C18.475 19.8725 18.1684 20.6116 17.7208 21.2823C17.5546 21.5312 17.5875 21.8627 17.799 22.0743L18.3004 22.5756L17.3048 23.5712L16.8035 23.0699C16.5919 22.8583 16.2603 22.8254 16.0114 22.9916C15.3412 23.4388 14.6016 23.7454 13.8136 23.9028C13.5203 23.9614 13.3087 24.2188 13.3087 24.5183V25.2268H11.9011V24.5183C11.9011 24.2192 11.69 23.9614 11.3962 23.9028C10.6082 23.7459 9.86908 23.4392 9.1984 22.9916C8.94951 22.8254 8.61795 22.8583 8.40639 23.0699L7.90504 23.5712L6.90947 22.5756L7.41081 22.0743C7.62237 21.8627 7.65526 21.5312 7.48903 21.2823C7.04191 20.612 6.73524 19.8725 6.5779 19.0844C6.51923 18.7911 6.2619 18.5795 5.96233 18.5795H5.25476V17.172H5.96322C6.26234 17.172 6.52012 16.9608 6.57879 16.6671C6.73568 15.8795 7.04236 15.1399 7.48992 14.4692C7.65615 14.2203 7.62326 13.8888 7.4117 13.6772L6.91035 13.1759L7.90593 12.1803L8.40727 12.6816C8.61883 12.8932 8.9504 12.9261 9.19929 12.7599C9.86953 12.3127 10.6091 12.0061 11.3971 11.8487C11.6905 11.7901 11.902 11.5327 11.902 11.2332V10.5247H13.3096V11.2332C13.3096 11.5323 13.5207 11.7901 13.8145 11.8487C14.6025 12.0056 15.3416 12.3123 16.0123 12.7599C16.2612 12.9261 16.5928 12.8932 16.8043 12.6816L17.3057 12.1803L18.3013 13.1759L17.7999 13.6772C17.5884 13.8888 17.5555 14.2203 17.7217 14.4692C18.1693 15.1395 18.4755 15.879 18.6328 16.6671C18.6915 16.9604 18.9488 17.172 19.2484 17.172H19.9569L19.956 18.5795ZM15.0994 29.2531H10.0718C9.72508 29.2531 9.44419 29.534 9.44419 29.8807V38.4684C9.44419 38.8151 9.72508 39.096 10.0718 39.096H15.0994C15.4461 39.096 15.727 38.8151 15.727 38.4684V29.8807C15.727 29.534 15.4461 29.2531 15.0994 29.2531ZM14.4718 37.8413H10.6993V30.5082H14.4718V37.8413ZM43.7427 16.2684L39.7724 12.0145C39.5537 11.7803 39.2448 11.6461 38.9244 11.6461C38.6039 11.6461 38.295 11.7803 38.0764 12.0145L34.106 16.2684C33.8465 16.5466 33.7767 16.952 33.9283 17.3008C34.0798 17.6497 34.4238 17.8751 34.8043 17.8751H35.783V38.4684C35.783 38.8151 36.0639 39.096 36.4105 39.096H41.4382C41.7849 39.096 42.0658 38.8151 42.0658 38.4684V17.8751H43.0445C43.4249 17.8751 43.7689 17.6497 43.9205 17.3008C44.072 16.952 44.0023 16.5466 43.7427 16.2684ZM41.4382 16.6204C41.0915 16.6204 40.8106 16.9013 40.8106 17.248V37.8413H37.0381V17.2475C37.0381 16.9008 36.7572 16.6199 36.4105 16.6199H35.4945L38.9244 12.9452L42.3542 16.6199L41.4382 16.6204ZM23.8792 26.3175C23.8792 26.3175 19.1982 26.3175 18.8515 26.3175C18.5048 26.3175 18.2239 26.5983 18.2239 26.945V38.4684C18.2239 38.8151 18.5048 39.096 18.8515 39.096H23.8792C24.2258 39.096 24.5067 38.8151 24.5067 38.4684V26.945C24.5063 26.5983 24.2254 26.3175 23.8792 26.3175ZM23.2516 37.8413H19.4791V27.5726H23.2516V37.8413ZM32.6585 20.0485H27.6308C27.2841 20.0485 27.0032 20.3294 27.0032 20.676V38.4684C27.0032 38.8151 27.2841 39.096 27.6308 39.096H32.6585C33.0051 39.096 33.286 38.8151 33.286 38.4684V20.676C33.286 20.3294 33.0051 20.0485 32.6585 20.0485ZM32.0309 37.8413H28.2584V21.3032H32.0309V37.8413ZM12.6051 13.1136C9.97931 13.1136 7.84282 15.2501 7.84282 17.876C7.84282 20.5018 9.97931 22.6383 12.6051 22.6383C15.231 22.6383 17.3675 20.5018 17.3675 17.876C17.3675 15.2497 15.231 13.1136 12.6051 13.1136ZM12.6051 21.3832C10.6713 21.3832 9.09796 19.8098 9.09796 17.876C9.09796 15.9422 10.6713 14.3688 12.6051 14.3688C14.539 14.3688 16.1123 15.9422 16.1123 17.876C16.1123 19.8098 14.539 21.3832 12.6051 21.3832Z"/>
</mask>
<path d="M34.891 9.18112C34.8007 9.02467 34.6469 8.91445 34.4696 8.87934L30.0895 8.01221C29.75 7.94509 29.4193 8.16599 29.3522 8.506C29.2851 8.846 29.5059 9.17623 29.846 9.24334L32.5887 9.78647L21.1853 16.3697C21.1098 16.1084 20.8689 15.9173 20.5831 15.9173H19.7435C19.5808 15.3213 19.3444 14.7515 19.0373 14.2141L19.6315 13.6199C19.8764 13.375 19.8764 12.9776 19.6315 12.7328L17.7488 10.85C17.631 10.7323 17.4715 10.666 17.3052 10.666C17.139 10.666 16.9795 10.7323 16.8617 10.85L16.2674 11.4443C15.7301 11.1372 15.1603 10.9012 14.5643 10.738V9.89847C14.5643 9.5518 14.2834 9.2709 13.9367 9.2709H11.274C10.9273 9.2709 10.6464 9.5518 10.6464 9.89847V10.738C10.0504 10.9007 9.48019 11.1372 8.94284 11.4438L8.34861 10.8496C8.10371 10.6047 7.70637 10.6047 7.46148 10.8496L5.57877 12.7323C5.46099 12.8501 5.39477 13.0096 5.39477 13.1759C5.39477 13.3421 5.46099 13.5021 5.57833 13.6194L6.17256 14.2137C5.86589 14.751 5.62944 15.3213 5.46677 15.9168H4.62719C4.28052 15.9168 3.99962 16.1977 3.99962 16.5444V19.2071C3.99962 19.5538 4.28052 19.8347 4.62719 19.8347H5.46677C5.62944 20.4307 5.86589 21.0009 6.173 21.5383L5.57877 22.1325C5.46099 22.2503 5.39477 22.4098 5.39477 22.5761C5.39477 22.7423 5.46099 22.9019 5.57833 23.0196L7.46103 24.9023C7.57881 25.0201 7.73837 25.0863 7.9046 25.0863C8.07082 25.0863 8.23038 25.0201 8.34816 24.9023L8.9424 24.3081C9.47974 24.6152 10.05 24.8512 10.646 25.0143V25.8539C10.646 26.2006 10.9269 26.4815 11.2736 26.4815H13.9363C14.283 26.4815 14.5639 26.2006 14.5639 25.8539V25.0143C15.1599 24.8517 15.7301 24.6152 16.2674 24.3081L16.8617 24.9023C17.1066 25.1472 17.5039 25.1472 17.7488 24.9023L19.6315 23.0196C19.7493 22.9019 19.8151 22.7423 19.8151 22.5761C19.8151 22.4098 19.7489 22.2498 19.6315 22.1325L19.0373 21.5383C19.3444 21.0009 19.5804 20.4307 19.7435 19.8351H20.5831C20.9298 19.8351 21.2107 19.5542 21.2107 19.2076V17.8044L33.2158 10.8732L32.3149 13.5199C32.2033 13.8479 32.3785 14.2043 32.7065 14.3159C32.7736 14.3386 32.8416 14.3497 32.9087 14.3497C33.17 14.3497 33.4136 14.1852 33.5025 13.9243L34.9416 9.69713C34.9998 9.52602 34.9816 9.33801 34.891 9.18112ZM19.956 18.5795H19.2475C18.9484 18.5795 18.6906 18.7907 18.6319 19.0844C18.475 19.8725 18.1684 20.6116 17.7208 21.2823C17.5546 21.5312 17.5875 21.8627 17.799 22.0743L18.3004 22.5756L17.3048 23.5712L16.8035 23.0699C16.5919 22.8583 16.2603 22.8254 16.0114 22.9916C15.3412 23.4388 14.6016 23.7454 13.8136 23.9028C13.5203 23.9614 13.3087 24.2188 13.3087 24.5183V25.2268H11.9011V24.5183C11.9011 24.2192 11.69 23.9614 11.3962 23.9028C10.6082 23.7459 9.86908 23.4392 9.1984 22.9916C8.94951 22.8254 8.61795 22.8583 8.40639 23.0699L7.90504 23.5712L6.90947 22.5756L7.41081 22.0743C7.62237 21.8627 7.65526 21.5312 7.48903 21.2823C7.04191 20.612 6.73524 19.8725 6.5779 19.0844C6.51923 18.7911 6.2619 18.5795 5.96233 18.5795H5.25476V17.172H5.96322C6.26234 17.172 6.52012 16.9608 6.57879 16.6671C6.73568 15.8795 7.04236 15.1399 7.48992 14.4692C7.65615 14.2203 7.62326 13.8888 7.4117 13.6772L6.91035 13.1759L7.90593 12.1803L8.40727 12.6816C8.61883 12.8932 8.9504 12.9261 9.19929 12.7599C9.86953 12.3127 10.6091 12.0061 11.3971 11.8487C11.6905 11.7901 11.902 11.5327 11.902 11.2332V10.5247H13.3096V11.2332C13.3096 11.5323 13.5207 11.7901 13.8145 11.8487C14.6025 12.0056 15.3416 12.3123 16.0123 12.7599C16.2612 12.9261 16.5928 12.8932 16.8043 12.6816L17.3057 12.1803L18.3013 13.1759L17.7999 13.6772C17.5884 13.8888 17.5555 14.2203 17.7217 14.4692C18.1693 15.1395 18.4755 15.879 18.6328 16.6671C18.6915 16.9604 18.9488 17.172 19.2484 17.172H19.9569L19.956 18.5795ZM15.0994 29.2531H10.0718C9.72508 29.2531 9.44419 29.534 9.44419 29.8807V38.4684C9.44419 38.8151 9.72508 39.096 10.0718 39.096H15.0994C15.4461 39.096 15.727 38.8151 15.727 38.4684V29.8807C15.727 29.534 15.4461 29.2531 15.0994 29.2531ZM14.4718 37.8413H10.6993V30.5082H14.4718V37.8413ZM43.7427 16.2684L39.7724 12.0145C39.5537 11.7803 39.2448 11.6461 38.9244 11.6461C38.6039 11.6461 38.295 11.7803 38.0764 12.0145L34.106 16.2684C33.8465 16.5466 33.7767 16.952 33.9283 17.3008C34.0798 17.6497 34.4238 17.8751 34.8043 17.8751H35.783V38.4684C35.783 38.8151 36.0639 39.096 36.4105 39.096H41.4382C41.7849 39.096 42.0658 38.8151 42.0658 38.4684V17.8751H43.0445C43.4249 17.8751 43.7689 17.6497 43.9205 17.3008C44.072 16.952 44.0023 16.5466 43.7427 16.2684ZM41.4382 16.6204C41.0915 16.6204 40.8106 16.9013 40.8106 17.248V37.8413H37.0381V17.2475C37.0381 16.9008 36.7572 16.6199 36.4105 16.6199H35.4945L38.9244 12.9452L42.3542 16.6199L41.4382 16.6204ZM23.8792 26.3175C23.8792 26.3175 19.1982 26.3175 18.8515 26.3175C18.5048 26.3175 18.2239 26.5983 18.2239 26.945V38.4684C18.2239 38.8151 18.5048 39.096 18.8515 39.096H23.8792C24.2258 39.096 24.5067 38.8151 24.5067 38.4684V26.945C24.5063 26.5983 24.2254 26.3175 23.8792 26.3175ZM23.2516 37.8413H19.4791V27.5726H23.2516V37.8413ZM32.6585 20.0485H27.6308C27.2841 20.0485 27.0032 20.3294 27.0032 20.676V38.4684C27.0032 38.8151 27.2841 39.096 27.6308 39.096H32.6585C33.0051 39.096 33.286 38.8151 33.286 38.4684V20.676C33.286 20.3294 33.0051 20.0485 32.6585 20.0485ZM32.0309 37.8413H28.2584V21.3032H32.0309V37.8413ZM12.6051 13.1136C9.97931 13.1136 7.84282 15.2501 7.84282 17.876C7.84282 20.5018 9.97931 22.6383 12.6051 22.6383C15.231 22.6383 17.3675 20.5018 17.3675 17.876C17.3675 15.2497 15.231 13.1136 12.6051 13.1136ZM12.6051 21.3832C10.6713 21.3832 9.09796 19.8098 9.09796 17.876C9.09796 15.9422 10.6713 14.3688 12.6051 14.3688C14.539 14.3688 16.1123 15.9422 16.1123 17.876C16.1123 19.8098 14.539 21.3832 12.6051 21.3832Z" fill="#533BE4"/>
<path d="M34.891 9.18112C34.8007 9.02467 34.6469 8.91445 34.4696 8.87934L30.0895 8.01221C29.75 7.94509 29.4193 8.16599 29.3522 8.506C29.2851 8.846 29.5059 9.17623 29.846 9.24334L32.5887 9.78647L21.1853 16.3697C21.1098 16.1084 20.8689 15.9173 20.5831 15.9173H19.7435C19.5808 15.3213 19.3444 14.7515 19.0373 14.2141L19.6315 13.6199C19.8764 13.375 19.8764 12.9776 19.6315 12.7328L17.7488 10.85C17.631 10.7323 17.4715 10.666 17.3052 10.666C17.139 10.666 16.9795 10.7323 16.8617 10.85L16.2674 11.4443C15.7301 11.1372 15.1603 10.9012 14.5643 10.738V9.89847C14.5643 9.5518 14.2834 9.2709 13.9367 9.2709H11.274C10.9273 9.2709 10.6464 9.5518 10.6464 9.89847V10.738C10.0504 10.9007 9.48019 11.1372 8.94284 11.4438L8.34861 10.8496C8.10371 10.6047 7.70637 10.6047 7.46148 10.8496L5.57877 12.7323C5.46099 12.8501 5.39477 13.0096 5.39477 13.1759C5.39477 13.3421 5.46099 13.5021 5.57833 13.6194L6.17256 14.2137C5.86589 14.751 5.62944 15.3213 5.46677 15.9168H4.62719C4.28052 15.9168 3.99962 16.1977 3.99962 16.5444V19.2071C3.99962 19.5538 4.28052 19.8347 4.62719 19.8347H5.46677C5.62944 20.4307 5.86589 21.0009 6.173 21.5383L5.57877 22.1325C5.46099 22.2503 5.39477 22.4098 5.39477 22.5761C5.39477 22.7423 5.46099 22.9019 5.57833 23.0196L7.46103 24.9023C7.57881 25.0201 7.73837 25.0863 7.9046 25.0863C8.07082 25.0863 8.23038 25.0201 8.34816 24.9023L8.9424 24.3081C9.47974 24.6152 10.05 24.8512 10.646 25.0143V25.8539C10.646 26.2006 10.9269 26.4815 11.2736 26.4815H13.9363C14.283 26.4815 14.5639 26.2006 14.5639 25.8539V25.0143C15.1599 24.8517 15.7301 24.6152 16.2674 24.3081L16.8617 24.9023C17.1066 25.1472 17.5039 25.1472 17.7488 24.9023L19.6315 23.0196C19.7493 22.9019 19.8151 22.7423 19.8151 22.5761C19.8151 22.4098 19.7489 22.2498 19.6315 22.1325L19.0373 21.5383C19.3444 21.0009 19.5804 20.4307 19.7435 19.8351H20.5831C20.9298 19.8351 21.2107 19.5542 21.2107 19.2076V17.8044L33.2158 10.8732L32.3149 13.5199C32.2033 13.8479 32.3785 14.2043 32.7065 14.3159C32.7736 14.3386 32.8416 14.3497 32.9087 14.3497C33.17 14.3497 33.4136 14.1852 33.5025 13.9243L34.9416 9.69713C34.9998 9.52602 34.9816 9.33801 34.891 9.18112ZM19.956 18.5795H19.2475C18.9484 18.5795 18.6906 18.7907 18.6319 19.0844C18.475 19.8725 18.1684 20.6116 17.7208 21.2823C17.5546 21.5312 17.5875 21.8627 17.799 22.0743L18.3004 22.5756L17.3048 23.5712L16.8035 23.0699C16.5919 22.8583 16.2603 22.8254 16.0114 22.9916C15.3412 23.4388 14.6016 23.7454 13.8136 23.9028C13.5203 23.9614 13.3087 24.2188 13.3087 24.5183V25.2268H11.9011V24.5183C11.9011 24.2192 11.69 23.9614 11.3962 23.9028C10.6082 23.7459 9.86908 23.4392 9.1984 22.9916C8.94951 22.8254 8.61795 22.8583 8.40639 23.0699L7.90504 23.5712L6.90947 22.5756L7.41081 22.0743C7.62237 21.8627 7.65526 21.5312 7.48903 21.2823C7.04191 20.612 6.73524 19.8725 6.5779 19.0844C6.51923 18.7911 6.2619 18.5795 5.96233 18.5795H5.25476V17.172H5.96322C6.26234 17.172 6.52012 16.9608 6.57879 16.6671C6.73568 15.8795 7.04236 15.1399 7.48992 14.4692C7.65615 14.2203 7.62326 13.8888 7.4117 13.6772L6.91035 13.1759L7.90593 12.1803L8.40727 12.6816C8.61883 12.8932 8.9504 12.9261 9.19929 12.7599C9.86953 12.3127 10.6091 12.0061 11.3971 11.8487C11.6905 11.7901 11.902 11.5327 11.902 11.2332V10.5247H13.3096V11.2332C13.3096 11.5323 13.5207 11.7901 13.8145 11.8487C14.6025 12.0056 15.3416 12.3123 16.0123 12.7599C16.2612 12.9261 16.5928 12.8932 16.8043 12.6816L17.3057 12.1803L18.3013 13.1759L17.7999 13.6772C17.5884 13.8888 17.5555 14.2203 17.7217 14.4692C18.1693 15.1395 18.4755 15.879 18.6328 16.6671C18.6915 16.9604 18.9488 17.172 19.2484 17.172H19.9569L19.956 18.5795ZM15.0994 29.2531H10.0718C9.72508 29.2531 9.44419 29.534 9.44419 29.8807V38.4684C9.44419 38.8151 9.72508 39.096 10.0718 39.096H15.0994C15.4461 39.096 15.727 38.8151 15.727 38.4684V29.8807C15.727 29.534 15.4461 29.2531 15.0994 29.2531ZM14.4718 37.8413H10.6993V30.5082H14.4718V37.8413ZM43.7427 16.2684L39.7724 12.0145C39.5537 11.7803 39.2448 11.6461 38.9244 11.6461C38.6039 11.6461 38.295 11.7803 38.0764 12.0145L34.106 16.2684C33.8465 16.5466 33.7767 16.952 33.9283 17.3008C34.0798 17.6497 34.4238 17.8751 34.8043 17.8751H35.783V38.4684C35.783 38.8151 36.0639 39.096 36.4105 39.096H41.4382C41.7849 39.096 42.0658 38.8151 42.0658 38.4684V17.8751H43.0445C43.4249 17.8751 43.7689 17.6497 43.9205 17.3008C44.072 16.952 44.0023 16.5466 43.7427 16.2684ZM41.4382 16.6204C41.0915 16.6204 40.8106 16.9013 40.8106 17.248V37.8413H37.0381V17.2475C37.0381 16.9008 36.7572 16.6199 36.4105 16.6199H35.4945L38.9244 12.9452L42.3542 16.6199L41.4382 16.6204ZM23.8792 26.3175C23.8792 26.3175 19.1982 26.3175 18.8515 26.3175C18.5048 26.3175 18.2239 26.5983 18.2239 26.945V38.4684C18.2239 38.8151 18.5048 39.096 18.8515 39.096H23.8792C24.2258 39.096 24.5067 38.8151 24.5067 38.4684V26.945C24.5063 26.5983 24.2254 26.3175 23.8792 26.3175ZM23.2516 37.8413H19.4791V27.5726H23.2516V37.8413ZM32.6585 20.0485H27.6308C27.2841 20.0485 27.0032 20.3294 27.0032 20.676V38.4684C27.0032 38.8151 27.2841 39.096 27.6308 39.096H32.6585C33.0051 39.096 33.286 38.8151 33.286 38.4684V20.676C33.286 20.3294 33.0051 20.0485 32.6585 20.0485ZM32.0309 37.8413H28.2584V21.3032H32.0309V37.8413ZM12.6051 13.1136C9.97931 13.1136 7.84282 15.2501 7.84282 17.876C7.84282 20.5018 9.97931 22.6383 12.6051 22.6383C15.231 22.6383 17.3675 20.5018 17.3675 17.876C17.3675 15.2497 15.231 13.1136 12.6051 13.1136ZM12.6051 21.3832C10.6713 21.3832 9.09796 19.8098 9.09796 17.876C9.09796 15.9422 10.6713 14.3688 12.6051 14.3688C14.539 14.3688 16.1123 15.9422 16.1123 17.876C16.1123 19.8098 14.539 21.3832 12.6051 21.3832Z" stroke="#533BE4" stroke-width="0.4" mask="url(#path-1-outside-1_281_435)"/>
</svg>
