<svg width="24" height="24" viewBox="0 0 24 24" fill="none" xmlns="http://www.w3.org/2000/svg">
<path fill-rule="evenodd" clip-rule="evenodd" d="M11.9834 0.958274C8.27515 0.925915 4.93801 2.81443 3.45351 4.43227V4.43356C2.66265 5.29305 2.3287 6.07095 2.21349 6.92653C2.0944 7.81448 2.20443 8.80078 2.35457 10.1107C2.38435 10.3735 2.19537 10.6103 1.93262 10.6414C1.66986 10.6712 1.43299 10.4822 1.40191 10.2195L1.39544 10.1625C1.25306 8.91086 1.1275 7.81452 1.26341 6.79986C1.40709 5.73718 1.83295 4.77931 2.74808 3.78523C4.40101 1.98216 7.99022 -0.0330517 11.9874 0.0004158C15.9843 -0.0332373 19.574 1.98212 21.2268 3.78523C22.1419 4.77931 22.5678 5.73585 22.7102 6.79856C22.8474 7.81336 22.7218 8.9097 22.5794 10.1612L22.5717 10.2195C22.5419 10.4822 22.305 10.6712 22.0422 10.6414C21.7782 10.6104 21.5905 10.3735 21.6203 10.1107C21.7704 8.79952 21.8805 7.81448 21.7614 6.92653C21.6449 6.07095 21.3122 5.29302 20.5214 4.43356V4.43227C19.0367 2.8143 15.6984 0.925801 11.9914 0.958274H11.9834Z" fill="black"/>
<path fill-rule="evenodd" clip-rule="evenodd" d="M21.4705 10.4475C21.5287 10.1899 21.785 10.0281 22.0439 10.0864L22.2005 10.1213C23.4483 10.41 24.2275 11.6564 23.9402 12.9055L23.1195 16.4534C22.8762 17.5083 21.9494 18.2241 20.9178 18.25C20.6525 18.2565 20.4337 18.0481 20.4259 17.7827C20.4195 17.5187 20.6291 17.2986 20.8932 17.2921C21.5003 17.2766 22.0439 16.8546 22.1863 16.2385L23.0056 12.6906C23.1739 11.9567 22.717 11.2254 21.9857 11.0558L21.8316 11.0209C21.5728 10.9626 21.4109 10.7051 21.4705 10.4475Z" fill="black"/>
<path fill-rule="evenodd" clip-rule="evenodd" d="M20.4262 9.85547C20.5336 9.78816 20.6643 9.76615 20.7886 9.79592L22.0455 10.0859C22.3031 10.1454 22.4635 10.403 22.404 10.6606C22.3445 10.9195 22.0869 11.08 21.8293 11.0204L21.0397 10.8366L19.6068 17.0407L20.5492 17.2581H20.5505C20.6618 17.284 20.777 17.2944 20.8948 17.2918C21.1601 17.2853 21.3789 17.4963 21.3841 17.7604C21.3905 18.0244 21.1796 18.2445 20.9155 18.2497C20.7304 18.2535 20.5363 18.238 20.3382 18.1927H20.3356L18.9234 17.8665C18.8005 17.838 18.693 17.7617 18.6257 17.6542C18.5584 17.5455 18.5364 17.4161 18.5649 17.2918L20.2127 10.1546C20.2424 10.0303 20.3187 9.92277 20.4262 9.85547Z" fill="black"/>
<path fill-rule="evenodd" clip-rule="evenodd" d="M9.6203 19.1377C10.1044 18.3288 10.9755 17.833 11.9204 17.833H12.0434C12.987 17.833 13.8594 18.3288 14.3422 19.1377C14.847 19.9817 14.847 21.034 14.3422 21.8792C13.8581 22.6882 12.987 23.184 12.0434 23.184H11.9204C10.9768 23.184 10.1031 22.6882 9.6203 21.8792C9.1155 21.0353 9.1168 19.9829 9.6203 19.139V19.1377ZM10.4435 19.6296C10.1199 20.172 10.1199 20.8476 10.4435 21.3874C10.7529 21.9077 11.3134 22.2261 11.9204 22.2261H12.0434C12.6491 22.2261 13.2083 21.9077 13.5203 21.3874C13.8439 20.8451 13.8426 20.1694 13.5203 19.6296H13.519C13.2096 19.1106 12.6491 18.7909 12.0434 18.7909H11.9204C11.3146 18.7909 10.7542 19.1093 10.4435 19.6296Z" fill="black"/>
<path fill-rule="evenodd" clip-rule="evenodd" d="M8.03766 6.8295C9.08092 6.07098 10.5009 5.61536 12.0478 5.61536C13.5933 5.61536 15.0132 6.07098 16.0566 6.8295C17.1012 7.58931 17.7988 8.67916 17.7988 9.92826C17.7988 11.1774 17.1012 12.2672 16.0566 13.027C15.0134 13.7855 13.5934 14.2412 12.0478 14.2412C11.6025 14.2412 11.1676 14.2036 10.7508 14.1311L8.74323 15.6611C8.58402 15.7828 8.36657 15.7918 8.19701 15.6844C8.02745 15.5783 7.94202 15.3776 7.98344 15.1809L8.3886 13.2613C7.14987 12.4963 6.29688 11.3133 6.29688 9.92815C6.29688 8.67909 6.99311 7.58931 8.03766 6.8295ZM8.60071 7.60482C7.73735 8.23387 7.25455 9.06099 7.25455 9.92823C7.25455 10.965 7.95094 11.9526 9.15471 12.5972C9.3424 12.6969 9.44207 12.9092 9.39806 13.1176L9.18707 14.1181L10.3404 13.2406C10.4491 13.1564 10.5902 13.1241 10.7248 13.1512C11.1442 13.2367 11.5882 13.2833 12.0477 13.2833C13.4133 13.2833 14.63 12.8794 15.4932 12.2516C16.3565 11.6226 16.8393 10.7955 16.8393 9.92823C16.8393 9.06099 16.3565 8.23388 15.4932 7.60482C14.6298 6.97706 13.4131 6.57319 12.0477 6.57319C10.6808 6.57319 9.46394 6.97705 8.60071 7.60482Z" fill="black"/>
<path d="M10.2115 10.6466C10.5209 10.6466 10.7707 10.3968 10.7707 10.0874C10.7707 9.77937 10.5209 9.52826 10.2115 9.52826C9.90216 9.52826 9.65234 9.77937 9.65234 10.0874C9.65234 10.3968 9.90216 10.6466 10.2115 10.6466Z" fill="black"/>
<path d="M12.0494 10.6466C12.3575 10.6466 12.6086 10.3968 12.6086 10.0874C12.6086 9.77937 12.3575 9.52826 12.0494 9.52826C11.7401 9.52826 11.4902 9.77937 11.4902 10.0874C11.4902 10.3968 11.7401 10.6466 12.0494 10.6466Z" fill="black"/>
<path d="M13.8853 10.6466C14.1934 10.6466 14.4445 10.3968 14.4445 10.0874C14.4445 9.77937 14.1934 9.52826 13.8853 9.52826C13.576 9.52826 13.3262 9.77937 13.3262 10.0874C13.3262 10.3968 13.576 10.6466 13.8853 10.6466Z" fill="black"/>
<path fill-rule="evenodd" clip-rule="evenodd" d="M20.4351 17.5197C20.6965 17.5637 20.8726 17.8096 20.8286 18.0711L20.3561 17.9921C20.8286 18.0711 20.8286 18.0724 20.8286 18.0724V18.0737L20.8273 18.0789L20.8247 18.0931C20.8234 18.1048 20.8195 18.1216 20.8156 18.141C20.8079 18.1811 20.7949 18.2368 20.7768 18.3054C20.7419 18.4439 20.6862 18.6342 20.5995 18.8581C20.4299 19.3021 20.1387 19.8858 19.6546 20.4243C19.1679 20.9666 18.487 21.4598 17.5551 21.7135C16.6244 21.9672 15.475 21.975 14.0576 21.5983C13.8013 21.5297 13.6498 21.2669 13.7172 21.012C13.7858 20.7557 14.0485 20.6029 14.3035 20.6716C15.5927 21.0146 16.5674 20.99 17.3026 20.7893C18.0352 20.59 18.5607 20.2069 18.9413 19.7836C19.3257 19.3564 19.5626 18.884 19.705 18.5138C19.7761 18.33 19.8215 18.1747 19.8486 18.0672C19.8629 18.0142 19.8719 17.9727 19.8771 17.9456C19.8797 17.9326 19.8823 17.9236 19.8836 17.9171V17.9132C19.9276 17.6517 20.1749 17.4757 20.4351 17.5197Z" fill="black"/>
<path fill-rule="evenodd" clip-rule="evenodd" d="M3.20962 9.62409C3.4685 9.56455 3.72479 9.72635 3.78433 9.98392L5.43339 17.1211C5.46186 17.2454 5.43986 17.3748 5.37255 17.4836C5.30525 17.591 5.19781 17.6674 5.07484 17.6958L3.66268 18.022C2.4149 18.3094 1.16842 17.5327 0.87848 16.285L0.0591228 12.8988V12.8936C-0.220464 11.6834 0.513453 10.2466 1.79748 9.95018L3.20962 9.62409ZM2.95851 10.6661L2.0136 10.8848C1.3185 11.0453 0.81629 11.9061 0.992343 12.6762L1.81041 16.0624L1.8117 16.0676C1.98127 16.7989 2.7139 17.2571 3.44651 17.0875L4.39142 16.8701L2.95851 10.6661Z" fill="black"/>
</svg>
