<svg width="1920" height="1312" viewBox="0 0 1920 1312" fill="none" xmlns="http://www.w3.org/2000/svg">
<g clip-path="url(#clip0_771_2690)">
<rect width="1920" height="1312" fill="url(#paint0_linear_771_2690)"/>
<g opacity="0.1">
<g opacity="0.44">
<path opacity="0.44" d="M202.249 1069.79L89 935.819L1011.1 156.385L1124.35 290.374L202.249 1069.79Z" fill="url(#paint1_radial_771_2690)" fill-opacity="0.3"/>
<path opacity="0.44" d="M996.546 1026.96L903.441 916.821L1646.9 288.4L1740 398.529L996.546 1026.96Z" fill="url(#paint2_radial_771_2690)" fill-opacity="0.3"/>
<path opacity="0.44" d="M379.012 581.151L342.699 538.191L696.002 239.561L732.315 282.521L379.012 581.151Z" fill="url(#paint3_radial_771_2690)" fill-opacity="0.3"/>
<path opacity="0.44" d="M588.669 1250.04L516.871 1165.09L943.481 804.5L1015.27 889.433L588.669 1250.04Z" fill="url(#paint4_radial_771_2690)" fill-opacity="0.3"/>
<path opacity="0.44" d="M745.567 938.546L664.117 842.191L1250.77 346.293L1332.22 442.648L745.567 938.546Z" fill="url(#paint5_radial_771_2690)" fill-opacity="0.3"/>
<path opacity="0.44" d="M243.539 1276.76L137.285 1151.04L675.954 695.723L782.208 821.424L243.539 1276.76Z" fill="url(#paint6_radial_771_2690)" fill-opacity="0.3"/>
<path opacity="0.44" d="M1004.38 1421.12L964.789 1374.27L1287.21 1101.74L1326.81 1148.59L1004.38 1421.12Z" fill="url(#paint7_radial_771_2690)" fill-opacity="0.3"/>
<path opacity="0.44" d="M945.831 1259.35L884.816 1187.16L1381.66 767.186L1442.69 839.376L945.831 1259.35Z" fill="url(#paint8_radial_771_2690)" fill-opacity="0.3"/>
</g>
<g opacity="0.11">
<path opacity="0.11" d="M730.239 878.418C786.741 878.418 832.545 832.614 832.545 776.112C832.545 719.611 786.741 673.807 730.239 673.807C673.737 673.807 627.934 719.611 627.934 776.112C627.934 832.614 673.737 878.418 730.239 878.418Z" fill="url(#paint9_linear_771_2690)" fill-opacity="0.3"/>
<path opacity="0.11" d="M843.618 1304.11C956.437 1304.11 1047.9 1212.66 1047.9 1099.84C1047.9 987.017 956.437 895.559 843.618 895.559C730.798 895.559 639.34 987.017 639.34 1099.84C639.34 1212.66 730.798 1304.11 843.618 1304.11Z" fill="url(#paint10_linear_771_2690)" fill-opacity="0.3"/>
<path opacity="0.11" d="M904.069 660.729C1089.84 660.729 1240.43 510.133 1240.43 324.363C1240.43 138.594 1089.84 -12.002 904.069 -12.002C718.299 -12.002 567.703 138.594 567.703 324.363C567.703 510.133 718.299 660.729 904.069 660.729Z" fill="url(#paint11_linear_771_2690)" fill-opacity="0.3"/>
<path opacity="0.11" d="M1385.1 1108.43C1520.27 1108.43 1629.86 998.847 1629.86 863.672C1629.86 728.497 1520.27 618.916 1385.1 618.916C1249.92 618.916 1140.34 728.497 1140.34 863.672C1140.34 998.847 1249.92 1108.43 1385.1 1108.43Z" fill="url(#paint12_linear_771_2690)" fill-opacity="0.3"/>
<path opacity="0.11" d="M305.485 818.085C381.064 818.085 442.333 756.816 442.333 681.237C442.333 605.658 381.064 544.389 305.485 544.389C229.906 544.389 168.637 605.658 168.637 681.237C168.637 756.816 229.906 818.085 305.485 818.085Z" fill="url(#paint13_linear_771_2690)" fill-opacity="0.3"/>
</g>
<g opacity="0.72">
<g opacity="0.72">
<path opacity="0.72" d="M847.448 250.012L639.774 435.19L636.871 431.924L844.531 246.746L847.448 250.012ZM851.961 255.077L644.302 440.255L647.205 443.52L854.864 258.342L851.961 255.077ZM859.392 263.408L651.718 448.586L654.621 451.851L862.295 266.659L859.392 263.408ZM866.809 271.738L659.149 456.916L662.052 460.182L869.711 275.004L866.809 271.738ZM874.24 280.055L666.58 465.233L669.483 468.498L877.142 283.32L874.24 280.055ZM881.671 288.385L673.997 473.563L676.899 476.829L884.559 291.651L881.671 288.385ZM889.087 296.716L681.428 481.894L684.33 485.16L891.99 299.982L889.087 296.716ZM896.518 305.047L688.859 490.225L691.761 493.49L899.421 308.312L896.518 305.047ZM903.949 313.378L696.289 498.556L699.192 501.821L906.852 316.643L903.949 313.378ZM911.365 321.694L703.706 506.872L706.609 510.137L914.268 324.959L911.365 321.694ZM918.796 330.025L711.137 515.203L714.039 518.468L921.699 333.29L918.796 330.025ZM926.227 338.355L718.568 523.533L721.47 526.799L929.13 341.621L926.227 338.355ZM933.643 346.686L725.984 531.864L728.887 535.13L936.546 349.952L933.643 346.686ZM941.075 355.017L733.415 540.195L736.318 543.461L943.977 358.283L941.075 355.017ZM948.505 363.333L740.846 548.511L743.749 551.777L951.408 366.599L948.505 363.333ZM955.922 371.664L748.262 556.842L751.165 560.108L958.839 374.93L955.922 371.664ZM963.353 379.995L755.693 565.173L758.596 568.438L966.255 383.26L963.353 379.995ZM970.784 388.325L763.124 573.504L766.027 576.769L973.686 391.591L970.784 388.325ZM978.215 396.656L770.541 581.834L773.443 585.1L981.103 399.922L978.215 396.656ZM985.631 404.972L777.972 590.165L780.874 593.431L988.548 408.238L985.631 404.972ZM993.062 413.303L785.402 598.481L788.305 601.747L995.965 416.569L993.062 413.303ZM1000.49 421.634L792.819 606.812L795.722 610.078L1003.38 424.9L1000.49 421.634ZM1007.91 429.965L800.25 615.143L803.152 618.408L1010.81 433.23L1007.91 429.965Z" fill="white" fill-opacity="0.3"/>
</g>
<g opacity="0.72">
<path opacity="0.72" d="M494.508 706.723L341.942 842.773L339.809 840.378L492.375 704.328L494.508 706.723ZM497.832 710.453L345.266 846.503L347.399 848.897L499.965 712.848L497.832 710.453ZM503.289 716.563L350.723 852.613L352.856 855.007L505.422 718.958L503.289 716.563ZM508.746 722.688L356.18 858.737L358.313 861.132L510.879 725.082L508.746 722.688ZM514.203 728.812L361.637 864.862L363.77 867.257L516.337 731.207L514.203 728.812ZM519.66 734.923L367.08 870.972L369.213 873.367L521.779 737.317L519.66 734.923ZM525.117 741.047L372.537 877.097L374.67 879.492L527.236 743.442L525.117 741.047ZM530.56 747.158L377.994 883.207L380.127 885.602L532.693 749.552L530.56 747.158ZM536.017 753.282L383.451 889.332L385.584 891.727L538.15 755.677L536.017 753.282ZM541.474 759.392L388.908 895.442L391.041 897.837L543.607 761.787L541.474 759.392ZM546.931 765.517L394.365 901.567L396.498 903.962L549.079 767.912L546.931 765.517ZM552.388 771.642L399.822 907.692L401.955 910.086L554.522 774.037L552.388 771.642ZM557.845 777.752L405.279 913.802L407.413 916.196L559.979 780.147L557.845 777.752ZM563.302 783.877L410.736 919.926L412.87 922.321L565.436 786.271L563.302 783.877ZM568.759 789.987L416.193 926.037L418.327 928.431L570.893 792.382L568.759 789.987ZM574.216 796.112L421.65 932.161L423.784 934.556L576.35 798.506L574.216 796.112ZM579.674 802.236L427.107 938.286L429.241 940.681L581.807 804.631L579.674 802.236ZM585.131 808.346L432.565 944.396L434.698 946.791L587.264 810.741L585.131 808.346ZM590.588 814.471L438.022 950.521L440.155 952.916L592.721 816.866L590.588 814.471ZM596.045 820.581L443.479 956.631L445.612 959.026L598.178 822.976L596.045 820.581ZM601.502 826.706L448.936 962.756L451.069 965.151L603.635 829.101L601.502 826.706ZM606.959 832.816L454.393 968.866L456.526 971.261L609.092 835.211L606.959 832.816ZM612.416 838.941L459.85 974.991L461.983 977.385L614.55 841.336L612.416 838.941Z" fill="white" fill-opacity="0.3"/>
</g>
<g opacity="0.72">
<path opacity="0.72" d="M374.9 367.601L233.872 493.361L231.898 491.141L372.926 365.381L374.9 367.601ZM377.977 371.041L236.949 496.801L238.923 499.021L379.951 373.262L377.977 371.041ZM383.013 376.701L241.985 502.461L243.959 504.682L384.987 378.922L383.013 376.701ZM388.064 382.347L247.036 508.107L249.01 510.327L390.038 384.568L388.064 382.347ZM393.1 388.007L252.072 513.767L254.046 515.988L395.074 390.228L393.1 388.007ZM398.151 393.668L257.123 519.427L259.097 521.648L400.125 395.888L398.151 393.668ZM403.187 399.328L262.159 525.088L264.133 527.308L405.161 401.549L403.187 399.328ZM408.238 404.974L267.21 530.733L269.184 532.954L410.212 407.194L408.238 404.974ZM413.274 410.634L272.246 536.394L274.22 538.614L415.248 412.855L413.274 410.634ZM418.325 416.294L277.297 542.054L279.271 544.275L420.298 418.515L418.325 416.294ZM423.361 421.94L282.333 547.7L284.307 549.92L425.335 424.161L423.361 421.94ZM428.411 427.6L287.384 553.36L289.357 555.581L430.385 429.821L428.411 427.6ZM433.448 433.261L292.42 559.02L294.394 561.241L435.422 435.481L433.448 433.261ZM438.498 438.906L297.471 564.666L299.444 566.887L440.472 441.127L438.498 438.906ZM443.535 444.567L302.507 570.326L304.481 572.547L445.508 446.787L443.535 444.567ZM448.585 450.227L307.557 575.987L309.531 578.207L450.559 452.433L448.585 450.227ZM453.636 455.873L312.608 581.632L314.582 583.853L455.61 458.093L453.636 455.873ZM458.672 461.533L317.644 587.293L319.618 589.513L460.646 463.753L458.672 461.533ZM463.723 467.193L322.695 592.953L324.669 595.173L465.697 469.414L463.723 467.193ZM468.759 472.853L327.731 598.613L329.705 600.834L470.733 475.074L468.759 472.853ZM473.81 478.499L332.782 604.259L334.756 606.479L475.784 480.72L473.81 478.499ZM478.846 484.159L337.818 609.919L339.792 612.14L480.82 486.38L478.846 484.159ZM483.897 489.82L342.869 615.579L344.843 617.8L485.871 492.04L483.897 489.82Z" fill="white" fill-opacity="0.3"/>
</g>
<g opacity="0.72">
<path opacity="0.72" d="M776.734 736.099L683.209 819.508L681.902 818.042L775.427 734.633L776.734 736.099ZM778.766 738.377L685.24 821.786L686.547 823.252L780.072 739.843L778.766 738.377ZM782.104 742.122L688.579 825.531L689.885 826.997L783.41 743.588L782.104 742.122ZM785.456 745.881L691.931 829.29L693.237 830.756L786.763 747.347L785.456 745.881ZM788.794 749.625L695.269 833.034L696.576 834.5L790.101 751.091L788.794 749.625ZM792.147 753.384L698.622 836.794L699.928 838.259L793.453 754.85L792.147 753.384ZM795.485 757.129L701.96 840.538L703.266 842.004L796.791 758.595L795.485 757.129ZM798.838 760.888L705.313 844.297L706.619 845.763L800.144 762.354L798.838 760.888ZM802.176 764.632L708.651 848.041L709.957 849.507L803.482 766.098L802.176 764.632ZM805.529 768.391L712.003 851.8L713.31 853.266L806.835 769.857L805.529 768.391ZM808.867 772.136L715.342 855.545L716.648 857.011L810.173 773.602L808.867 772.136ZM812.219 775.88L718.694 859.289L720 860.755L813.525 777.346L812.219 775.88ZM815.557 779.639L722.032 863.048L723.338 864.514L816.864 781.105L815.557 779.639ZM818.91 783.384L725.385 866.793L726.691 868.259L820.216 784.85L818.91 783.384ZM822.248 787.143L728.723 870.552L730.029 872.018L823.554 788.609L822.248 787.143ZM825.586 790.887L732.061 874.296L733.367 875.762L826.892 792.353L825.586 790.887ZM828.939 794.646L735.414 878.055L736.72 879.521L830.245 796.112L828.939 794.646ZM832.277 798.391L738.752 881.8L740.058 883.266L833.583 799.857L832.277 798.391ZM835.63 802.15L742.104 885.559L743.411 887.025L836.936 803.616L835.63 802.15ZM838.968 805.894L745.443 889.303L746.749 890.769L840.274 807.36L838.968 805.894ZM842.32 809.639L748.795 893.048L750.101 894.514L843.627 811.105L842.32 809.639ZM845.658 813.398L752.133 896.807L753.439 898.273L846.965 814.864L845.658 813.398ZM849.011 817.142L755.486 900.551L756.792 902.017L850.317 818.608L849.011 817.142Z" fill="white" fill-opacity="0.3"/>
</g>
<g opacity="0.72">
<path opacity="0.72" d="M599.472 1019.39L505.947 1102.8L504.641 1101.33L598.166 1017.92L599.472 1019.39ZM601.518 1021.67L507.993 1105.08L509.299 1106.54L602.825 1023.13L601.518 1021.67ZM604.856 1025.41L511.331 1108.82L512.638 1110.29L606.163 1026.88L604.856 1025.41ZM608.209 1029.17L514.684 1112.58L515.99 1114.04L609.515 1030.64L608.209 1029.17ZM611.547 1032.91L518.022 1116.32L519.328 1117.79L612.853 1034.38L611.547 1032.91ZM614.9 1036.67L521.375 1120.08L522.681 1121.55L616.206 1038.14L614.9 1036.67ZM618.238 1040.42L524.713 1123.83L526.019 1125.29L619.544 1041.88L618.238 1040.42ZM621.576 1044.18L528.051 1127.59L529.357 1129.05L622.882 1045.64L621.576 1044.18ZM624.929 1047.92L531.404 1131.33L532.71 1132.8L626.235 1049.39L624.929 1047.92ZM628.267 1051.67L534.742 1135.07L536.048 1136.54L629.573 1053.13L628.267 1051.67ZM631.619 1055.42L538.094 1138.83L539.4 1140.3L632.926 1056.89L631.619 1055.42ZM634.958 1059.17L541.432 1142.58L542.739 1144.04L636.264 1060.64L634.958 1059.17ZM638.31 1062.93L544.785 1146.34L546.091 1147.8L639.616 1064.39L638.31 1062.93ZM641.648 1066.67L548.123 1150.08L549.429 1151.55L642.954 1068.14L641.648 1066.67ZM645.001 1070.43L551.476 1153.84L552.782 1155.31L646.307 1071.9L645.001 1070.43ZM648.339 1074.18L554.814 1157.59L556.12 1159.05L649.645 1075.64L648.339 1074.18ZM651.692 1077.94L558.166 1161.34L559.473 1162.81L652.998 1079.4L651.692 1077.94ZM655.03 1081.68L561.505 1165.09L562.811 1166.55L656.336 1083.15L655.03 1081.68ZM658.382 1085.42L564.857 1168.83L566.163 1170.3L659.689 1086.89L658.382 1085.42ZM661.72 1089.18L568.195 1172.59L569.502 1174.06L663.027 1090.65L661.72 1089.18ZM665.059 1092.93L571.533 1176.34L572.84 1177.8L666.365 1094.39L665.059 1092.93ZM668.411 1096.69L574.886 1180.1L576.192 1181.56L669.717 1098.15L668.411 1096.69ZM671.749 1100.43L578.224 1183.84L579.53 1185.31L673.056 1101.9L671.749 1100.43Z" fill="white" fill-opacity="0.3"/>
</g>
<g opacity="0.72">
<path opacity="0.72" d="M1415.14 716.578L1274.11 842.338L1272.14 840.117L1413.17 714.357L1415.14 716.578ZM1418.2 720.018L1277.18 845.777L1279.15 847.998L1420.18 722.238L1418.2 720.018ZM1423.26 725.678L1282.23 851.438L1284.2 853.658L1425.23 727.899L1423.26 725.678ZM1428.29 731.338L1287.26 857.098L1289.24 859.318L1430.27 733.559L1428.29 731.338ZM1433.34 736.984L1292.31 862.744L1294.29 864.964L1435.32 739.205L1433.34 736.984ZM1438.38 742.644L1297.35 868.404L1299.32 870.624L1440.35 744.865L1438.38 742.644ZM1443.43 748.305L1302.4 874.064L1304.38 876.285L1445.4 750.525L1443.43 748.305ZM1448.47 753.965L1307.44 879.724L1309.41 881.945L1450.44 756.185L1448.47 753.965ZM1453.52 759.611L1312.49 885.37L1314.46 887.591L1455.49 761.831L1453.52 759.611ZM1458.55 765.271L1317.52 891.031L1319.5 893.251L1460.53 767.491L1458.55 765.271ZM1463.6 770.931L1322.58 896.691L1324.55 898.911L1465.58 773.152L1463.6 770.931ZM1468.64 776.577L1327.61 902.351L1329.59 904.572L1470.61 778.812L1468.64 776.577ZM1473.69 782.237L1332.66 907.997L1334.64 910.217L1475.66 784.458L1473.69 782.237ZM1478.73 787.897L1337.7 913.657L1339.67 915.878L1480.7 790.118L1478.73 787.897ZM1483.78 793.543L1342.75 919.303L1344.72 921.523L1485.75 795.764L1483.78 793.543ZM1488.81 799.203L1347.79 924.963L1349.76 927.184L1490.79 801.424L1488.81 799.203ZM1493.86 804.864L1352.84 930.623L1354.81 932.844L1495.84 807.084L1493.86 804.864ZM1498.9 810.524L1357.87 936.284L1359.85 938.504L1500.87 812.745L1498.9 810.524ZM1503.95 816.17L1362.92 941.929L1364.9 944.15L1505.92 818.39L1503.95 816.17ZM1508.99 821.83L1367.96 947.59L1369.93 949.81L1510.96 824.051L1508.99 821.83ZM1514.04 827.49L1373.01 953.25L1374.98 955.47L1516.01 829.711L1514.04 827.49ZM1519.07 833.136L1378.05 958.896L1380.02 961.116L1521.05 835.357L1519.07 833.136ZM1524.12 838.796L1383.1 964.556L1385.07 966.777L1526.1 841.017L1524.12 838.796Z" fill="white" fill-opacity="0.3"/>
</g>
</g>
<path d="M357.99 1234.64C493.165 1234.64 602.746 1125.06 602.746 989.889C602.746 854.714 493.165 745.133 357.99 745.133C222.815 745.133 113.234 854.714 113.234 989.889C113.234 1125.06 222.815 1234.64 357.99 1234.64Z" fill="url(#paint14_linear_771_2690)" fill-opacity="0.3"/>
<path d="M1398.68 1159.33C1474.26 1159.33 1535.53 1098.07 1535.53 1022.49C1535.53 946.908 1474.26 885.639 1398.68 885.639C1323.1 885.639 1261.83 946.908 1261.83 1022.49C1261.83 1098.07 1323.1 1159.33 1398.68 1159.33Z" fill="url(#paint15_linear_771_2690)" fill-opacity="0.3"/>
<g opacity="0.68">
<path opacity="0.68" d="M638.367 523.418L537.223 609.033" stroke="white" stroke-opacity="0.3" stroke-width="2" stroke-miterlimit="10" stroke-linecap="round"/>
<path opacity="0.68" d="M371.158 640.979L270.027 726.594" stroke="white" stroke-opacity="0.3" stroke-width="2" stroke-miterlimit="10" stroke-linecap="round"/>
<path opacity="0.68" d="M657.469 273.902L556.324 359.532" stroke="white" stroke-opacity="0.3" stroke-width="2" stroke-miterlimit="10" stroke-linecap="round"/>
<path opacity="0.68" d="M926.458 567.641L825.328 653.256" stroke="white" stroke-opacity="0.3" stroke-width="2" stroke-miterlimit="10" stroke-linecap="round"/>
<path opacity="0.68" d="M911.121 788.596L809.977 874.211" stroke="white" stroke-opacity="0.3" stroke-width="2" stroke-miterlimit="10" stroke-linecap="round"/>
<path opacity="0.68" d="M1294.68 899.508L1193.54 985.138" stroke="white" stroke-opacity="0.3" stroke-width="2" stroke-miterlimit="10" stroke-linecap="round"/>
<path opacity="0.68" d="M1304.71 493.275L1203.56 578.891" stroke="white" stroke-opacity="0.3" stroke-width="2" stroke-miterlimit="10" stroke-linecap="round"/>
<path opacity="0.68" d="M1329.01 696.377L1227.88 781.992" stroke="white" stroke-opacity="0.3" stroke-width="2" stroke-miterlimit="10" stroke-linecap="round"/>
<path opacity="0.68" d="M1249.82 1186.03L1148.69 1271.66" stroke="white" stroke-opacity="0.3" stroke-width="2" stroke-miterlimit="10" stroke-linecap="round"/>
<path opacity="0.68" d="M562.794 791.396L461.664 877.012" stroke="white" stroke-opacity="0.3" stroke-width="2" stroke-miterlimit="10" stroke-linecap="round"/>
<path opacity="0.68" d="M935.185 1061.09L834.055 1146.7" stroke="white" stroke-opacity="0.3" stroke-width="2" stroke-miterlimit="10" stroke-linecap="round"/>
</g>
<path d="M729.165 728.261C705.566 728.261 686.379 709.06 686.379 685.475C686.379 661.891 705.58 642.689 729.165 642.689C752.764 642.689 771.951 661.891 771.951 685.475C771.951 709.06 752.749 728.261 729.165 728.261ZM729.165 644.315C706.48 644.315 688.019 662.776 688.019 685.461C688.019 708.145 706.48 726.607 729.165 726.607C751.849 726.607 770.311 708.145 770.311 685.461C770.311 662.776 751.849 644.315 729.165 644.315Z" fill="url(#paint16_linear_771_2690)" fill-opacity="0.3"/>
<path d="M1816.27 360.537C1774.21 360.537 1740 326.329 1740 284.269C1740 242.208 1774.22 208 1816.27 208C1858.31 208 1892.54 242.223 1892.54 284.269C1892.54 326.314 1858.33 360.537 1816.27 360.537ZM1816.27 210.917C1775.82 210.917 1742.92 243.819 1742.92 284.269C1742.92 324.718 1775.82 357.62 1816.27 357.62C1856.72 357.62 1889.62 324.718 1889.62 284.269C1889.62 243.819 1856.72 210.917 1816.27 210.917Z" fill="url(#paint17_linear_771_2690)" fill-opacity="0.3"/>
<path d="M606.19 502.401C554.884 502.401 513.129 460.66 513.129 409.34C513.129 358.02 554.87 316.279 606.19 316.279C657.495 316.279 699.25 358.02 699.25 409.34C699.25 460.66 657.495 502.401 606.19 502.401ZM606.19 319.864C556.844 319.864 516.699 360.009 516.699 409.355C516.699 458.7 556.844 498.845 606.19 498.845C655.536 498.845 695.68 458.7 695.68 409.355C695.68 360.009 655.536 319.864 606.19 319.864Z" fill="url(#paint18_linear_771_2690)" fill-opacity="0.3"/>
<path d="M625.026 1126.02C561.848 1126.02 510.441 1074.62 510.441 1011.45C510.441 948.27 561.834 896.863 625.026 896.863C688.217 896.863 739.595 948.256 739.595 1011.45C739.61 1074.61 688.203 1126.02 625.026 1126.02ZM625.026 901.246C564.272 901.246 514.839 950.679 514.839 1011.43C514.839 1072.19 564.272 1121.62 625.026 1121.62C685.779 1121.62 735.212 1072.19 735.212 1011.43C735.212 950.679 685.779 901.246 625.026 901.246Z" fill="url(#paint19_linear_771_2690)" fill-opacity="0.3"/>
<path d="M1074.49 1038.44C1050.89 1038.44 1031.7 1019.24 1031.7 995.657C1031.7 972.058 1050.9 952.871 1074.49 952.871C1098.07 952.871 1117.27 972.072 1117.27 995.657C1117.27 1019.24 1098.08 1038.44 1074.49 1038.44ZM1074.49 954.511C1051.8 954.511 1033.34 972.972 1033.34 995.657C1033.34 1018.34 1051.8 1036.8 1074.49 1036.8C1097.17 1036.8 1115.63 1018.34 1115.63 995.657C1115.63 972.972 1097.17 954.511 1074.49 954.511Z" fill="url(#paint20_linear_771_2690)" fill-opacity="0.3"/>
<path d="M1411.59 1124.02C1387.99 1124.02 1368.8 1104.83 1368.8 1081.23C1368.8 1057.63 1388 1038.44 1411.59 1038.44C1435.19 1038.44 1454.37 1057.64 1454.37 1081.23C1454.37 1104.83 1435.17 1124.02 1411.59 1124.02ZM1411.59 1040.08C1388.9 1040.08 1370.44 1058.54 1370.44 1081.23C1370.44 1103.91 1388.9 1122.37 1411.59 1122.37C1434.27 1122.37 1452.73 1103.91 1452.73 1081.23C1452.73 1058.54 1434.27 1040.08 1411.59 1040.08Z" fill="url(#paint21_linear_771_2690)" fill-opacity="0.3"/>
<path d="M1195.25 532.894C1171.65 532.894 1152.46 513.693 1152.46 490.108C1152.46 466.524 1171.66 447.322 1195.25 447.322C1218.83 447.322 1238.03 466.524 1238.03 490.108C1238.03 513.693 1218.85 532.894 1195.25 532.894ZM1195.25 448.962C1172.56 448.962 1154.1 467.423 1154.1 490.108C1154.1 512.793 1172.56 531.254 1195.25 531.254C1217.93 531.254 1236.39 512.793 1236.39 490.108C1236.39 467.409 1217.95 448.962 1195.25 448.962Z" fill="url(#paint22_linear_771_2690)" fill-opacity="0.3"/>
<path d="M1233.92 767.476C1217.68 767.476 1204.48 754.269 1204.48 738.028C1204.48 721.787 1217.68 708.58 1233.92 708.58C1250.17 708.58 1263.37 721.787 1263.37 738.028C1263.37 754.269 1250.17 767.476 1233.92 767.476ZM1233.92 709.712C1218.31 709.712 1205.61 722.412 1205.61 738.028C1205.61 753.645 1218.31 766.344 1233.92 766.344C1249.54 766.344 1262.24 753.645 1262.24 738.028C1262.24 722.412 1249.54 709.712 1233.92 709.712Z" fill="url(#paint23_linear_771_2690)" fill-opacity="0.3"/>
<path d="M907.749 497.728C891.508 497.728 878.301 484.521 878.301 468.28C878.301 452.039 891.508 438.832 907.749 438.832C923.989 438.832 937.197 452.039 937.197 468.28C937.197 484.521 923.989 497.728 907.749 497.728ZM907.749 439.979C892.132 439.979 879.433 452.678 879.433 468.294C879.433 483.911 892.132 496.61 907.749 496.61C923.365 496.61 936.065 483.911 936.065 468.294C936.065 452.678 923.365 439.979 907.749 439.979Z" fill="url(#paint24_linear_771_2690)" fill-opacity="0.3"/>
<path d="M469.327 798.216C453.086 798.216 439.879 785.009 439.879 768.768C439.879 752.528 453.086 739.32 469.327 739.32C485.567 739.32 498.775 752.528 498.775 768.768C498.775 785.009 485.567 798.216 469.327 798.216ZM469.327 740.452C453.71 740.452 441.011 753.152 441.011 768.768C441.011 784.385 453.71 797.084 469.327 797.084C484.943 797.084 497.643 784.385 497.643 768.768C497.643 753.166 484.943 740.452 469.327 740.452Z" fill="url(#paint25_linear_771_2690)" fill-opacity="0.3"/>
<path d="M342.089 591.224C325.848 591.224 312.641 578.017 312.641 561.776C312.641 545.535 325.848 532.328 342.089 532.328C358.329 532.328 371.536 545.535 371.536 561.776C371.536 578.017 358.329 591.224 342.089 591.224ZM342.089 533.475C326.472 533.475 313.773 546.174 313.773 561.791C313.773 577.407 326.472 590.106 342.089 590.106C357.705 590.106 370.404 577.407 370.404 561.791C370.404 546.174 357.705 533.475 342.089 533.475Z" fill="url(#paint26_linear_771_2690)" fill-opacity="0.3"/>
<path d="M1444.17 826.546C1401.92 826.546 1367.54 792.178 1367.54 749.915C1367.54 707.666 1401.91 673.283 1444.17 673.283C1486.42 673.283 1520.8 707.651 1520.8 749.915C1520.8 792.178 1486.42 826.546 1444.17 826.546ZM1444.17 676.244C1403.55 676.244 1370.49 709.306 1370.49 749.929C1370.49 790.552 1403.55 823.614 1444.17 823.614C1484.79 823.614 1517.86 790.552 1517.86 749.929C1517.86 709.291 1484.81 676.244 1444.17 676.244Z" fill="url(#paint27_linear_771_2690)" fill-opacity="0.3"/>
<path d="M858.956 939.839C842.715 939.839 829.508 926.632 829.508 910.391C829.508 894.151 842.715 880.943 858.956 880.943C875.196 880.943 888.404 894.151 888.404 910.391C888.404 926.632 875.196 939.839 858.956 939.839ZM858.956 882.075C843.339 882.075 830.64 894.775 830.64 910.391C830.64 926.008 843.339 938.707 858.956 938.707C874.572 938.707 887.272 926.008 887.272 910.391C887.272 894.789 874.572 882.075 858.956 882.075Z" fill="url(#paint28_linear_771_2690)" fill-opacity="0.3"/>
</g>
<path d="M145.654 988.308C143.647 988.308 142 986.68 142 984.654C142 982.647 143.628 981 145.654 981C147.68 981 149.308 982.628 149.308 984.654C149.308 986.661 147.661 988.308 145.654 988.308Z" fill="#0B315E" fill-opacity="0.3"/>
<path d="M180.002 988.308C177.995 988.308 176.348 986.68 176.348 984.654C176.348 982.647 177.976 981 180.002 981C182.009 981 183.656 982.628 183.656 984.654C183.637 986.661 182.009 988.308 180.002 988.308Z" fill="#0B315E" fill-opacity="0.3"/>
<path d="M214.326 988.308C212.319 988.308 210.672 986.68 210.672 984.654C210.672 982.647 212.3 981 214.326 981C216.333 981 217.98 982.628 217.98 984.654C217.98 986.661 216.352 988.308 214.326 988.308Z" fill="#0B315E" fill-opacity="0.3"/>
<path d="M248.674 988.308C246.667 988.308 245.02 986.68 245.02 984.654C245.02 982.647 246.648 981 248.674 981C250.681 981 252.328 982.628 252.328 984.654C252.328 986.661 250.681 988.308 248.674 988.308Z" fill="#0B315E" fill-opacity="0.3"/>
<path d="M283.002 988.308C280.995 988.308 279.348 986.68 279.348 984.654C279.348 982.647 280.976 981 283.002 981C285.009 981 286.656 982.628 286.656 984.654C286.656 986.661 285.028 988.308 283.002 988.308Z" fill="#0B315E" fill-opacity="0.3"/>
<path d="M317.346 988.308C315.339 988.308 313.691 986.68 313.691 984.654C313.691 982.647 315.32 981 317.346 981C319.372 981 321 982.628 321 984.654C321 986.661 319.353 988.308 317.346 988.308Z" fill="#0B315E" fill-opacity="0.3"/>
<path d="M145.654 1019.62C143.647 1019.62 142 1017.99 142 1015.97C142 1013.96 143.628 1012.31 145.654 1012.31C147.68 1012.31 149.308 1013.94 149.308 1015.97C149.308 1017.97 147.661 1019.62 145.654 1019.62Z" fill="#0B315E" fill-opacity="0.3"/>
<path d="M180.002 1019.62C177.995 1019.62 176.348 1017.99 176.348 1015.97C176.348 1013.96 177.976 1012.31 180.002 1012.31C182.009 1012.31 183.656 1013.94 183.656 1015.97C183.637 1017.97 182.009 1019.62 180.002 1019.62Z" fill="#0B315E" fill-opacity="0.3"/>
<path d="M214.326 1019.62C212.319 1019.62 210.672 1017.99 210.672 1015.97C210.672 1013.96 212.3 1012.31 214.326 1012.31C216.333 1012.31 217.98 1013.94 217.98 1015.97C217.98 1017.97 216.352 1019.62 214.326 1019.62Z" fill="#0B315E" fill-opacity="0.3"/>
<path d="M248.674 1019.62C246.667 1019.62 245.02 1017.99 245.02 1015.97C245.02 1013.96 246.648 1012.31 248.674 1012.31C250.681 1012.31 252.328 1013.94 252.328 1015.97C252.328 1017.97 250.681 1019.62 248.674 1019.62Z" fill="#0B315E" fill-opacity="0.3"/>
<path d="M283.002 1019.62C280.995 1019.62 279.348 1017.99 279.348 1015.97C279.348 1013.96 280.976 1012.31 283.002 1012.31C285.009 1012.31 286.656 1013.94 286.656 1015.97C286.656 1017.97 285.028 1019.62 283.002 1019.62Z" fill="#0B315E" fill-opacity="0.3"/>
<path d="M317.346 1019.62C315.339 1019.62 313.691 1017.99 313.691 1015.97C313.691 1013.96 315.32 1012.31 317.346 1012.31C319.372 1012.31 321 1013.94 321 1015.97C321 1017.97 319.353 1019.62 317.346 1019.62Z" fill="#0B315E" fill-opacity="0.3"/>
<path d="M145.654 1050.92C143.647 1050.92 142 1049.3 142 1047.27C142 1045.26 143.628 1043.62 145.654 1043.62C147.68 1043.62 149.308 1045.24 149.308 1047.27C149.308 1049.3 147.661 1050.92 145.654 1050.92Z" fill="#0B315E" fill-opacity="0.3"/>
<path d="M180.002 1050.92C177.995 1050.92 176.348 1049.3 176.348 1047.27C176.348 1045.26 177.976 1043.62 180.002 1043.62C182.009 1043.62 183.656 1045.24 183.656 1047.27C183.637 1049.3 182.009 1050.92 180.002 1050.92Z" fill="#0B315E" fill-opacity="0.3"/>
<path d="M214.326 1050.92C212.319 1050.92 210.672 1049.3 210.672 1047.27C210.672 1045.26 212.3 1043.62 214.326 1043.62C216.333 1043.62 217.98 1045.24 217.98 1047.27C217.98 1049.3 216.352 1050.92 214.326 1050.92Z" fill="#0B315E" fill-opacity="0.3"/>
<path d="M248.674 1050.92C246.667 1050.92 245.02 1049.3 245.02 1047.27C245.02 1045.26 246.648 1043.62 248.674 1043.62C250.681 1043.62 252.328 1045.24 252.328 1047.27C252.328 1049.3 250.681 1050.92 248.674 1050.92Z" fill="#0B315E" fill-opacity="0.3"/>
<path d="M283.002 1050.92C280.995 1050.92 279.348 1049.3 279.348 1047.27C279.348 1045.26 280.976 1043.62 283.002 1043.62C285.009 1043.62 286.656 1045.24 286.656 1047.27C286.656 1049.3 285.028 1050.92 283.002 1050.92Z" fill="#0B315E" fill-opacity="0.3"/>
<path d="M317.346 1050.92C315.339 1050.92 313.691 1049.3 313.691 1047.27C313.691 1045.26 315.32 1043.62 317.346 1043.62C319.372 1043.62 321 1045.24 321 1047.27C321 1049.3 319.353 1050.92 317.346 1050.92Z" fill="#0B315E" fill-opacity="0.3"/>
<path d="M145.654 1082.24C143.647 1082.24 142 1080.61 142 1078.58C142 1076.58 143.628 1074.93 145.654 1074.93C147.68 1074.93 149.308 1076.56 149.308 1078.58C149.308 1080.59 147.661 1082.24 145.654 1082.24Z" fill="#0B315E" fill-opacity="0.3"/>
<path d="M180.002 1082.24C177.995 1082.24 176.348 1080.61 176.348 1078.58C176.348 1076.58 177.976 1074.93 180.002 1074.93C182.009 1074.93 183.656 1076.56 183.656 1078.58C183.637 1080.59 182.009 1082.24 180.002 1082.24Z" fill="#0B315E" fill-opacity="0.3"/>
<path d="M214.326 1082.24C212.319 1082.24 210.672 1080.61 210.672 1078.58C210.672 1076.58 212.3 1074.93 214.326 1074.93C216.333 1074.93 217.98 1076.56 217.98 1078.58C217.98 1080.59 216.352 1082.24 214.326 1082.24Z" fill="#0B315E" fill-opacity="0.3"/>
<path d="M248.674 1082.24C246.667 1082.24 245.02 1080.61 245.02 1078.58C245.02 1076.58 246.648 1074.93 248.674 1074.93C250.681 1074.93 252.328 1076.56 252.328 1078.58C252.328 1080.59 250.681 1082.24 248.674 1082.24Z" fill="#0B315E" fill-opacity="0.3"/>
<path d="M283.002 1082.24C280.995 1082.24 279.348 1080.61 279.348 1078.58C279.348 1076.58 280.976 1074.93 283.002 1074.93C285.009 1074.93 286.656 1076.56 286.656 1078.58C286.656 1080.59 285.028 1082.24 283.002 1082.24Z" fill="#0B315E" fill-opacity="0.3"/>
<path d="M317.346 1082.24C315.339 1082.24 313.691 1080.61 313.691 1078.58C313.691 1076.58 315.32 1074.93 317.346 1074.93C319.372 1074.93 321 1076.56 321 1078.58C321 1080.59 319.353 1082.24 317.346 1082.24Z" fill="#0B315E" fill-opacity="0.3"/>
<path d="M145.654 1113.56C143.647 1113.56 142 1111.93 142 1109.9C142 1107.9 143.628 1106.25 145.654 1106.25C147.68 1106.25 149.308 1107.88 149.308 1109.9C149.308 1111.91 147.661 1113.56 145.654 1113.56Z" fill="#0B315E" fill-opacity="0.3"/>
<path d="M180.002 1113.56C177.995 1113.56 176.348 1111.93 176.348 1109.9C176.348 1107.9 177.976 1106.25 180.002 1106.25C182.009 1106.25 183.656 1107.88 183.656 1109.9C183.637 1111.91 182.009 1113.56 180.002 1113.56Z" fill="#0B315E" fill-opacity="0.3"/>
<path d="M214.326 1113.56C212.319 1113.56 210.672 1111.93 210.672 1109.9C210.672 1107.9 212.3 1106.25 214.326 1106.25C216.333 1106.25 217.98 1107.88 217.98 1109.9C217.98 1111.91 216.352 1113.56 214.326 1113.56Z" fill="#0B315E" fill-opacity="0.3"/>
<path d="M248.674 1113.56C246.667 1113.56 245.02 1111.93 245.02 1109.9C245.02 1107.9 246.648 1106.25 248.674 1106.25C250.681 1106.25 252.328 1107.88 252.328 1109.9C252.328 1111.91 250.681 1113.56 248.674 1113.56Z" fill="#0B315E" fill-opacity="0.3"/>
<path d="M283.002 1113.56C280.995 1113.56 279.348 1111.93 279.348 1109.9C279.348 1107.9 280.976 1106.25 283.002 1106.25C285.009 1106.25 286.656 1107.88 286.656 1109.9C286.656 1111.91 285.028 1113.56 283.002 1113.56Z" fill="#0B315E" fill-opacity="0.3"/>
<path d="M317.346 1113.56C315.339 1113.56 313.691 1111.93 313.691 1109.9C313.691 1107.9 315.32 1106.25 317.346 1106.25C319.372 1106.25 321 1107.88 321 1109.9C321 1111.91 319.353 1113.56 317.346 1113.56Z" fill="#0B315E" fill-opacity="0.3"/>
<path d="M145.654 1144.85C143.647 1144.85 142 1143.22 142 1141.2C142 1139.19 143.628 1137.54 145.654 1137.54C147.68 1137.54 149.308 1139.17 149.308 1141.2C149.308 1143.22 147.661 1144.85 145.654 1144.85Z" fill="#0B315E" fill-opacity="0.3"/>
<path d="M180.002 1144.85C177.995 1144.85 176.348 1143.22 176.348 1141.2C176.348 1139.19 177.976 1137.54 180.002 1137.54C182.009 1137.54 183.656 1139.17 183.656 1141.2C183.637 1143.22 182.009 1144.85 180.002 1144.85Z" fill="#0B315E" fill-opacity="0.3"/>
<path d="M214.326 1144.85C212.319 1144.85 210.672 1143.22 210.672 1141.2C210.672 1139.19 212.3 1137.54 214.326 1137.54C216.333 1137.54 217.98 1139.17 217.98 1141.2C217.98 1143.22 216.352 1144.85 214.326 1144.85Z" fill="#0B315E" fill-opacity="0.3"/>
<path d="M248.674 1144.85C246.667 1144.85 245.02 1143.22 245.02 1141.2C245.02 1139.19 246.648 1137.54 248.674 1137.54C250.681 1137.54 252.328 1139.17 252.328 1141.2C252.328 1143.22 250.681 1144.85 248.674 1144.85Z" fill="#0B315E" fill-opacity="0.3"/>
<path d="M283.002 1144.85C280.995 1144.85 279.348 1143.22 279.348 1141.2C279.348 1139.19 280.976 1137.54 283.002 1137.54C285.009 1137.54 286.656 1139.17 286.656 1141.2C286.656 1143.22 285.028 1144.85 283.002 1144.85Z" fill="#0B315E" fill-opacity="0.3"/>
<path d="M317.346 1144.85C315.339 1144.85 313.691 1143.22 313.691 1141.2C313.691 1139.19 315.32 1137.54 317.346 1137.54C319.372 1137.54 321 1139.17 321 1141.2C321 1143.22 319.353 1144.85 317.346 1144.85Z" fill="#0B315E" fill-opacity="0.3"/>
</g>
<defs>
<linearGradient id="paint0_linear_771_2690" x1="960" y1="0" x2="960" y2="1312" gradientUnits="userSpaceOnUse">
<stop stop-color="#0B0218"/>
</linearGradient>
<radialGradient id="paint1_radial_771_2690" cx="0" cy="0" r="1" gradientUnits="userSpaceOnUse" gradientTransform="translate(550.715 537.963) rotate(49.7963) scale(103.138 663.648)">
<stop/>
<stop offset="1" stop-opacity="0"/>
</radialGradient>
<radialGradient id="paint2_radial_771_2690" cx="0" cy="0" r="1" gradientUnits="userSpaceOnUse" gradientTransform="translate(1275.65 595.978) rotate(49.7868) scale(84.7921 535.075)">
<stop/>
<stop offset="1" stop-opacity="0"/>
</radialGradient>
<radialGradient id="paint3_radial_771_2690" cx="0" cy="0" r="1" gradientUnits="userSpaceOnUse" gradientTransform="translate(519.831 386.078) rotate(49.8065) scale(33.0627 254.301)">
<stop/>
<stop offset="1" stop-opacity="0"/>
</radialGradient>
<radialGradient id="paint4_radial_771_2690" cx="0" cy="0" r="1" gradientUnits="userSpaceOnUse" gradientTransform="translate(729.922 980.209) rotate(49.7973) scale(65.382 307.04)">
<stop/>
<stop offset="1" stop-opacity="0"/>
</radialGradient>
<radialGradient id="paint5_radial_771_2690" cx="0" cy="0" r="1" gradientUnits="userSpaceOnUse" gradientTransform="translate(957.557 588.655) rotate(49.7993) scale(74.1747 422.238)">
<stop/>
<stop offset="1" stop-opacity="0"/>
</radialGradient>
<radialGradient id="paint6_radial_771_2690" cx="0" cy="0" r="1" gradientUnits="userSpaceOnUse" gradientTransform="translate(405.725 917.023) rotate(49.7969) scale(96.7654 387.69)">
<stop/>
<stop offset="1" stop-opacity="0"/>
</radialGradient>
<radialGradient id="paint7_radial_771_2690" cx="0" cy="0" r="1" gradientUnits="userSpaceOnUse" gradientTransform="translate(1126.2 1235.17) rotate(49.7962) scale(36.0644 232.058)">
<stop/>
<stop offset="1" stop-opacity="0"/>
</radialGradient>
<radialGradient id="paint8_radial_771_2690" cx="0" cy="0" r="1" gradientUnits="userSpaceOnUse" gradientTransform="translate(1133.58 972.791) rotate(49.7962) scale(55.5734 357.589)">
<stop/>
<stop offset="1" stop-opacity="0"/>
</radialGradient>
<linearGradient id="paint9_linear_771_2690" x1="643.915" y1="689.798" x2="804.062" y2="849.946" gradientUnits="userSpaceOnUse">
<stop stop-color="#A0F1FF" stop-opacity="0"/>
<stop offset="0.9933" stop-color="#E1A8FF"/>
</linearGradient>
<linearGradient id="paint10_linear_771_2690" x1="996.258" y1="1252.48" x2="616.981" y2="873.208" gradientUnits="userSpaceOnUse">
<stop stop-color="#A0F1FF" stop-opacity="0"/>
<stop offset="0.9933" stop-color="#E1A8FF"/>
</linearGradient>
<linearGradient id="paint11_linear_771_2690" x1="620.268" y1="40.5645" x2="1146.8" y2="567.097" gradientUnits="userSpaceOnUse">
<stop stop-color="#A0F1FF" stop-opacity="0"/>
<stop offset="0.9933" stop-color="#E1A8FF"/>
</linearGradient>
<linearGradient id="paint12_linear_771_2690" x1="1625.15" y1="1103.71" x2="1144.37" y2="622.93" gradientUnits="userSpaceOnUse">
<stop stop-color="#A0F1FF" stop-opacity="0"/>
<stop offset="0.9933" stop-color="#E1A8FF"/>
</linearGradient>
<linearGradient id="paint13_linear_771_2690" x1="190.021" y1="565.768" x2="404.241" y2="779.988" gradientUnits="userSpaceOnUse">
<stop stop-color="#A0F1FF" stop-opacity="0"/>
<stop offset="0.9933" stop-color="#E1A8FF"/>
</linearGradient>
<linearGradient id="paint14_linear_771_2690" x1="217.756" y1="1124.11" x2="639.978" y2="720.016" gradientUnits="userSpaceOnUse">
<stop offset="0.00404646" stop-color="#C92BFF" stop-opacity="0"/>
<stop offset="0.0258" stop-color="#C831FF" stop-opacity="0.0221"/>
<stop offset="0.2871" stop-color="#BA75FF" stop-opacity="0.2875"/>
<stop offset="0.5232" stop-color="#AFAAFF" stop-opacity="0.5272"/>
<stop offset="0.7262" stop-color="#A7D1FF" stop-opacity="0.7334"/>
<stop offset="0.8881" stop-color="#A2E8FF" stop-opacity="0.8978"/>
<stop offset="0.9887" stop-color="#A0F1FF"/>
</linearGradient>
<linearGradient id="paint15_linear_771_2690" x1="1260.28" y1="1206.36" x2="1532.26" y2="845.011" gradientUnits="userSpaceOnUse">
<stop offset="0.00404646" stop-color="#C92BFF" stop-opacity="0"/>
<stop offset="0.0258" stop-color="#C831FF" stop-opacity="0.0221"/>
<stop offset="0.2871" stop-color="#BA75FF" stop-opacity="0.2875"/>
<stop offset="0.5232" stop-color="#AFAAFF" stop-opacity="0.5272"/>
<stop offset="0.7262" stop-color="#A7D1FF" stop-opacity="0.7334"/>
<stop offset="0.8881" stop-color="#A2E8FF" stop-opacity="0.8978"/>
<stop offset="0.9887" stop-color="#A0F1FF"/>
</linearGradient>
<linearGradient id="paint16_linear_771_2690" x1="686.372" y1="685.468" x2="771.948" y2="685.468" gradientUnits="userSpaceOnUse">
<stop stop-color="#A0F1FF" stop-opacity="0"/>
<stop offset="0.9887" stop-color="#A0F1FF"/>
</linearGradient>
<linearGradient id="paint17_linear_771_2690" x1="1740" y1="284.26" x2="1892.55" y2="284.26" gradientUnits="userSpaceOnUse">
<stop stop-color="#A0F1FF" stop-opacity="0"/>
<stop offset="0.9887" stop-color="#A0F1FF"/>
</linearGradient>
<linearGradient id="paint18_linear_771_2690" x1="513.13" y1="409.347" x2="699.244" y2="409.347" gradientUnits="userSpaceOnUse">
<stop stop-color="#A0F1FF" stop-opacity="0"/>
<stop offset="0.9887" stop-color="#A0F1FF"/>
</linearGradient>
<linearGradient id="paint19_linear_771_2690" x1="510.45" y1="1011.43" x2="739.604" y2="1011.43" gradientUnits="userSpaceOnUse">
<stop stop-color="#A0F1FF" stop-opacity="0"/>
<stop offset="0.9887" stop-color="#A0F1FF"/>
</linearGradient>
<linearGradient id="paint20_linear_771_2690" x1="1031.7" y1="995.654" x2="1117.27" y2="995.654" gradientUnits="userSpaceOnUse">
<stop stop-color="#A0F1FF" stop-opacity="0"/>
<stop offset="0.9887" stop-color="#A0F1FF"/>
</linearGradient>
<linearGradient id="paint21_linear_771_2690" x1="1368.8" y1="1081.23" x2="1454.37" y2="1081.23" gradientUnits="userSpaceOnUse">
<stop stop-color="#A0F1FF" stop-opacity="0"/>
<stop offset="0.9887" stop-color="#A0F1FF"/>
</linearGradient>
<linearGradient id="paint22_linear_771_2690" x1="1152.47" y1="490.103" x2="1238.04" y2="490.103" gradientUnits="userSpaceOnUse">
<stop stop-color="#A0F1FF" stop-opacity="0"/>
<stop offset="0.9887" stop-color="#A0F1FF"/>
</linearGradient>
<linearGradient id="paint23_linear_771_2690" x1="1204.49" y1="738.028" x2="1263.37" y2="738.028" gradientUnits="userSpaceOnUse">
<stop stop-color="#A0F1FF" stop-opacity="0"/>
<stop offset="0.9887" stop-color="#A0F1FF"/>
</linearGradient>
<linearGradient id="paint24_linear_771_2690" x1="878.308" y1="468.285" x2="937.194" y2="468.285" gradientUnits="userSpaceOnUse">
<stop stop-color="#A0F1FF" stop-opacity="0"/>
<stop offset="0.9887" stop-color="#A0F1FF"/>
</linearGradient>
<linearGradient id="paint25_linear_771_2690" x1="439.89" y1="768.771" x2="498.775" y2="768.771" gradientUnits="userSpaceOnUse">
<stop stop-color="#A0F1FF" stop-opacity="0"/>
<stop offset="0.9887" stop-color="#A0F1FF"/>
</linearGradient>
<linearGradient id="paint26_linear_771_2690" x1="312.651" y1="561.786" x2="371.536" y2="561.786" gradientUnits="userSpaceOnUse">
<stop stop-color="#A0F1FF" stop-opacity="0"/>
<stop offset="0.9887" stop-color="#A0F1FF"/>
</linearGradient>
<linearGradient id="paint27_linear_771_2690" x1="1367.55" y1="749.928" x2="1520.8" y2="749.928" gradientUnits="userSpaceOnUse">
<stop stop-color="#A0F1FF" stop-opacity="0"/>
<stop offset="0.9887" stop-color="#A0F1FF"/>
</linearGradient>
<linearGradient id="paint28_linear_771_2690" x1="829.519" y1="910.394" x2="888.404" y2="910.394" gradientUnits="userSpaceOnUse">
<stop stop-color="#A0F1FF" stop-opacity="0"/>
<stop offset="0.9887" stop-color="#A0F1FF"/>
</linearGradient>
<clipPath id="clip0_771_2690">
<rect width="1920" height="1312" fill="white"/>
</clipPath>
</defs>
</svg>
