<svg width="16" height="20" viewBox="0 0 16 20" fill="none" xmlns="http://www.w3.org/2000/svg">
<path d="M7.54828 6.25781L7.54828 6.25777C7.42493 6.25619 7.27937 6.30572 7.19742 6.37435C7.11736 6.44231 7.07029 6.52974 7.03111 6.67926C6.95557 6.97856 6.97059 7.31174 7.05977 7.74162C7.10708 7.96698 7.20217 8.23223 7.32783 8.53583C7.40074 8.71195 7.46801 8.86496 7.53747 9.02294C7.5995 9.16401 7.66326 9.30905 7.73434 9.47804L7.79747 9.62816L7.76008 9.78667C7.71466 9.9792 7.68251 10.1576 7.64806 10.3487C7.63398 10.4268 7.61952 10.507 7.60361 10.5912C7.55053 10.8722 7.48504 11.1733 7.37054 11.5006L7.54828 6.25781ZM7.54828 6.25781H7.55469M7.54828 6.25781H7.55469M7.55469 6.25781H7.55474H7.55479H7.55484H7.55489H7.55494H7.555H7.55505H7.5551H7.55515H7.5552H7.55525H7.5553H7.55535H7.5554H7.55545H7.5555H7.55555H7.5556H7.55565H7.5557H7.55575H7.5558H7.55585H7.5559H7.55595H7.556H7.55605H7.5561H7.55615H7.5562H7.55625H7.5563H7.55635H7.5564H7.55645H7.5565H7.55655H7.5566H7.55665H7.5567H7.55675H7.55679H7.55684H7.55689H7.55694H7.55699H7.55704H7.55709H7.55714H7.55718H7.55723H7.55728H7.55733H7.55738H7.55743H7.55747H7.55752H7.55757H7.55762H7.55767H7.55771H7.55776H7.55781H7.55786H7.55791H7.55795H7.558H7.55805H7.5581H7.55814H7.55819H7.55824H7.55829H7.55833H7.55838H7.55843H7.55847H7.55852H7.55857H7.55862H7.55866H7.55871H7.55876H7.5588H7.55885H7.5589H7.55894H7.55899H7.55904H7.55908H7.55913H7.55918H7.55922H7.55927H7.55931H7.55936H7.55941H7.55945H7.5595H7.55955H7.55959H7.55964H7.55968H7.55973H7.55978H7.55982H7.55987H7.55991H7.55996H7.56H7.56005H7.5601H7.56014H7.56019H7.56023H7.56028H7.56032H7.56037H7.56041H7.56046H7.56051H7.56055H7.5606H7.56064H7.56069H7.56073H7.56078H7.56082H7.56087H7.56091H7.56096H7.561H7.56105H7.56109H7.56114H7.56118H7.56123H7.56127H7.56132H7.56136H7.5614H7.56145H7.56149H7.56154H7.56158H7.56163H7.56167H7.56172H7.56176H7.56181H7.56185H7.56189H7.56194H7.56198H7.56203H7.56207H7.56212H7.56216H7.5622H7.56225H7.56229H7.56234H7.56238H7.56242H7.56247H7.56251H7.56256H7.5626H7.56264H7.56269H7.56273H7.56278H7.56282H7.56286H7.56291H7.56295H7.56299H7.56304H7.56308H7.56313H7.56317H7.56321H7.56326H7.5633H7.56334H7.56339H7.56343H7.56347H7.56352H7.56356H7.5636H7.56365H7.56369H7.56374H7.56378H7.56382H7.56387H7.56391H7.56395H7.564H7.56404H7.56408H7.56413H7.56417H7.56421H7.56426H7.5643H7.56434H7.56438H7.56443H7.56447H7.56451H7.56456H7.5646H7.56464H7.56469H7.56473H7.56477H7.56482H7.56486H7.5649H7.56495H7.56499H7.56503H7.56507H7.56512H7.56516H7.5652H7.56525H7.56529H7.56533H7.56538H7.56542H7.56546H7.5655H7.56555H7.56559H7.56563H7.56568H7.56572H7.56576H7.56581H7.56585H7.56589H7.56593H7.56598H7.56602H7.56606H7.56611H7.56615H7.56619H7.56623H7.56628H7.56632H7.56636H7.56641H7.56645H7.56649H7.56653H7.56658H7.56662H7.56666H7.56671H7.56675H7.56679H7.56684H7.56688H7.56692H7.56696H7.56701H7.56705H7.56709H7.56714H7.56718H7.56722H7.56727H7.56731H7.56735H7.56739H7.56744H7.56748H7.56752H7.56757H7.56761H7.56765H7.56769H7.56774H7.56778H7.56782H7.56787H7.56791H7.56795H7.568H7.56804H7.56808H7.56813H7.56817H7.56821H7.56825H7.5683H7.56834H7.56838H7.56843H7.56847H7.56851H7.56856H7.5686H7.56864H7.56869H7.56873H7.56877H7.56882H7.56886H7.5689H7.56895H7.56899H7.56903H7.56908H7.56912H7.56916H7.56921H7.56925H7.56929H7.56934H7.56938H7.56943H7.56947H7.56951H7.56956H7.5696H7.56964H7.56969H7.56973H7.56977H7.56982H7.56986H7.56991H7.56995H7.56999H7.57004H7.57008H7.57012H7.57017H7.57021H7.57026H7.5703H7.57034H7.57039H7.57043H7.57048H7.57052H7.57056H7.57061H7.57065H7.5707H7.57074H7.57079H7.57083H7.57087H7.57092H7.57096H7.57101H7.57105H7.5711H7.57114H7.57119H7.57123H7.57126M7.55469 6.25781L7.9383 6.40022M6.65681 12.9735L6.46621 13.0457C6.28218 13.1154 6.07688 13.1777 5.89371 13.2332C5.82493 13.2541 5.75926 13.274 5.69901 13.293C5.45575 13.3697 5.27503 13.4386 5.14691 13.5183L5.14642 13.5186C4.76476 13.7554 4.50703 13.9734 4.36296 14.2433C4.24406 14.466 4.25455 14.8145 4.42453 15.056L4.42862 15.0618L4.43255 15.0678C4.52289 15.2042 4.6286 15.2945 4.76285 15.3479C4.89738 15.4014 5.03738 15.3994 5.14092 15.3635L5.14188 15.3632C5.4333 15.2628 5.67032 15.0307 5.95937 14.6453L5.96014 14.6443C6.05973 14.5122 6.15831 14.3132 6.27386 14.0468C6.30199 13.982 6.33142 13.9124 6.36197 13.8402C6.44676 13.6397 6.54022 13.4187 6.63872 13.2217L6.73134 13.0365L6.92782 12.971C7.05533 12.9285 7.16429 12.8838 7.28772 12.8333C7.3288 12.8164 7.37149 12.799 7.41699 12.7807C7.59257 12.7101 7.79045 12.6365 8.03104 12.5825L8.03216 12.5822C8.28544 12.5259 8.49604 12.5118 8.68334 12.5051C8.7303 12.5034 8.77396 12.5022 8.81563 12.501C8.94544 12.4973 9.05593 12.4942 9.18697 12.4796L9.20041 12.4781L9.00267 12.3378L8.58103 12.4139C8.43836 12.4397 8.31119 12.4409 8.22556 12.4418C8.21885 12.4418 8.21239 12.4419 8.2062 12.442C8.14792 12.4427 8.10676 12.4439 8.07074 12.4478C8.03852 12.4649 7.99215 12.4861 7.93377 12.5007L7.00999 12.7316L7.34434 11.8401C7.37667 11.7538 7.41336 11.6839 7.43646 11.6399C7.43801 11.637 7.4395 11.6341 7.44093 11.6314C7.46419 11.587 7.47325 11.568 7.4805 11.5477C7.49052 11.5178 7.49748 11.4853 7.50948 11.4206C7.51018 11.4168 7.5109 11.4129 7.51165 11.4088C7.5227 11.3488 7.53947 11.2578 7.57055 11.1605L7.91774 10.0726L8.48166 11.0656C8.52772 11.1467 8.5813 11.2169 8.65535 11.3087C8.66318 11.3184 8.67136 11.3285 8.67985 11.3389C8.74686 11.4215 8.83289 11.5276 8.91242 11.6509L9.31849 12.2808L9.29073 12.2858L9.52856 12.299L9.38282 12.1068C9.30499 12.0041 9.22029 11.9 9.13169 11.7911C8.88196 11.484 8.60127 11.139 8.3562 10.6816C8.35618 10.6815 8.35616 10.6815 8.35613 10.6814L8.79688 10.4453C8.70065 10.2664 8.64528 10.103 8.58873 9.93611L6.65681 12.9735ZM6.65681 12.9735L6.74261 12.7886M6.65681 12.9735L6.74261 12.7886M7.57812 5.75781C7.82715 5.76367 8.07031 5.86035 8.25781 6.01562C8.45117 6.17676 8.57715 6.3877 8.65625 6.60156L7.55469 5.75781H7.57812ZM7.57812 5.75781L7.56636 6.25767C7.56799 6.25771 7.56963 6.25776 7.57126 6.25781M7.57812 5.75781V6.25781H7.57807H7.57802H7.57797H7.57792H7.57787H7.57782H7.57777H7.57771H7.57766H7.57761H7.57756H7.57751H7.57746H7.57741H7.57736H7.57731H7.57726H7.57721H7.57716H7.57711H7.57706H7.57701H7.57696H7.57691H7.57686H7.57681H7.57676H7.57671H7.57666H7.57661H7.57656H7.57651H7.57646H7.57641H7.57636H7.57631H7.57626H7.57621H7.57617H7.57612H7.57607H7.57602H7.57597H7.57592H7.57587H7.57582H7.57577H7.57573H7.57568H7.57563H7.57558H7.57553H7.57548H7.57544H7.57539H7.57534H7.57529H7.57524H7.57519H7.57515H7.5751H7.57505H7.575H7.57495H7.57491H7.57486H7.57481H7.57476H7.57472H7.57467H7.57462H7.57457H7.57453H7.57448H7.57443H7.57439H7.57434H7.57429H7.57424H7.5742H7.57415H7.5741H7.57406H7.57401H7.57396H7.57392H7.57387H7.57382H7.57378H7.57373H7.57368H7.57364H7.57359H7.57354H7.5735H7.57345H7.57341H7.57336H7.57331H7.57327H7.57322H7.57317H7.57313H7.57308H7.57304H7.57299H7.57295H7.5729H7.57285H7.57281H7.57276H7.57272H7.57267H7.57263H7.57258H7.57253H7.57249H7.57244H7.5724H7.57235H7.57231H7.57226H7.57222H7.57217H7.57213H7.57208H7.57204H7.57199H7.57195H7.5719H7.57186H7.57181H7.57177H7.57172H7.57168H7.57163H7.57159H7.57154H7.5715H7.57145H7.57141H7.57136H7.57132H7.57127H7.57126M7.57126 6.25781C7.6998 6.26205 7.83374 6.31386 7.9383 6.40022M7.9383 6.40022C8.0475 6.49143 8.12989 6.62017 8.18696 6.77409C8.3064 7.10143 8.33144 7.48462 8.29795 7.99843L7.9383 6.40022ZM6.74261 12.7886C6.81441 12.6339 6.88574 12.5051 6.96516 12.3619M6.74261 12.7886L6.96516 12.3619M5.32149 13.5701L5.3073 13.5767C5.29976 13.5802 5.28512 13.5869 5.27048 13.594C5.25749 13.6004 5.23274 13.6127 5.20557 13.6296C4.84888 13.8504 4.60183 14.1086 4.49322 14.303C4.49477 14.3002 4.4978 14.2961 4.4934 14.3021L4.48271 14.3168C4.47788 14.3235 4.46905 14.3361 4.45929 14.352C4.44084 14.382 4.40328 14.4483 4.38738 14.5415C4.35322 14.7415 4.44698 14.8891 4.46412 14.916C4.46473 14.917 4.46523 14.9178 4.46564 14.9184C4.48021 14.9418 4.50421 14.9754 4.51553 14.9913C4.51777 14.9944 4.51952 14.9969 4.52059 14.9984L4.66993 15.2109H4.68555L4.79215 15.3531L5.15619 15.1913C5.24819 15.1504 5.35746 15.0728 5.46077 14.9833C5.57419 14.885 5.70796 14.7484 5.8437 14.5678C5.89032 14.5065 5.91883 14.4446 5.93206 14.4148C5.94812 14.3787 5.96219 14.3416 5.97117 14.318L5.97137 14.3174L5.97213 14.3154C5.9826 14.2879 5.98808 14.2734 5.99313 14.2615C5.99502 14.257 5.99597 14.255 5.99595 14.2551C5.99592 14.2554 5.99017 14.2677 5.97853 14.2852L5.2975 13.5838C5.30971 13.5762 5.31893 13.5714 5.32149 13.5701ZM5.32149 13.5701L5.32175 13.57L5.32149 13.5701ZM6.96516 12.3619C6.99079 12.3156 7.01727 12.2678 7.04488 12.2172M6.96516 12.3619L7.04488 12.2172M7.04488 12.2172C7.15505 12.015 7.26974 11.7895 7.37045 11.5009L7.04488 12.2172ZM2 1.25H1.5V1.75V18.25V18.75H2H14H14.5V18.25V1.75V1.25H14H2ZM10.5976 12.3584L9.71088 12.3091L9.80773 12.304C9.97709 12.295 10.1639 12.2692 10.3229 12.2472C10.3691 12.2408 10.413 12.2347 10.4534 12.2295C10.659 12.2029 10.7954 12.1943 10.8868 12.2065L10.8882 12.2067C11.3003 12.2607 11.5344 12.3308 11.7134 12.5217L11.715 12.5234C11.752 12.5625 11.7843 12.6117 11.809 12.6629L11.3944 12.4745C11.3965 12.4755 11.3689 12.4624 11.3403 12.4507C11.309 12.4379 11.2718 12.4243 11.2269 12.4107C11.1378 12.3839 11.0245 12.359 10.8759 12.34L10.8745 12.3398C10.8316 12.3344 10.7949 12.3348 10.7715 12.3358C10.7466 12.3368 10.7244 12.3391 10.7074 12.3411C10.6756 12.345 10.6441 12.3504 10.6255 12.3536L10.6241 12.3539C10.6123 12.3559 10.604 12.3573 10.5976 12.3584ZM11.6731 13.0765L11.8403 12.7421C11.852 12.7795 11.8587 12.8158 11.8595 12.8481C11.8616 12.9334 11.8427 13.0225 11.7995 13.1223L11.7172 13.2626C11.534 13.5749 11.2271 13.7349 10.9843 13.7197C10.6787 13.7006 10.3895 13.5396 10.0623 13.2554L10.0623 13.2554L10.0587 13.2523C10.0316 13.2292 9.98687 13.1733 9.90275 13.0454C9.89349 13.0313 9.8835 13.0159 9.87285 12.9995C9.85633 12.9741 9.83824 12.9462 9.81884 12.917L10.3122 13.2671C10.4178 13.3421 10.5269 13.4101 10.6209 13.4619C10.6674 13.4875 10.7162 13.5123 10.7627 13.5326C10.7635 13.5329 10.7645 13.5333 10.7655 13.5338C10.7924 13.5455 10.8861 13.5865 10.9941 13.5929L10.9941 13.5929L10.9997 13.5932L11.0043 13.5935L11.0208 13.5944C11.0342 13.595 11.0655 13.5963 11.1035 13.5931C11.2007 13.585 11.3012 13.5515 11.3923 13.4836C11.4642 13.43 11.5113 13.3683 11.5361 13.3341C11.5637 13.2959 11.5905 13.253 11.6155 13.2116L11.6162 13.2104C11.6305 13.1867 11.6488 13.152 11.6637 13.1077C11.667 13.0979 11.6702 13.0875 11.6731 13.0765ZM10.9531 14.2188C11.4219 14.248 11.8906 13.9551 12.1484 13.5156L6.53312 12.1098C6.45172 12.2566 6.36909 12.4057 6.28906 12.5781C6.12197 12.6414 5.94349 12.6955 5.76611 12.7493C5.44276 12.8474 5.12308 12.9443 4.88281 13.0938C4.48145 13.3428 4.12988 13.6182 3.92188 14.0078C3.71387 14.3975 3.7373 14.9482 4.01562 15.3438C4.15332 15.5518 4.33496 15.7158 4.57812 15.8125C4.82129 15.9092 5.08496 15.9121 5.30469 15.8359C5.74707 15.6836 6.06055 15.3438 6.35938 14.9453C6.53736 14.7092 6.68181 14.3677 6.82871 14.0204C6.91152 13.8246 6.99511 13.627 7.08594 13.4453C7.23078 13.397 7.36014 13.344 7.48736 13.2919C7.69208 13.208 7.89128 13.1263 8.14062 13.0703C8.39891 13.0129 8.60558 13.0071 8.81778 13.0012C8.95219 12.9974 9.08882 12.9936 9.24219 12.9766C9.31463 13.059 9.38227 13.1627 9.44989 13.2664C9.5409 13.4059 9.63185 13.5454 9.73438 13.6328C10.0918 13.9434 10.4844 14.1895 10.9531 14.2188ZM1 19.25V0.75H15V19.25H1Z" stroke="#6B7280"/>
</svg>
