<svg width="20" height="20" viewBox="0 0 20 20" fill="none" xmlns="http://www.w3.org/2000/svg">
<path d="M13.3744 10.7588L13.1016 10.3398L13.0946 10.3443L13.0878 10.3491L13.3744 10.7588ZM13.3744 9.46867L13.0779 9.87129L13.1002 9.88772L13.1242 9.90158L13.3744 9.46867ZM8.20366 5.66122L8.50013 5.2586L8.48602 5.24821L8.47122 5.23883L8.20366 5.66122ZM7.11966 6.22991L7.61973 6.22846L7.61955 6.21971L7.11966 6.22991ZM7.14134 13.709L6.64134 13.7105L6.64138 13.7246L6.64222 13.7387L7.14134 13.709ZM8.26509 14.3323L8.5072 14.7697L8.53015 14.757L8.55165 14.742L8.26509 14.3323ZM10 18.5C5.30558 18.5 1.5 14.6944 1.5 10H0.5C0.5 15.2467 4.7533 19.5 10 19.5V18.5ZM18.5 10C18.5 14.6944 14.6944 18.5 10 18.5V19.5C15.2467 19.5 19.5 15.2467 19.5 10H18.5ZM10 1.5C14.6944 1.5 18.5 5.30558 18.5 10H19.5C19.5 4.7533 15.2467 0.5 10 0.5V1.5ZM10 0.5C4.7533 0.5 0.5 4.7533 0.5 10H1.5C1.5 5.30558 5.30558 1.5 10 1.5V0.5ZM13.6471 11.1779C14.0186 10.936 14.37 10.5778 14.3694 10.0944C14.3687 9.5999 14.003 9.25446 13.6245 9.03576L13.1242 9.90158C13.2534 9.97624 13.3207 10.0393 13.352 10.0791C13.3797 10.1144 13.3694 10.1179 13.3694 10.0958C13.3694 10.0756 13.3782 10.0856 13.3441 10.1317C13.3078 10.1808 13.2346 10.2532 13.1016 10.3398L13.6471 11.1779ZM13.6708 9.06605L8.50013 5.2586L7.90719 6.06384L13.0779 9.87129L13.6708 9.06605ZM8.47122 5.23883C8.11086 5.01055 7.65226 4.90889 7.24371 5.09964C6.80754 5.3033 6.60979 5.75137 6.61976 6.24011L7.61955 6.21971C7.61727 6.10781 7.6385 6.04948 7.65069 6.02615C7.65669 6.01469 7.6613 6.00989 7.66269 6.00855C7.66402 6.00726 7.66503 6.00656 7.66678 6.00574C7.66985 6.00431 7.76049 5.97236 7.9361 6.0836L8.47122 5.23883ZM6.61966 6.23136L6.64134 13.7105L7.64134 13.7076L7.61966 6.22846L6.61966 6.23136ZM6.64222 13.7387C6.66881 14.1853 6.81789 14.6556 7.24409 14.8832C7.66512 15.1081 8.13451 14.976 8.5072 14.7697L8.02298 13.8948C7.89852 13.9637 7.81015 13.9902 7.75644 13.9976C7.70673 14.0045 7.70137 13.9937 7.71519 14.0011C7.75145 14.0205 7.65964 14.0015 7.64045 13.6793L6.64222 13.7387ZM8.55165 14.742L13.6609 11.1686L13.0878 10.3491L7.97852 13.9225L8.55165 14.742Z" fill="white"/>
</svg>
