<svg width="24" height="22" viewBox="0 0 24 22" fill="none" xmlns="http://www.w3.org/2000/svg">
<path fill-rule="evenodd" clip-rule="evenodd" d="M5.67029 7.41351L5.40515 6.49076L5.35675 6.4876C5.26837 6.48234 5.17262 6.47918 5.06951 6.47918C4.9664 6.47918 4.87065 6.48234 4.78227 6.4876L4.73387 6.49076L4.47188 7.40087C4.44032 7.53029 4.34036 7.63235 4.212 7.66707C3.94581 7.73862 3.69013 7.84383 3.45235 7.98167V7.98062C3.34187 8.04375 3.20614 8.0448 3.09462 7.98378L2.25394 7.51871C2.16977 7.59026 2.0877 7.66707 2.00668 7.74808C1.92567 7.8291 1.84886 7.91222 1.77731 7.99534L2.22236 8.8055C2.30233 8.92124 2.30864 9.0738 2.23815 9.19585C2.10031 9.43363 1.9951 9.6893 1.92354 9.9555C1.88987 10.0797 1.79413 10.1775 1.66997 10.2122L0.747222 10.4774C0.747222 10.4932 0.745117 10.5089 0.744065 10.5258C0.738804 10.6142 0.735648 10.7099 0.735648 10.813C0.735648 10.9161 0.738804 11.0129 0.744065 11.1002C0.744065 11.116 0.74617 11.1318 0.747222 11.1487L1.65734 11.4106C1.78675 11.4422 1.88881 11.5422 1.92353 11.6705C1.96036 11.8031 2.00455 11.9336 2.05611 12.0609V12.0619C2.10977 12.1882 2.16974 12.3113 2.23813 12.4302H2.23708C2.30021 12.5407 2.30126 12.6764 2.24023 12.789L1.77517 13.6296C1.84672 13.7138 1.92352 13.7969 2.00454 13.8769C2.08556 13.9579 2.16868 14.0337 2.2518 14.1063L3.06196 13.658C3.1777 13.5781 3.32921 13.5728 3.45125 13.6422C3.57015 13.7106 3.69325 13.7717 3.81951 13.8243C3.94683 13.8769 4.07729 13.9211 4.21091 13.9568C4.33506 13.9905 4.43291 14.0863 4.46763 14.2104L4.73278 15.1332L4.78118 15.1363C4.86956 15.1416 4.96531 15.1447 5.06842 15.1447C5.17258 15.1447 5.26728 15.1416 5.35566 15.1363L5.40406 15.1332L5.66605 14.223C5.69761 14.0936 5.79756 13.9916 5.92593 13.9569C6.0585 13.9211 6.18897 13.8769 6.31627 13.8243H6.31733C6.44359 13.7717 6.56669 13.7106 6.68559 13.6423V13.6433C6.79606 13.5802 6.93179 13.5781 7.04436 13.6402L7.88504 14.1052C7.96921 14.0337 8.05128 13.9569 8.1323 13.8758C8.21331 13.7948 8.29012 13.7117 8.36167 13.6286L7.91344 12.8184C7.83453 12.7027 7.82821 12.5512 7.89766 12.4291C7.9671 12.3102 8.02707 12.1871 8.07968 12.0609C8.13229 11.9336 8.17648 11.8031 8.21225 11.6695C8.24592 11.5453 8.34272 11.4475 8.46687 11.4128L9.38962 11.1476L9.39278 11.0992C9.39909 11.0108 9.4012 10.9151 9.4012 10.812C9.4012 10.7089 9.39804 10.6121 9.39278 10.5247L9.38962 10.4763L8.47951 10.2143C8.34904 10.1828 8.24698 10.0828 8.21226 9.95446C8.14176 9.68931 8.03549 9.43364 7.89765 9.19586H7.89976C7.83663 9.08538 7.83558 8.94965 7.8966 8.83813L8.36167 7.99745C8.29012 7.91328 8.21331 7.83016 8.1323 7.75019C8.05128 7.66918 7.96816 7.59342 7.88504 7.52082L7.07488 7.96905V7.968C6.95914 8.04797 6.80763 8.05428 6.68558 7.98378C6.44779 7.84595 6.19213 7.74074 5.92593 7.66918C5.80177 7.63551 5.70392 7.53976 5.6692 7.41561L5.67029 7.41351ZM6.37524 9.50624C6.99917 10.1291 7.09493 11.1055 6.60567 11.8378C6.11536 12.5712 5.17683 12.8563 4.36247 12.5186C3.54811 12.1808 3.0862 11.3159 3.25769 10.4521C3.42919 9.58724 4.18779 8.96436 5.06952 8.96436C5.55982 8.96436 6.03012 9.15904 6.37524 9.50624ZM5.0695 8.22997C6.30158 8.22997 7.3611 9.10011 7.60204 10.308C7.84193 11.5159 7.19486 12.7258 6.05746 13.1973C4.91902 13.6687 3.60697 13.271 2.923 12.2462C2.23804 11.2224 2.37272 9.85777 3.24391 8.98647C3.72791 8.50142 4.38457 8.22892 5.0695 8.22997ZM10.5503 11.073L10.5514 11.0719C10.4819 11.0035 10.443 10.9099 10.443 10.812C10.443 10.7142 10.4819 10.6205 10.5514 10.5521L15.0326 5.17047L17.3126 2.43493C17.442 2.28026 17.6724 2.25922 17.8271 2.38758C17.9829 2.517 18.0039 2.74741 17.8745 2.90315L15.5955 5.6387L11.591 10.445H17.5936C17.7966 10.445 17.9608 10.6092 17.9608 10.8122C17.9608 11.0153 17.7966 11.1794 17.5936 11.1794H11.591L15.5955 15.9858L17.8755 18.7224H17.8745C17.9429 18.7961 17.9765 18.895 17.9702 18.9949C17.9629 19.0949 17.9155 19.1875 17.8387 19.2506C17.7619 19.3148 17.6619 19.3442 17.562 19.3327C17.4631 19.3211 17.3726 19.2695 17.3126 19.1896L15.0326 16.4529L10.5503 11.0721L10.5503 11.073ZM23.2657 0.735468L19.398 0.734416V4.60205H23.2657V0.734416V0.735468ZM19.0306 0H23.6328C23.8359 0 24 0.164138 24 0.367209V4.96937C24 5.17139 23.8359 5.33658 23.6328 5.33658H19.0306C18.8276 5.33658 18.6624 5.17139 18.6624 4.96937V0.367209C18.6634 0.164141 18.8276 0 19.0306 0ZM22.2976 1.5835C22.446 1.44567 22.6775 1.45408 22.8153 1.60244C22.9531 1.75079 22.9447 1.98228 22.7963 2.12011L21.0487 3.75201C20.9003 3.88984 20.6678 3.88142 20.53 3.73412L19.8566 3.05864C19.7861 2.99025 19.7461 2.89661 19.7461 2.7977C19.7451 2.69985 19.785 2.60516 19.8545 2.53571C19.9239 2.46627 20.0186 2.42839 20.1175 2.42945C20.2154 2.43155 20.309 2.47153 20.3774 2.54308L20.8078 2.97343L22.2976 1.58246L22.2976 1.5835ZM23.2656 8.87811H19.398V12.7458H23.2656V8.87811ZM19.0306 8.14369H23.6327C23.8358 8.14369 23.9999 8.30783 23.9999 8.5109V13.1131C23.9999 13.3161 23.8358 13.4803 23.6327 13.4803H19.0306C18.8275 13.4803 18.6623 13.3161 18.6623 13.1131V8.5109C18.6623 8.41305 18.7012 8.32046 18.7707 8.25102C18.8391 8.18263 18.9327 8.14369 19.0306 8.14369ZM22.2976 9.72824C22.4459 9.59041 22.6774 9.59883 22.8152 9.74613C22.9531 9.89448 22.9446 10.127 22.7963 10.2649L21.0476 11.8968L21.0486 11.8957C20.9003 12.0335 20.6678 12.0262 20.5299 11.8778L19.8565 11.2034V11.2023C19.7145 11.0592 19.7145 10.8267 19.8586 10.6847C20.0017 10.5416 20.2343 10.5426 20.3774 10.6857L20.8088 11.1171L22.2986 9.72614L22.2976 9.72824ZM23.2656 17.0229L19.3979 17.0218V20.8894H23.2656V17.0218V17.0229ZM19.0305 16.2874H23.6327C23.8358 16.2874 23.9999 16.4526 23.9999 16.6546V21.2568C23.9999 21.4598 23.8358 21.624 23.6327 21.624H19.0305C18.8275 21.624 18.6633 21.4598 18.6623 21.2568V16.6546C18.6623 16.5578 18.7012 16.4642 18.7706 16.3947C18.839 16.3263 18.9327 16.2874 19.0305 16.2874ZM22.2975 17.8719C22.4469 17.7446 22.6689 17.7583 22.8025 17.9014C22.9362 18.0445 22.9341 18.2676 22.7962 18.4075L21.0475 20.0394H21.0486C20.9002 20.1772 20.6677 20.1688 20.5299 20.0204L19.8565 19.345V19.346C19.7144 19.2019 19.7155 18.9704 19.8586 18.8283C20.0027 18.6853 20.2342 18.6863 20.3773 18.8305L20.8087 19.2618L22.2975 17.8719ZM6.04152 6.05085L6.31927 7.01885C6.41081 7.04936 6.5034 7.08408 6.59493 7.12196C6.68752 7.16089 6.77695 7.20193 6.86638 7.24612L7.74808 6.75792V6.75897C7.87539 6.68847 8.03112 6.70005 8.14686 6.78843C8.50249 7.05988 8.82024 7.37764 9.0917 7.73431C9.18639 7.85847 9.1927 8.02786 9.10643 8.15833L8.63296 9.01374C8.6761 9.10107 8.71818 9.1905 8.75711 9.2852C8.79604 9.37884 8.83076 9.47143 8.86022 9.56085L9.82822 9.83861C9.97868 9.88175 10.0849 10.0154 10.0944 10.1711C10.1081 10.2763 10.1176 10.3784 10.1239 10.4783C10.1312 10.5951 10.1355 10.7066 10.1355 10.8119C10.1355 10.9171 10.1323 11.0276 10.1239 11.1454C10.1165 11.2527 10.106 11.3642 10.0902 11.4789C10.0713 11.6241 9.96816 11.7441 9.82822 11.7841L8.86022 12.0618C8.82971 12.1534 8.79499 12.2459 8.75711 12.3375C8.71923 12.4301 8.6782 12.5206 8.63296 12.6089L9.12116 13.4906H9.12011C9.1906 13.6179 9.17903 13.7737 9.09065 13.8894C8.81919 14.245 8.50144 14.5628 8.14581 14.8342C8.02271 14.93 7.85332 14.9363 7.72284 14.8521L6.86638 14.3787C6.78011 14.4218 6.68962 14.4639 6.59703 14.5018C6.50549 14.5396 6.4129 14.5744 6.31927 14.6049L6.04152 15.5729C5.99838 15.7233 5.86475 15.8307 5.70903 15.8391C5.60381 15.8527 5.50175 15.8622 5.4018 15.8696C5.28501 15.8769 5.17348 15.8812 5.06826 15.8812C4.96304 15.8812 4.85257 15.8769 4.73472 15.8696C4.6274 15.8622 4.51587 15.8506 4.40118 15.8359C4.25599 15.817 4.13604 15.7139 4.09606 15.5729L3.81723 14.6028C3.72569 14.5723 3.6331 14.5375 3.54157 14.4997C3.45003 14.4607 3.35955 14.4197 3.27012 14.3755L2.38842 14.8637L2.38947 14.8648C2.26216 14.9342 2.10643 14.9226 1.99069 14.8342C1.63507 14.5628 1.31731 14.245 1.04481 13.8894C0.951163 13.7653 0.944852 13.5948 1.03113 13.4643L1.5046 12.6079C1.46146 12.5216 1.41937 12.4311 1.38149 12.3385C1.34362 12.247 1.3089 12.1544 1.27838 12.0608L0.308282 11.7851C0.156771 11.742 0.0494503 11.6084 0.0410331 11.4526C0.0273551 11.3474 0.0178856 11.2454 0.0115739 11.1454C0.0042087 11.0286 0 10.9171 0 10.8119C0 10.7066 0.0042087 10.5951 0.0115739 10.4783C0.0189388 10.371 0.0294605 10.2595 0.045243 10.1448C0.0641817 9.99959 0.167292 9.87964 0.308282 9.83966L1.27628 9.56191C1.30679 9.47037 1.34152 9.37778 1.37939 9.28625C1.41727 9.19366 1.45831 9.10423 1.50355 9.0148L1.01535 8.13205C0.944852 8.00474 0.956426 7.84901 1.04481 7.73327C1.31626 7.37764 1.63402 7.05989 1.9907 6.78843C2.1138 6.69374 2.28424 6.68743 2.41471 6.7737L3.27117 7.24717C3.3585 7.20298 3.44899 7.16195 3.54263 7.12302C3.63627 7.08409 3.72781 7.05042 3.81828 7.01991L4.09712 6.05191H4.09606C4.1392 5.90145 4.27283 5.79518 4.42855 5.78676C4.53377 5.77308 4.63688 5.76361 4.73578 5.7573C4.85257 5.74888 4.9641 5.74572 5.06932 5.74572C5.17454 5.74572 5.28606 5.74993 5.40286 5.7573C5.51018 5.76466 5.62171 5.77519 5.7364 5.79097V5.78992C5.88159 5.80885 6.00049 5.91197 6.04152 6.0519L6.04152 6.05085Z" fill="black"/>
</svg>
