<svg width="24" height="24" viewBox="0 0 24 24" fill="none" xmlns="http://www.w3.org/2000/svg">
<path d="M4.26064 10.9913H6.17602L6.27426 12.0575L4.87295 12.7148C4.60145 12.843 4.37186 13.0456 4.21078 13.299C4.04971 13.5524 3.96375 13.8463 3.96286 14.1465V14.9127C3.96286 15.0642 4.02304 15.2095 4.13016 15.3166C4.23728 15.4237 4.38256 15.4839 4.53405 15.4839C4.68554 15.4839 4.83082 15.4237 4.93794 15.3166C5.04506 15.2095 5.10523 15.0642 5.10523 14.9127V14.1465C5.10557 14.0632 5.12949 13.9816 5.17423 13.9112C5.21897 13.8409 5.28271 13.7846 5.35808 13.749L6.52254 13.2029C6.7534 13.9769 7.22792 14.6556 7.87551 15.1383C8.5231 15.6209 9.30918 15.8816 10.1168 15.8816C10.9245 15.8816 11.7105 15.6209 12.3581 15.1383C13.0057 14.6556 13.4802 13.9769 13.7111 13.2029L14.874 13.7482C14.9494 13.7842 15.013 13.8406 15.0577 13.911C15.1025 13.9815 15.1264 14.0631 15.1269 14.1465V14.9127C15.1269 15.0642 15.1871 15.2095 15.2942 15.3166C15.4013 15.4237 15.5466 15.4839 15.6981 15.4839C15.8496 15.4839 15.9949 15.4237 16.102 15.3166C16.2091 15.2095 16.2693 15.0642 16.2693 14.9127V14.1465C16.2684 13.8462 16.1825 13.5522 16.0214 13.2986C15.8604 13.0451 15.6307 12.8424 15.3592 12.714L13.9586 12.0575L14.0569 10.9913H15.9722C16.1237 10.9913 16.269 10.9311 16.3761 10.824C16.4833 10.7169 16.5434 10.5716 16.5434 10.4201C16.5434 10.2686 16.4833 10.1234 16.3761 10.0162C16.269 9.90912 16.1237 9.84894 15.9722 9.84894H14.1612L14.2374 8.98606C14.2411 8.87635 14.2353 8.76651 14.2198 8.65782L15.3569 8.12472C15.6285 7.99661 15.8582 7.79407 16.0193 7.54063C16.1804 7.28719 16.2663 6.99325 16.267 6.69294V5.92603C16.267 5.77454 16.2068 5.62926 16.0997 5.52214C15.9926 5.41502 15.8473 5.35484 15.6958 5.35484C15.5443 5.35484 15.399 5.41502 15.2919 5.52214C15.1848 5.62926 15.1246 5.77454 15.1246 5.92603V6.69218C15.1242 6.77553 15.1002 6.85707 15.0555 6.9274C15.0108 6.99774 14.9471 7.054 14.8718 7.08973L13.7347 7.62283C13.7302 7.6175 13.7271 7.61141 13.7225 7.60684C13.4272 7.30124 13.0372 7.10451 12.616 7.0486V6.19639C12.6156 5.69613 12.4167 5.21646 12.063 4.86265C11.7094 4.50884 11.2298 4.30979 10.7295 4.30919H9.50185C9.00152 4.30979 8.52185 4.50882 8.16806 4.8626C7.81428 5.21639 7.61525 5.69606 7.61465 6.19639V7.04936C7.19337 7.10527 6.80338 7.30201 6.50807 7.6076C6.5035 7.61217 6.50045 7.61826 6.49588 7.62359L5.35808 7.09049C5.28277 7.05477 5.21908 6.9985 5.17435 6.92816C5.12961 6.85783 5.10566 6.77629 5.10523 6.69294V5.92603C5.10523 5.77454 5.04506 5.62926 4.93794 5.52214C4.83082 5.41502 4.68554 5.35484 4.53405 5.35484C4.38256 5.35484 4.23728 5.41502 4.13016 5.52214C4.02304 5.62926 3.96286 5.77454 3.96286 5.92603V6.69218C3.96375 6.99245 4.04971 7.28631 4.21078 7.53972C4.37186 7.79313 4.60145 7.9957 4.87295 8.12395L6.01532 8.65706C5.99947 8.77414 5.99361 8.89236 5.99781 9.01044L6.07397 9.84818H4.26064C4.10915 9.84818 3.96387 9.90835 3.85675 10.0155C3.74963 10.1226 3.68945 10.2679 3.68945 10.4194C3.68945 10.5708 3.74963 10.7161 3.85675 10.8233C3.96387 10.9304 4.10915 10.9905 4.26064 10.9905V10.9913ZM8.75397 6.19334C8.75418 5.99586 8.83271 5.80653 8.97235 5.66689C9.11199 5.52725 9.30132 5.44872 9.4988 5.44852H10.7288C10.9261 5.44892 11.1152 5.52755 11.2547 5.66716C11.3942 5.80678 11.4726 5.996 11.4728 6.19334V7.02194H8.75397V6.19334ZM7.88882 8.16127H12.3372C12.4413 8.16009 12.5446 8.18015 12.6407 8.22021C12.7368 8.26028 12.8238 8.31952 12.8962 8.39432C12.9617 8.46193 13.0132 8.54181 13.0477 8.62938C13.0822 8.71695 13.099 8.81047 13.0973 8.90458L12.8147 11.9928C12.8098 12.7119 12.525 13.4008 12.0207 13.9135C11.5164 14.4261 10.8323 14.7222 10.1134 14.7391C9.39343 14.722 8.70845 14.425 8.20392 13.9111C7.6994 13.3972 7.41507 12.7069 7.4113 11.9867L7.13028 8.93123C7.12587 8.83344 7.14134 8.73577 7.17577 8.64414C7.2102 8.55251 7.26286 8.46881 7.33058 8.39812C7.40306 8.32269 7.49031 8.263 7.58687 8.22278C7.68344 8.18255 7.78726 8.16265 7.89186 8.16432L7.88882 8.16127Z" fill="black"/>
<path d="M10.1156 20.2124C12.6862 20.2117 15.1592 19.2277 17.0277 17.4623L23.0054 23.7187C23.0566 23.7753 23.1186 23.821 23.1878 23.8532C23.257 23.8854 23.3319 23.9034 23.4082 23.9062C23.4844 23.909 23.5605 23.8964 23.6318 23.8693C23.7031 23.8422 23.7683 23.801 23.8235 23.7483C23.8786 23.6956 23.9227 23.6324 23.953 23.5623C23.9833 23.4923 23.9993 23.4169 24 23.3406C24.0007 23.2643 23.9861 23.1886 23.957 23.118C23.928 23.0475 23.8851 22.9834 23.8309 22.9297L17.819 16.6368C19.3069 14.8795 20.1502 12.6667 20.2091 10.3649C20.268 8.06302 19.5391 5.81004 18.1431 3.9789C16.747 2.14776 14.7675 0.848261 12.5322 0.295513C10.2969 -0.257235 7.9399 -0.0300853 5.85131 0.939361C3.76271 1.90881 2.06779 3.56242 1.04712 5.62646C0.026443 7.6905 -0.258783 10.0412 0.238655 12.2895C0.736093 14.5377 1.98637 16.5487 3.78251 17.9895C5.57865 19.4303 7.81296 20.2145 10.1156 20.2124ZM10.1156 1.12258C11.8904 1.12258 13.6254 1.64888 15.1011 2.63492C16.5768 3.62097 17.727 5.02247 18.4062 6.6622C19.0854 8.30194 19.2631 10.1063 18.9169 11.847C18.5706 13.5877 17.716 15.1867 16.461 16.4417C15.206 17.6967 13.607 18.5513 11.8663 18.8976C10.1255 19.2438 8.32122 19.0661 6.68149 18.3869C5.04175 17.7077 3.64025 16.5576 2.6542 15.0818C1.66816 13.6061 1.14186 11.8711 1.14186 10.0963C1.14548 7.7175 2.09212 5.43719 3.77425 3.75519C5.45639 2.0732 7.73678 1.126 10.1156 1.12258Z" fill="black"/>
</svg>
