<svg width="42" height="42" viewBox="0 0 42 42" fill="none" xmlns="http://www.w3.org/2000/svg">
<path d="M30.7163 26.2338C32.039 26.2561 33.1079 27.3388 33.1079 28.6667C33.1079 29.313 32.8515 29.8962 32.4409 30.3334C32.8515 30.7706 33.1079 31.3538 33.1079 32.0001C33.1079 32.8392 32.6806 33.5692 32.0415 34.0076C32.291 34.3871 32.4412 34.8421 32.4412 35.3334C32.4412 36.1729 32.0136 36.9032 31.368 37.3416C31.6687 37.8035 31.8196 38.3592 31.7607 38.9169C31.6351 40.1449 30.5287 41.1 29.2412 41.1H20.3346C18.5581 41.1 16.7951 40.6559 15.2338 39.8147C14.5847 39.4652 13.8569 39.246 13.1013 39.1523V39.6667C13.1013 40.0886 12.7565 40.4334 12.3346 40.4334H4.33463C3.91274 40.4334 3.56797 40.0886 3.56797 39.6667V26.3334C3.56797 25.9115 3.91274 25.5668 4.33463 25.5668H12.3279C12.7498 25.5668 13.0946 25.9115 13.0946 26.3334V26.83C13.9194 26.6907 14.6926 26.3265 15.3288 25.7715L30.7163 26.2338ZM30.7163 26.2338L30.7093 26.2268H30.6679H25.1012V23.6601C25.1012 20.6649 22.6631 18.2268 19.6679 18.2268C19.246 18.2268 18.9012 18.5716 18.9012 18.9934V20.5801C18.9012 21.8912 18.3337 23.1438 17.3421 24.0115C17.3421 24.0115 17.3421 24.0115 17.3421 24.0115L15.3288 25.7714L30.7163 26.2338ZM20.4412 19.827C22.2234 20.1858 23.5746 21.7642 23.5746 23.6534V26.9867C23.5746 27.4086 23.9193 27.7534 24.3412 27.7534H30.6745C31.1726 27.7534 31.5745 28.1553 31.5745 28.6534C31.5745 29.1515 31.1726 29.5534 30.6745 29.5534H29.0079C28.586 29.5534 28.2412 29.8982 28.2412 30.3201C28.2412 30.6686 28.4765 30.9646 28.7963 31.0569L28.7598 31.0934H29.0012H30.6679C31.166 31.0934 31.5679 31.4953 31.5679 31.9934C31.5679 32.4915 31.166 32.8934 30.6679 32.8934H28.3345C27.9126 32.8934 27.5679 33.2382 27.5679 33.6601C27.5679 34.0819 27.9126 34.4267 28.3345 34.4267H30.0012C30.4993 34.4267 30.9012 34.8286 30.9012 35.3267C30.9012 35.8248 30.4993 36.2267 30.0012 36.2267H27.6679C27.246 36.2267 26.9012 36.5715 26.9012 36.9934C26.9012 37.4153 27.246 37.76 27.6679 37.76H29.3345C29.5917 37.76 29.8255 37.8672 30.0009 38.0544C30.1742 38.2459 30.2523 38.4907 30.2284 38.75C30.1809 39.1915 29.7577 39.5534 29.2412 39.5534H20.3346C18.8113 39.5534 17.3009 39.1709 15.9621 38.4521C15.0888 37.9793 14.1144 37.6919 13.1013 37.5892V28.369C14.2958 28.2187 15.4279 27.7088 16.3469 26.9088L16.3471 26.9087L18.3604 25.1487L18.3605 25.1486C19.682 23.9897 20.4412 22.3224 20.4412 20.5668V19.827ZM11.5679 27.6601V38.8934H5.1013V27.0934H11.5679V27.6601Z" fill="#533BE4" stroke="#533BE4" stroke-width="0.2"/>
<path d="M13.8615 7.50325L16.6719 10.3901L13.8615 7.50325ZM13.8615 7.50325L17.9071 6.72816L17.9138 6.73489L17.9659 6.72483C18.3733 6.64622 18.725 6.40277 18.9334 6.04373C18.9334 6.04365 18.9335 6.04357 18.9335 6.04349L21.0003 2.52413L23.0671 6.04349C23.0672 6.04355 23.0672 6.04361 23.0672 6.04367C23.2756 6.40274 23.6273 6.64621 24.0347 6.72484L24.0354 6.72497L28.1389 7.4844L25.3288 10.3901C25.3287 10.3901 25.3287 10.3902 25.3286 10.3902C25.0269 10.6993 24.8909 11.1229 24.941 11.5451L24.9411 11.5455L25.4263 15.491L21.5805 13.8017L21.5799 13.8015C21.2156 13.6443 20.7932 13.6367 20.4199 13.8018L20.4199 13.8018L16.5744 15.5038L17.0596 11.5455L17.0596 11.5451C17.1097 11.1229 16.9738 10.6993 16.672 10.3902L13.8615 7.50325ZM12.6285 8.42957L15.5338 11.4273L15.0345 15.5007C15.0345 15.5008 15.0345 15.5008 15.0344 15.5009C14.9699 16.0108 15.1857 16.5059 15.6008 16.8136C16.016 17.1214 16.5673 17.1861 17.0406 16.9782C17.0406 16.9782 17.0406 16.9782 17.0406 16.9782L21.007 15.2358L24.9667 16.9781L24.9667 16.9781L24.968 16.9787C25.1524 17.0567 25.3456 17.0999 25.547 17.0999C25.8537 17.0999 26.1553 17.0072 26.4073 16.813C26.8226 16.5047 27.0302 16.0166 26.973 15.5022L26.9729 15.5009L26.4655 11.4284L29.3717 8.42333C29.3717 8.42327 29.3718 8.42322 29.3718 8.42316C29.7383 8.0494 29.8597 7.50412 29.7024 7.00999C29.5443 6.507 29.1207 6.14189 28.606 6.04182L28.6056 6.04174L24.3702 5.23688L22.2401 1.60978C22.2401 1.60975 22.2401 1.60971 22.2401 1.60968C21.9819 1.16516 21.5154 0.9 21.0003 0.9C20.4844 0.9 20.0255 1.16579 19.7611 1.60875L19.7608 1.60936L17.6304 5.23696L13.3949 6.04843L13.3946 6.04848C12.8794 6.14867 12.4564 6.52082 12.2984 7.01627C12.1405 7.51148 12.2697 8.05635 12.6283 8.42928L12.6285 8.42957Z" fill="#533BE4" stroke="#533BE4" stroke-width="0.2"/>
<path d="M4.39764 18.3383L4.4056 18.3463L4.46857 18.3179L7.0008 17.1764L9.53274 18.3178C9.5328 18.3178 9.53286 18.3178 9.53291 18.3178C9.93315 18.4997 10.3915 18.4483 10.7467 18.1873L10.7474 18.1867C11.0954 17.9258 11.2843 17.4978 11.2334 17.0618L11.2334 17.0615L10.9123 14.388L12.7664 12.4225C12.7665 12.4224 12.7666 12.4223 12.7667 12.4222C13.0724 12.1017 13.1733 11.6371 13.0429 11.2171L13.043 11.2171L13.0425 11.2156C12.9047 10.795 12.5561 10.4825 12.1204 10.3954L12.12 10.3953L9.41144 9.86407L8.0475 7.49028L8.04741 7.49013C7.82986 7.11304 7.43048 6.8801 7.0008 6.8801C6.57226 6.8801 6.16527 7.1121 5.95378 7.49083L4.59015 9.86407L1.88157 10.3953L1.8812 10.3954C1.4455 10.4825 1.09691 10.795 0.959122 11.2156C0.820838 11.6378 0.930047 12.1027 1.23493 12.4222C1.235 12.4223 1.23508 12.4224 1.23515 12.4225L3.08927 14.388L2.76819 17.0615L2.76815 17.0618C2.7174 17.4968 2.89875 17.9256 3.25493 18.1873L3.25549 18.1877C3.46596 18.3401 3.71984 18.4201 3.96747 18.4201C4.11294 18.4201 4.25796 18.3927 4.39764 18.3383ZM2.75078 11.7956L5.02628 11.3516C5.02632 11.3516 5.02636 11.3516 5.02639 11.3516C5.36851 11.2861 5.67323 11.0682 5.84763 10.763L7.0008 8.75429L8.15397 10.763C8.32877 11.0689 8.62689 11.2791 8.97373 11.3513L8.97372 11.3513L8.97497 11.3516L11.2568 11.7968L9.69475 13.4514C9.69475 13.4514 9.69474 13.4514 9.69473 13.4514C9.44735 13.7134 9.33136 14.0697 9.37483 14.432L9.37484 14.432L9.64695 16.6894L7.50217 15.7224C7.50212 15.7223 7.50207 15.7223 7.50202 15.7223C7.34278 15.6499 7.17543 15.6134 7.00746 15.6134C6.84074 15.6134 6.66628 15.6494 6.5121 15.7227L4.36803 16.6893L4.64008 14.4387L4.64009 14.4387C4.68357 14.0764 4.56757 13.72 4.32017 13.4581L2.75078 11.7956Z" fill="#533BE4" stroke="#533BE4" stroke-width="0.2"/>
<path d="M40.12 10.4021L37.4114 9.87091L36.0475 7.49712L36.0474 7.49696C35.8299 7.11988 35.4305 6.88694 35.0008 6.88694C34.5723 6.88694 34.1653 7.11894 33.9538 7.49767L32.5901 9.87091L29.8816 10.4021L29.8812 10.4022C29.4455 10.4893 29.0969 10.8018 28.9591 11.2225C28.8208 11.6446 28.93 12.1095 29.2349 12.4291C29.235 12.4291 29.2351 12.4292 29.2351 12.4293L31.0893 14.3948L30.7682 17.0683L30.7682 17.0686C30.7174 17.5037 30.8987 17.9325 31.2549 18.1942L31.2555 18.1946C31.466 18.347 31.7198 18.4269 31.9675 18.4269C32.1354 18.4269 32.3028 18.3904 32.462 18.318C32.4621 18.318 32.4621 18.318 32.4622 18.3179L34.9941 17.1766L37.5261 18.3179C37.5261 18.318 37.5262 18.318 37.5262 18.318C37.9265 18.4999 38.3848 18.4484 38.74 18.1875L38.7408 18.1869C39.0887 17.9259 39.2776 17.498 39.2268 17.062L39.2267 17.0616L38.9057 14.3881L40.7598 12.4226C40.7599 12.4225 40.7599 12.4225 40.76 12.4224C41.0639 12.1038 41.1654 11.6428 41.0386 11.2248L41.0425 11.2225C40.9047 10.8018 40.5561 10.4893 40.1204 10.4022L40.12 10.4021ZM39.2701 11.8036L37.7591 13.4042L37.7457 13.3976L37.6948 13.4516C37.4474 13.7135 37.3314 14.0699 37.3748 14.4322L37.3748 14.4322L37.647 16.6895L35.5022 15.7225C35.5021 15.7225 35.5021 15.7225 35.5021 15.7225C35.3428 15.6501 35.1754 15.6136 35.0075 15.6136C34.8407 15.6136 34.6663 15.6496 34.5121 15.7228L32.368 16.6895L32.6401 14.4389L32.6401 14.4388C32.6836 14.0765 32.5676 13.7202 32.3202 13.4583C32.3202 13.4583 32.3202 13.4583 32.3202 13.4583L30.7582 11.8036L33.0396 11.3585C33.0396 11.3585 33.0397 11.3585 33.0397 11.3584C33.3818 11.2929 33.6866 11.0751 33.861 10.7699L35.0141 8.76112L36.1673 10.7699C36.3421 11.0758 36.6402 11.2859 36.9871 11.3582L36.9871 11.3582L36.9883 11.3584L39.2701 11.8036Z" fill="#533BE4" stroke="#533BE4" stroke-width="0.2"/>
</svg>
