<svg width="40" height="42" viewBox="0 0 40 42" fill="none" xmlns="http://www.w3.org/2000/svg">
<mask id="path-1-outside-1_293_547" maskUnits="userSpaceOnUse" x="-0.5" y="0" width="40" height="42" fill="black">
<rect fill="white" x="-0.5" width="40" height="42"/>
<path d="M34.1986 25.8415C34.8584 24.1116 35.1866 22.2578 35.1866 20.362C35.1866 11.8748 28.3073 4.99543 19.8201 4.99543C11.3329 4.99543 4.45353 11.8748 4.45353 20.362C4.45353 22.2577 4.78342 24.1115 5.44158 25.8415C5.56549 26.1295 5.39974 26.4176 5.11169 26.5415C4.82364 26.6654 4.5356 26.4996 4.41169 26.2116C3.71168 24.3578 3.33993 22.38 3.33993 20.3622C3.33993 15.9546 5.06983 11.835 8.15946 8.74527C11.3344 5.61371 15.4541 3.88372 19.8616 3.88372C28.9248 3.88372 36.298 11.257 36.298 20.3201C36.298 22.3381 35.9279 24.3158 35.2263 26.1696C35.1442 26.3756 34.9382 26.5397 34.7323 26.5397C34.6502 26.5397 34.6084 26.5397 34.5263 26.4979C34.2382 26.4174 34.1159 26.1293 34.198 25.8413L34.1986 25.8415ZM4.74339 32.1029C4.8673 32.1029 4.99121 32.061 5.07328 31.979C5.3211 31.8148 5.36133 31.4431 5.19719 31.1969C2.84934 28.0251 1.61346 24.2755 1.61346 20.322C1.61185 10.2693 9.81066 2.07167 19.8621 2.07167C29.9135 2.07167 38.1124 10.2689 38.1124 20.322C38.1124 24.2774 36.8765 28.0252 34.5286 31.1969C34.3645 31.4447 34.4047 31.773 34.6526 31.979C34.9004 32.1431 35.2286 32.1029 35.4346 31.8551C37.9064 28.5175 39.2243 24.5217 39.2243 20.3202C39.2243 15.1706 37.2064 10.3091 33.5389 6.64345C29.8731 3.01787 25.0117 1 19.8622 1C14.7127 1 9.8511 3.01795 6.18547 6.68547C2.51807 10.3111 0.5 15.171 0.5 20.3622C0.5 24.5638 1.81795 28.5194 4.28971 31.8971C4.41362 32.021 4.57762 32.1029 4.74339 32.1029ZM36.6283 37.7463C36.6283 38.0344 36.3805 38.2822 36.0925 38.2822C35.8044 38.2822 35.5566 38.0344 35.5566 37.7463C35.5566 34.8207 33.1669 32.4728 30.2831 32.4728C28.7994 32.4728 27.3993 33.0908 26.4113 34.2027C27.9771 35.8087 28.9249 38.0343 28.9249 40.4641C28.9249 40.7522 28.6771 41 28.389 41C28.101 41 27.8532 40.7522 27.8532 40.4641C27.8532 36.0965 24.3096 32.5549 19.9439 32.5549C15.5763 32.5549 12.0347 36.0984 12.0347 40.4641C12.0347 40.7522 11.7869 41 11.4988 41C11.2107 41 10.9629 40.7522 10.9629 40.4641C10.9629 38.0342 11.9108 35.8506 13.4766 34.2027C12.4885 33.131 11.0868 32.4728 9.60478 32.4728C6.67919 32.4728 4.33126 34.8625 4.33126 37.7463H3.09538C3.09538 34.9865 4.82529 32.6388 7.29697 31.7729C6.34913 31.0729 5.69098 29.9609 5.69098 28.6832C5.69098 26.5815 7.38068 24.8935 9.48069 24.8935C11.5824 24.8935 13.2704 26.5832 13.2704 28.6832C13.2704 29.9609 12.6525 31.0729 11.6644 31.7729C12.6123 32.1028 13.4764 32.6789 14.178 33.4626C15.084 32.7207 16.1139 32.1849 17.2259 31.8148C15.6601 30.9088 14.59 29.2191 14.59 27.2412C14.59 24.3574 16.9378 21.9676 19.8635 21.9676C22.7891 21.9676 25.137 24.3155 25.137 27.2412C25.137 29.177 24.0653 30.907 22.5011 31.8148C23.6131 32.1446 24.6849 32.7207 25.549 33.4626C26.249 32.7207 27.1148 32.1446 28.0626 31.7729C27.1148 31.0729 26.4566 29.9609 26.4566 28.6832C26.4566 26.5815 28.1463 24.8935 30.2463 24.8935C32.348 24.8935 34.036 26.5832 34.036 28.6832C34.036 29.9609 33.4181 31.0729 32.4301 31.7729C34.8568 32.6387 36.6283 34.9865 36.6283 37.7463ZM9.48094 31.3609C10.9647 31.3609 12.1587 30.1669 12.1587 28.6832C12.1587 27.1995 10.9647 26.0054 9.48094 26.0054C7.99722 26.0054 6.80319 27.1995 6.80319 28.6832C6.76135 30.1669 7.99722 31.3609 9.48094 31.3609ZM19.8619 31.4028C22.1696 31.4028 24.0236 29.549 24.0236 27.2411C24.0236 24.9351 22.1698 23.0812 19.8619 23.0812C17.5541 23.0812 15.7003 24.935 15.7003 27.2428C15.7003 29.5488 17.5541 31.4028 19.8619 31.4028ZM30.2429 31.3609C31.7267 31.3609 32.9207 30.1669 32.9207 28.6832C32.9207 27.1995 31.7267 26.0054 30.2429 26.0054C28.7592 26.0054 27.5652 27.1995 27.5652 28.6832C27.5652 30.1669 28.7608 31.3609 30.2429 31.3609ZM19.8619 8.08514C20.15 8.08514 20.3978 7.83732 20.3978 7.54926V6.68348C20.3978 6.39543 20.15 6.1476 19.8619 6.1476C19.5739 6.1476 19.3261 6.39542 19.3261 6.68348V7.54926C19.3261 7.83892 19.5739 8.08514 19.8619 8.08514ZM26.2053 8.25088L25.7934 8.99274C25.6292 9.24056 25.7113 9.56883 25.9993 9.7346C26.0814 9.77644 26.1635 9.81668 26.2874 9.81668C26.4934 9.81668 26.6575 9.7346 26.7412 9.52862L27.1532 8.78676C27.3173 8.53894 27.2352 8.21068 26.9472 8.0449C26.701 7.87916 26.3711 8.00307 26.2053 8.25088ZM31.3969 13.0288L30.655 13.4408C30.4072 13.6049 30.2849 13.9348 30.449 14.1826C30.5311 14.3468 30.7371 14.4707 30.9028 14.4707C30.9849 14.4707 31.1088 14.4288 31.1909 14.3886L31.9327 13.9766C32.1806 13.8125 32.3029 13.4826 32.1387 13.2348C32.0148 12.9886 31.6849 12.9049 31.3969 13.0288ZM32.6746 20.8981H33.5404C33.8284 20.8981 34.0762 20.6503 34.0762 20.3622C34.0762 20.0742 33.8284 19.8263 33.5404 19.8263H32.6746C32.3865 19.8263 32.1387 20.0742 32.1387 20.3622C32.1387 20.6503 32.3447 20.8981 32.6746 20.8981ZM7.04938 19.7861H6.1836C5.89555 19.7861 5.64772 20.0339 5.64772 20.322C5.64772 20.6101 5.89554 20.8579 6.1836 20.8579H7.04938C7.33743 20.8579 7.58526 20.6101 7.58526 20.322C7.58526 20.0323 7.37928 19.7861 7.04938 19.7861ZM7.75099 13.9766L8.49285 14.3886C8.57492 14.4305 8.65699 14.4707 8.7809 14.4707C8.98688 14.4707 9.15102 14.3886 9.23472 14.1826C9.39886 13.9348 9.27656 13.6065 9.02874 13.4408L8.28688 13.0288C8.03906 12.8647 7.71079 12.987 7.54502 13.2348C7.42111 13.5228 7.50317 13.8527 7.75099 13.9766ZM12.7765 8.04523C12.5287 8.20938 12.4064 8.53926 12.5705 8.78709L12.9825 9.52895C13.0646 9.69309 13.2705 9.817 13.4363 9.817C13.5184 9.817 13.6423 9.77517 13.7244 9.73493C13.9722 9.57079 14.0945 9.24091 13.9303 8.99307L13.5184 8.25121C13.3526 8.0034 13.0227 7.92132 12.7765 8.04523ZM19.3259 18.6726C19.3259 18.8786 19.4498 19.0427 19.6139 19.1264C19.696 19.1682 19.7781 19.2085 19.902 19.2085C19.984 19.2085 20.1079 19.1666 20.19 19.1264L24.1455 16.8606C24.3933 16.6965 24.5156 16.3666 24.3515 16.1188C24.1873 15.8709 23.8575 15.7889 23.6096 15.9128L20.4781 17.7248L20.4797 10.1871C20.4797 9.89905 20.2318 9.65122 19.9438 9.65122C19.6557 9.65122 19.4079 9.89904 19.4079 10.1871V18.6727L19.3259 18.6726Z"/>
</mask>
<path d="M34.1986 25.8415C34.8584 24.1116 35.1866 22.2578 35.1866 20.362C35.1866 11.8748 28.3073 4.99543 19.8201 4.99543C11.3329 4.99543 4.45353 11.8748 4.45353 20.362C4.45353 22.2577 4.78342 24.1115 5.44158 25.8415C5.56549 26.1295 5.39974 26.4176 5.11169 26.5415C4.82364 26.6654 4.5356 26.4996 4.41169 26.2116C3.71168 24.3578 3.33993 22.38 3.33993 20.3622C3.33993 15.9546 5.06983 11.835 8.15946 8.74527C11.3344 5.61371 15.4541 3.88372 19.8616 3.88372C28.9248 3.88372 36.298 11.257 36.298 20.3201C36.298 22.3381 35.9279 24.3158 35.2263 26.1696C35.1442 26.3756 34.9382 26.5397 34.7323 26.5397C34.6502 26.5397 34.6084 26.5397 34.5263 26.4979C34.2382 26.4174 34.1159 26.1293 34.198 25.8413L34.1986 25.8415ZM4.74339 32.1029C4.8673 32.1029 4.99121 32.061 5.07328 31.979C5.3211 31.8148 5.36133 31.4431 5.19719 31.1969C2.84934 28.0251 1.61346 24.2755 1.61346 20.322C1.61185 10.2693 9.81066 2.07167 19.8621 2.07167C29.9135 2.07167 38.1124 10.2689 38.1124 20.322C38.1124 24.2774 36.8765 28.0252 34.5286 31.1969C34.3645 31.4447 34.4047 31.773 34.6526 31.979C34.9004 32.1431 35.2286 32.1029 35.4346 31.8551C37.9064 28.5175 39.2243 24.5217 39.2243 20.3202C39.2243 15.1706 37.2064 10.3091 33.5389 6.64345C29.8731 3.01787 25.0117 1 19.8622 1C14.7127 1 9.8511 3.01795 6.18547 6.68547C2.51807 10.3111 0.5 15.171 0.5 20.3622C0.5 24.5638 1.81795 28.5194 4.28971 31.8971C4.41362 32.021 4.57762 32.1029 4.74339 32.1029ZM36.6283 37.7463C36.6283 38.0344 36.3805 38.2822 36.0925 38.2822C35.8044 38.2822 35.5566 38.0344 35.5566 37.7463C35.5566 34.8207 33.1669 32.4728 30.2831 32.4728C28.7994 32.4728 27.3993 33.0908 26.4113 34.2027C27.9771 35.8087 28.9249 38.0343 28.9249 40.4641C28.9249 40.7522 28.6771 41 28.389 41C28.101 41 27.8532 40.7522 27.8532 40.4641C27.8532 36.0965 24.3096 32.5549 19.9439 32.5549C15.5763 32.5549 12.0347 36.0984 12.0347 40.4641C12.0347 40.7522 11.7869 41 11.4988 41C11.2107 41 10.9629 40.7522 10.9629 40.4641C10.9629 38.0342 11.9108 35.8506 13.4766 34.2027C12.4885 33.131 11.0868 32.4728 9.60478 32.4728C6.67919 32.4728 4.33126 34.8625 4.33126 37.7463H3.09538C3.09538 34.9865 4.82529 32.6388 7.29697 31.7729C6.34913 31.0729 5.69098 29.9609 5.69098 28.6832C5.69098 26.5815 7.38068 24.8935 9.48069 24.8935C11.5824 24.8935 13.2704 26.5832 13.2704 28.6832C13.2704 29.9609 12.6525 31.0729 11.6644 31.7729C12.6123 32.1028 13.4764 32.6789 14.178 33.4626C15.084 32.7207 16.1139 32.1849 17.2259 31.8148C15.6601 30.9088 14.59 29.2191 14.59 27.2412C14.59 24.3574 16.9378 21.9676 19.8635 21.9676C22.7891 21.9676 25.137 24.3155 25.137 27.2412C25.137 29.177 24.0653 30.907 22.5011 31.8148C23.6131 32.1446 24.6849 32.7207 25.549 33.4626C26.249 32.7207 27.1148 32.1446 28.0626 31.7729C27.1148 31.0729 26.4566 29.9609 26.4566 28.6832C26.4566 26.5815 28.1463 24.8935 30.2463 24.8935C32.348 24.8935 34.036 26.5832 34.036 28.6832C34.036 29.9609 33.4181 31.0729 32.4301 31.7729C34.8568 32.6387 36.6283 34.9865 36.6283 37.7463ZM9.48094 31.3609C10.9647 31.3609 12.1587 30.1669 12.1587 28.6832C12.1587 27.1995 10.9647 26.0054 9.48094 26.0054C7.99722 26.0054 6.80319 27.1995 6.80319 28.6832C6.76135 30.1669 7.99722 31.3609 9.48094 31.3609ZM19.8619 31.4028C22.1696 31.4028 24.0236 29.549 24.0236 27.2411C24.0236 24.9351 22.1698 23.0812 19.8619 23.0812C17.5541 23.0812 15.7003 24.935 15.7003 27.2428C15.7003 29.5488 17.5541 31.4028 19.8619 31.4028ZM30.2429 31.3609C31.7267 31.3609 32.9207 30.1669 32.9207 28.6832C32.9207 27.1995 31.7267 26.0054 30.2429 26.0054C28.7592 26.0054 27.5652 27.1995 27.5652 28.6832C27.5652 30.1669 28.7608 31.3609 30.2429 31.3609ZM19.8619 8.08514C20.15 8.08514 20.3978 7.83732 20.3978 7.54926V6.68348C20.3978 6.39543 20.15 6.1476 19.8619 6.1476C19.5739 6.1476 19.3261 6.39542 19.3261 6.68348V7.54926C19.3261 7.83892 19.5739 8.08514 19.8619 8.08514ZM26.2053 8.25088L25.7934 8.99274C25.6292 9.24056 25.7113 9.56883 25.9993 9.7346C26.0814 9.77644 26.1635 9.81668 26.2874 9.81668C26.4934 9.81668 26.6575 9.7346 26.7412 9.52862L27.1532 8.78676C27.3173 8.53894 27.2352 8.21068 26.9472 8.0449C26.701 7.87916 26.3711 8.00307 26.2053 8.25088ZM31.3969 13.0288L30.655 13.4408C30.4072 13.6049 30.2849 13.9348 30.449 14.1826C30.5311 14.3468 30.7371 14.4707 30.9028 14.4707C30.9849 14.4707 31.1088 14.4288 31.1909 14.3886L31.9327 13.9766C32.1806 13.8125 32.3029 13.4826 32.1387 13.2348C32.0148 12.9886 31.6849 12.9049 31.3969 13.0288ZM32.6746 20.8981H33.5404C33.8284 20.8981 34.0762 20.6503 34.0762 20.3622C34.0762 20.0742 33.8284 19.8263 33.5404 19.8263H32.6746C32.3865 19.8263 32.1387 20.0742 32.1387 20.3622C32.1387 20.6503 32.3447 20.8981 32.6746 20.8981ZM7.04938 19.7861H6.1836C5.89555 19.7861 5.64772 20.0339 5.64772 20.322C5.64772 20.6101 5.89554 20.8579 6.1836 20.8579H7.04938C7.33743 20.8579 7.58526 20.6101 7.58526 20.322C7.58526 20.0323 7.37928 19.7861 7.04938 19.7861ZM7.75099 13.9766L8.49285 14.3886C8.57492 14.4305 8.65699 14.4707 8.7809 14.4707C8.98688 14.4707 9.15102 14.3886 9.23472 14.1826C9.39886 13.9348 9.27656 13.6065 9.02874 13.4408L8.28688 13.0288C8.03906 12.8647 7.71079 12.987 7.54502 13.2348C7.42111 13.5228 7.50317 13.8527 7.75099 13.9766ZM12.7765 8.04523C12.5287 8.20938 12.4064 8.53926 12.5705 8.78709L12.9825 9.52895C13.0646 9.69309 13.2705 9.817 13.4363 9.817C13.5184 9.817 13.6423 9.77517 13.7244 9.73493C13.9722 9.57079 14.0945 9.24091 13.9303 8.99307L13.5184 8.25121C13.3526 8.0034 13.0227 7.92132 12.7765 8.04523ZM19.3259 18.6726C19.3259 18.8786 19.4498 19.0427 19.6139 19.1264C19.696 19.1682 19.7781 19.2085 19.902 19.2085C19.984 19.2085 20.1079 19.1666 20.19 19.1264L24.1455 16.8606C24.3933 16.6965 24.5156 16.3666 24.3515 16.1188C24.1873 15.8709 23.8575 15.7889 23.6096 15.9128L20.4781 17.7248L20.4797 10.1871C20.4797 9.89905 20.2318 9.65122 19.9438 9.65122C19.6557 9.65122 19.4079 9.89904 19.4079 10.1871V18.6727L19.3259 18.6726Z" fill="#533BE4"/>
<path d="M34.1986 25.8415C34.8584 24.1116 35.1866 22.2578 35.1866 20.362C35.1866 11.8748 28.3073 4.99543 19.8201 4.99543C11.3329 4.99543 4.45353 11.8748 4.45353 20.362C4.45353 22.2577 4.78342 24.1115 5.44158 25.8415C5.56549 26.1295 5.39974 26.4176 5.11169 26.5415C4.82364 26.6654 4.5356 26.4996 4.41169 26.2116C3.71168 24.3578 3.33993 22.38 3.33993 20.3622C3.33993 15.9546 5.06983 11.835 8.15946 8.74527C11.3344 5.61371 15.4541 3.88372 19.8616 3.88372C28.9248 3.88372 36.298 11.257 36.298 20.3201C36.298 22.3381 35.9279 24.3158 35.2263 26.1696C35.1442 26.3756 34.9382 26.5397 34.7323 26.5397C34.6502 26.5397 34.6084 26.5397 34.5263 26.4979C34.2382 26.4174 34.1159 26.1293 34.198 25.8413L34.1986 25.8415ZM4.74339 32.1029C4.8673 32.1029 4.99121 32.061 5.07328 31.979C5.3211 31.8148 5.36133 31.4431 5.19719 31.1969C2.84934 28.0251 1.61346 24.2755 1.61346 20.322C1.61185 10.2693 9.81066 2.07167 19.8621 2.07167C29.9135 2.07167 38.1124 10.2689 38.1124 20.322C38.1124 24.2774 36.8765 28.0252 34.5286 31.1969C34.3645 31.4447 34.4047 31.773 34.6526 31.979C34.9004 32.1431 35.2286 32.1029 35.4346 31.8551C37.9064 28.5175 39.2243 24.5217 39.2243 20.3202C39.2243 15.1706 37.2064 10.3091 33.5389 6.64345C29.8731 3.01787 25.0117 1 19.8622 1C14.7127 1 9.8511 3.01795 6.18547 6.68547C2.51807 10.3111 0.5 15.171 0.5 20.3622C0.5 24.5638 1.81795 28.5194 4.28971 31.8971C4.41362 32.021 4.57762 32.1029 4.74339 32.1029ZM36.6283 37.7463C36.6283 38.0344 36.3805 38.2822 36.0925 38.2822C35.8044 38.2822 35.5566 38.0344 35.5566 37.7463C35.5566 34.8207 33.1669 32.4728 30.2831 32.4728C28.7994 32.4728 27.3993 33.0908 26.4113 34.2027C27.9771 35.8087 28.9249 38.0343 28.9249 40.4641C28.9249 40.7522 28.6771 41 28.389 41C28.101 41 27.8532 40.7522 27.8532 40.4641C27.8532 36.0965 24.3096 32.5549 19.9439 32.5549C15.5763 32.5549 12.0347 36.0984 12.0347 40.4641C12.0347 40.7522 11.7869 41 11.4988 41C11.2107 41 10.9629 40.7522 10.9629 40.4641C10.9629 38.0342 11.9108 35.8506 13.4766 34.2027C12.4885 33.131 11.0868 32.4728 9.60478 32.4728C6.67919 32.4728 4.33126 34.8625 4.33126 37.7463H3.09538C3.09538 34.9865 4.82529 32.6388 7.29697 31.7729C6.34913 31.0729 5.69098 29.9609 5.69098 28.6832C5.69098 26.5815 7.38068 24.8935 9.48069 24.8935C11.5824 24.8935 13.2704 26.5832 13.2704 28.6832C13.2704 29.9609 12.6525 31.0729 11.6644 31.7729C12.6123 32.1028 13.4764 32.6789 14.178 33.4626C15.084 32.7207 16.1139 32.1849 17.2259 31.8148C15.6601 30.9088 14.59 29.2191 14.59 27.2412C14.59 24.3574 16.9378 21.9676 19.8635 21.9676C22.7891 21.9676 25.137 24.3155 25.137 27.2412C25.137 29.177 24.0653 30.907 22.5011 31.8148C23.6131 32.1446 24.6849 32.7207 25.549 33.4626C26.249 32.7207 27.1148 32.1446 28.0626 31.7729C27.1148 31.0729 26.4566 29.9609 26.4566 28.6832C26.4566 26.5815 28.1463 24.8935 30.2463 24.8935C32.348 24.8935 34.036 26.5832 34.036 28.6832C34.036 29.9609 33.4181 31.0729 32.4301 31.7729C34.8568 32.6387 36.6283 34.9865 36.6283 37.7463ZM9.48094 31.3609C10.9647 31.3609 12.1587 30.1669 12.1587 28.6832C12.1587 27.1995 10.9647 26.0054 9.48094 26.0054C7.99722 26.0054 6.80319 27.1995 6.80319 28.6832C6.76135 30.1669 7.99722 31.3609 9.48094 31.3609ZM19.8619 31.4028C22.1696 31.4028 24.0236 29.549 24.0236 27.2411C24.0236 24.9351 22.1698 23.0812 19.8619 23.0812C17.5541 23.0812 15.7003 24.935 15.7003 27.2428C15.7003 29.5488 17.5541 31.4028 19.8619 31.4028ZM30.2429 31.3609C31.7267 31.3609 32.9207 30.1669 32.9207 28.6832C32.9207 27.1995 31.7267 26.0054 30.2429 26.0054C28.7592 26.0054 27.5652 27.1995 27.5652 28.6832C27.5652 30.1669 28.7608 31.3609 30.2429 31.3609ZM19.8619 8.08514C20.15 8.08514 20.3978 7.83732 20.3978 7.54926V6.68348C20.3978 6.39543 20.15 6.1476 19.8619 6.1476C19.5739 6.1476 19.3261 6.39542 19.3261 6.68348V7.54926C19.3261 7.83892 19.5739 8.08514 19.8619 8.08514ZM26.2053 8.25088L25.7934 8.99274C25.6292 9.24056 25.7113 9.56883 25.9993 9.7346C26.0814 9.77644 26.1635 9.81668 26.2874 9.81668C26.4934 9.81668 26.6575 9.7346 26.7412 9.52862L27.1532 8.78676C27.3173 8.53894 27.2352 8.21068 26.9472 8.0449C26.701 7.87916 26.3711 8.00307 26.2053 8.25088ZM31.3969 13.0288L30.655 13.4408C30.4072 13.6049 30.2849 13.9348 30.449 14.1826C30.5311 14.3468 30.7371 14.4707 30.9028 14.4707C30.9849 14.4707 31.1088 14.4288 31.1909 14.3886L31.9327 13.9766C32.1806 13.8125 32.3029 13.4826 32.1387 13.2348C32.0148 12.9886 31.6849 12.9049 31.3969 13.0288ZM32.6746 20.8981H33.5404C33.8284 20.8981 34.0762 20.6503 34.0762 20.3622C34.0762 20.0742 33.8284 19.8263 33.5404 19.8263H32.6746C32.3865 19.8263 32.1387 20.0742 32.1387 20.3622C32.1387 20.6503 32.3447 20.8981 32.6746 20.8981ZM7.04938 19.7861H6.1836C5.89555 19.7861 5.64772 20.0339 5.64772 20.322C5.64772 20.6101 5.89554 20.8579 6.1836 20.8579H7.04938C7.33743 20.8579 7.58526 20.6101 7.58526 20.322C7.58526 20.0323 7.37928 19.7861 7.04938 19.7861ZM7.75099 13.9766L8.49285 14.3886C8.57492 14.4305 8.65699 14.4707 8.7809 14.4707C8.98688 14.4707 9.15102 14.3886 9.23472 14.1826C9.39886 13.9348 9.27656 13.6065 9.02874 13.4408L8.28688 13.0288C8.03906 12.8647 7.71079 12.987 7.54502 13.2348C7.42111 13.5228 7.50317 13.8527 7.75099 13.9766ZM12.7765 8.04523C12.5287 8.20938 12.4064 8.53926 12.5705 8.78709L12.9825 9.52895C13.0646 9.69309 13.2705 9.817 13.4363 9.817C13.5184 9.817 13.6423 9.77517 13.7244 9.73493C13.9722 9.57079 14.0945 9.24091 13.9303 8.99307L13.5184 8.25121C13.3526 8.0034 13.0227 7.92132 12.7765 8.04523ZM19.3259 18.6726C19.3259 18.8786 19.4498 19.0427 19.6139 19.1264C19.696 19.1682 19.7781 19.2085 19.902 19.2085C19.984 19.2085 20.1079 19.1666 20.19 19.1264L24.1455 16.8606C24.3933 16.6965 24.5156 16.3666 24.3515 16.1188C24.1873 15.8709 23.8575 15.7889 23.6096 15.9128L20.4781 17.7248L20.4797 10.1871C20.4797 9.89905 20.2318 9.65122 19.9438 9.65122C19.6557 9.65122 19.4079 9.89904 19.4079 10.1871V18.6727L19.3259 18.6726Z" stroke="#533BE4" stroke-width="0.4" mask="url(#path-1-outside-1_293_547)"/>
</svg>
