<svg width="24" height="20" viewBox="0 0 24 20" fill="none" xmlns="http://www.w3.org/2000/svg">
<path d="M14.1136 17.0497H9.88432C9.66335 17.0497 9.48438 17.2287 9.48438 17.4497C9.48438 17.6706 9.66335 17.8496 9.88432 17.8496H14.1136C14.3346 17.8496 14.5136 17.6706 14.5136 17.4497C14.5136 17.2287 14.3346 17.0497 14.1136 17.0497Z" fill="black"/>
<path d="M6.10352 8.91857C6.10352 10.2154 7.15838 11.2703 8.4552 11.2703C9.75103 11.2703 10.8069 10.2154 10.8069 8.91857C10.8069 7.62274 9.75203 6.56688 8.4552 6.56688C7.15838 6.56688 6.10352 7.62174 6.10352 8.91857ZM10.007 8.91857C10.007 9.77446 9.31108 10.4704 8.4552 10.4704C7.59933 10.4704 6.90341 9.77444 6.90341 8.91857C6.90341 8.06269 7.59933 7.36677 8.4552 7.36677C9.31108 7.36677 10.007 8.06269 10.007 8.91857Z" fill="black"/>
<path d="M21.3404 2.63965H14.5914C14.3704 2.63965 14.1914 2.81862 14.1914 3.0396C14.1914 3.26057 14.3704 3.43954 14.5914 3.43954H21.3404C21.5614 3.43954 21.7404 3.26057 21.7404 3.0396C21.7404 2.81862 21.5614 2.63965 21.3404 2.63965Z" fill="black"/>
<path d="M21.3404 4.41516H14.5914C14.3704 4.41516 14.1914 4.59414 14.1914 4.81511C14.1914 5.03608 14.3704 5.21505 14.5914 5.21505H21.3404C21.5614 5.21505 21.7404 5.03608 21.7404 4.81511C21.7404 4.59414 21.5614 4.41516 21.3404 4.41516Z" fill="black"/>
<path d="M19.8067 6.19118H14.5914C14.3704 6.19118 14.1914 6.37015 14.1914 6.59112C14.1914 6.81209 14.3704 6.99107 14.5914 6.99107H19.8067C20.0276 6.99107 20.2066 6.81209 20.2066 6.59112C20.2066 6.37015 20.0276 6.19118 19.8067 6.19118Z" fill="black"/>
<path d="M22.5449 0.000816541H13.3882C12.5873 0.000816541 11.9364 0.651738 11.9364 1.45263V2.24454H3.81151C2.58067 2.24454 1.5798 3.24741 1.5798 4.48024V15.8648H0.399947C0.178976 15.8648 0 16.0438 0 16.2648V17.0467C0 18.2345 0.965862 19.2004 2.15372 19.2004H21.8442C23.032 19.2004 23.9979 18.2345 23.9979 17.0467V16.2648C23.9979 16.0438 23.8189 15.8648 23.5979 15.8648H22.4181V10.4665C22.4181 10.2455 22.2391 10.0666 22.0181 10.0666C21.7972 10.0666 21.6182 10.2455 21.6182 10.4665V15.8648H12.7374V15.1739C12.7374 13.1102 11.0587 11.4325 8.996 11.4325H7.91715C5.85343 11.4325 4.1757 13.1113 4.1757 15.1739V15.8648H2.38194V4.48024C2.38194 3.68834 3.02385 3.04443 3.81376 3.04443H11.9386V8.1768C11.9386 8.97669 12.5896 9.62861 13.3904 9.62861H14.2273V10.8435C14.2273 11.0004 14.3193 11.1424 14.4613 11.2074C14.5143 11.2314 14.5713 11.2434 14.6273 11.2434C14.7213 11.2434 14.8152 11.2104 14.8892 11.1454L16.641 9.62862H22.5482C23.3491 9.62862 24 8.9777 24 8.1768L23.998 1.45181C23.998 0.651919 23.3471 0 22.5462 0L22.5449 0.000816541ZM23.1968 17.0476C23.1968 17.7935 22.5899 18.4015 21.8429 18.4015H2.15354C1.40763 18.4015 0.799714 17.7945 0.799714 17.0476V16.6657H1.97055C1.97355 16.6657 1.97655 16.6677 1.97955 16.6677H22.0168C22.0198 16.6677 22.0228 16.6657 22.0258 16.6657H23.1967L23.1968 17.0476ZM4.97329 15.1749C4.97329 13.5531 6.2931 12.2333 7.91485 12.2333H8.99369C10.6165 12.2333 11.9353 13.5531 11.9353 15.1749V15.8658H4.97324L4.97329 15.1749ZM23.1968 8.17678C23.1968 8.53572 22.9048 8.8287 22.5449 8.8287H16.4887C16.3927 8.8287 16.2997 8.86369 16.2268 8.92668L15.0249 9.96854V9.22964C15.0249 9.00867 14.8459 8.8297 14.625 8.8297H13.3881C13.0292 8.8297 12.7362 8.53774 12.7362 8.17778V2.6525C12.7362 2.6495 12.7382 2.6475 12.7382 2.6445C12.7382 2.6415 12.7362 2.6395 12.7362 2.6365V1.45166C12.7362 1.09172 13.0282 0.79974 13.3881 0.79974H22.5448C22.9037 0.79974 23.1967 1.09169 23.1967 1.45166L23.1968 8.17678Z" fill="black"/>
</svg>
